<svg xmlns="http://www.w3.org/2000/svg" fill="none" viewBox="0 55 660 338"><defs><style type="text/css">@import url(/_static/survey/css/2024-svg.css);</style></defs><g id="2024-years-experience"><g class="title"><text font-size="14"><tspan x="40" y="33">Years of experience</tspan></text><text class="subtitle" font-size="12"><tspan x="40" y="49">Employees and contractors combined</tspan></text></g><g class="bar-chart-vertical"><g class="y-axis"><g class="gridlines"><path stroke="#F0F0F0" d="M68 354.5H620"/><path stroke="#F0F0F0" d="M68 260.5H620"/><path stroke="#F0F0F0" d="M68 167.5H620"/></g><g class="axis-labels"><text font-size="10"><tspan x="45" y="357">0%</tspan></text><text font-size="10"><tspan x="40" y="264">10%</tspan></text><text font-size="10"><tspan x="40" y="170">20%</tspan></text></g></g><g class="data-series"><g class="a"><g class="axis-labels"><text font-size="10"><tspan x="107" y="371">0-1</tspan></text><text font-size="10"><tspan x="199" y="371">1-5</tspan></text><text font-size="10"><tspan x="289" y="371">5-10</tspan></text><text font-size="10"><tspan x="378" y="371">10-15</tspan></text><text font-size="10"><tspan x="470" y="371">15-25</tspan></text><text font-size="10"><tspan x="566" y="371">25+</tspan></text></g><g class="bars"><path fill="#00AEFF" d="M156 341H72V355H156V341Z"/><path fill="#00AEFF" d="M248 155H164V355H248V155Z"/><path fill="#00AEFF" d="M340 91H256V355H340V91Z"/><path fill="#00AEFF" d="M432 181H348V355H432V181Z"/><path fill="#00AEFF" d="M524 190H440V355H524V190Z"/><path fill="#00AEFF" d="M616 238H532V355H616V238Z"/></g></g></g></g></g></svg>