<svg xmlns="http://www.w3.org/2000/svg" fill="none" viewBox="0 55 660 325"><defs><style type="text/css">@import url(/_static/survey/css/2024-svg.css);</style></defs><g id="2024-hours-worked"><g class="title"><text font-size="14"><tspan x="40" y="33">Earnings increase reasons</tspan></text><text class="subtitle" font-size="12"><tspan x="40" y="49">Contractors</tspan></text></g><g class="bar-chart-vertical"><g class="y-axis"><g class="gridlines"><path d="M68.5 350.5H620.5"/><path d="M68.5 281.5H620.5"/><path d="M68.5 211.5H620.5"/><path d="M68.5 142.5H620.5"/></g><g class="axis-labels"><text font-size="10"><tspan x="46" y="354">0%</tspan></text><text font-size="10"><tspan x="40" y="285">10%</tspan></text><text font-size="10"><tspan x="40" y="215">20%</tspan></text><text font-size="10"><tspan x="40" y="146">30%</tspan></text></g></g><g class="data-series"><g class="a"><g class="axis-labels"><text font-size="10"><tspan x="94" y="368">Raised rate</tspan></text><text font-size="10"><tspan x="196" y="368">New contract(s)</tspan></text><text font-size="10"><tspan x="318" y="368">More hours</tspan></text><text font-size="10"><tspan x="418" y="368">Received a raise</tspan></text><text font-size="10"><tspan x="551" y="368">Other</tspan></text></g><g class="bars"><path fill="#00AEFF" d="M168.5 96H77.5V350H168.5V96Z"/><path fill="#00AEFF" d="M278.5 107H187.5V350H278.5V107Z"/><path fill="#00AEFF" d="M389.5 251H298.5V350H389.5V251Z"/><path fill="#00AEFF" d="M499.5 295H408.5V350H499.5V295Z"/><path fill="#00AEFF" d="M609.5 306H518.5V350H609.5V306Z"/></g><g class="value-labels-inner"><text font-size="10"><tspan x="114.5" y="116">37%​</tspan></text><text font-size="10"><tspan x="224.5" y="127">35%​</tspan></text><text font-size="10"><tspan x="335.5" y="271">14%​</tspan></text><text font-size="10"><tspan x="447.5" y="315">8%​</tspan></text><text font-size="10"><tspan x="557.5" y="326">6%​</tspan></text></g></g></g></g></g></svg>