<svg xmlns="http://www.w3.org/2000/svg" fill="none" viewBox="0 55 660 303"><defs><style type="text/css">@import url(/_static/survey/css/2024-svg.css);</style></defs><g id="2024-age-group"><g class="title"><text font-size="14"><tspan x="40" y="33">Age group</tspan></text><text class="subtitle" font-size="12"><tspan x="40" y="49">Employees and contractors combined</tspan></text></g><g class="bar-chart-vertical"><g class="y-axis"><g class="gridlines"><path stroke="#F0F0F0" d="M72 319.5H616"/><path stroke="#F0F0F0" d="M72 249.5H616"/><path stroke="#F0F0F0" d="M72 179.5H616"/><path stroke="#F0F0F0" d="M72 108.5H616"/></g><g class="axis-labels"><text font-size="10"><tspan x="49.666" y="322">0%</tspan></text><text font-size="10"><tspan x="44.315" y="252">10%</tspan></text><text font-size="10"><tspan x="44.315" y="182">20%</tspan></text><text font-size="10"><tspan x="44.315" y="112">30%</tspan></text></g></g><g class="data-series"><g class="a"><g class="axis-labels"><text font-size="10"><tspan x="105" y="336">18-25</tspan></text><text font-size="10"><tspan x="196" y="336">26-35</tspan></text><text font-size="10"><tspan x="286" y="336">36-45</tspan></text><text font-size="10"><tspan x="377" y="336">46-55</tspan></text><text font-size="10"><tspan x="468" y="336">56-65</tspan></text><text font-size="10"><tspan x="563" y="336">66+</tspan></text></g><g class="bars"><path fill="#00AEFF" d="M159 293H76V320H159V293Z"/><path fill="#00AEFF" d="M250 90H166V320H250V90Z"/><path fill="#00AEFF" d="M340 100H257V320H340V100Z"/><path fill="#00AEFF" d="M431 180H348V320H431V180Z"/><path fill="#00AEFF" d="M522 251H438V320H522V251Z"/><path fill="#00AEFF" d="M612 308H529V320H612V308Z"/></g></g></g></g></g></svg>