<svg xmlns="http://www.w3.org/2000/svg" fill="none" viewBox="0 55 660 377"><defs><style type="text/css">@import url(/_static/survey/css/2024-svg.css);</style></defs><g id="2024-education-level"><g class="title"><text font-size="14"><tspan x="40" y="33">Education level</tspan></text><text class="subtitle" font-size="12"><tspan x="40" y="49">Employees and contractors combined</tspan></text></g><g class="bar-chart-vertical"><g class="y-axis"><g class="gridlines"><path stroke="#F0F0F0" d="M68 393.5H620"/><path stroke="#F0F0F0" d="M68 299.5H620"/><path stroke="#F0F0F0" d="M68 206.5H620"/></g><g class="axis-labels"><text font-size="10"><tspan x="45" y="396">0%</tspan></text><text font-size="10"><tspan x="40" y="303">20%</tspan></text><text font-size="10"><tspan x="40" y="209">40%</tspan></text></g></g><g class="data-series"><g class="a"><g class="axis-labels"><text font-size="10"><tspan x="111" y="410">High school</tspan></text><text font-size="10"><tspan x="224" y="410">Technical or vocational</tspan></text><text font-size="10"><tspan x="392" y="410">Graduate</tspan></text><text font-size="10"><tspan x="520" y="410">Post-graduate</tspan></text></g><g class="bars"><path fill="#00AEFF" d="M200 381H74V394H200V381Z"/><path fill="#00AEFF" d="M338 384H212V394H338V384Z"/><path fill="#00AEFF" d="M476 152H350V394H476V152Z"/><path fill="#00AEFF" d="M614 231H488V394H614V231Z"/><path fill="#FFA600" d="M476 140H350V150H476V140Z"/><path fill="#FFA600" d="M614 207H488V229H614V207Z"/></g><path stroke="#252521" stroke-dasharray="1 3" d="M442 107C434.489 107 411.532 135.6 409.766 137.8L408 140"/><path stroke="#252521" stroke-dasharray="1 3" d="M512 110C525.738 113.369 552.267 186.716 554.308 192.358L556.349 198"/><g class="value-labels"><text font-size="10"><tspan x="457" y="105">Multiple</tspan><tspan x="446" y="116">qualifications</tspan></text></g></g></g></g></g></svg>