<svg xmlns="http://www.w3.org/2000/svg" xmlns:xlink="http://www.w3.org/1999/xlink" viewBox="0 0 640 423.063"><defs><style>.cls-1{fill:none}.cls-2,.cls-9{fill:#fff}.cls-3{clip-path:url(#clip-path)}.cls-4,.cls-7{fill:#003f5c}.cls-4,.cls-5{fill-rule:evenodd}.cls-5,.cls-8{fill:#ffa600}.cls-6,.cls-9{font-size:18px;font-family:Georgia}</style><clipPath id="clip-path"><path d="M263.8114,33.2425C163.6283,6.4476,60.6526,65.7921,33.8086,165.7921S66.4177,368.58,166.6008,395.3748s203.1588-32.5495,230.0028-132.55S363.9945,60.0375,263.8114,33.2425Zm-78.42,292.1325a114.9986,114.9986,0,1,1,141.0842-81.3062A114.9627,114.9627,0,0,1,185.3915,325.375Z" class="cls-1"/></clipPath></defs><g id="Layer_2" data-name="Layer 2"><g id="Basis_of_Employment" data-name="Basis of Employment"><g id="background"><rect width="640" height="420.267" y="2.796" class="cls-2"/></g><g id="Chart"><g class="cls-3"><path d="M215.6972,213.1406,57.1514,114.07C111.8665,26.5078,227.2052-.12,314.7676,54.5948S428.958,224.6486,374.243,312.211s-170.0538,114.19-257.6162,59.4754c-66.5474-41.5835-98.6695-113.7308-85.0431-191.01Z" class="cls-4"/><path d="M215.6972,213.1406,31.5837,180.6764A181.1928,181.1928,0,0,1,57.1514,114.07Z" class="cls-5"/></g></g><g id="Legend"><text class="cls-6" transform="translate(488.3427 271.4959)">Contractor,<tspan x="0" y="20">freelance,</tspan><tspan x="0" y="40">self-employed</tspan></text><text class="cls-6" transform="translate(488.3427 234.4959)">Employee</text><rect id="Swatch_1" width="24.751" height="24.751" x="450" y="215.224" class="cls-7" data-name="Swatch 1" transform="translate(689.9747 -234.7761) rotate(90)"/><rect id="Swatch_2" width="24.751" height="24.751" x="450" y="251.53" class="cls-8" data-name="Swatch 2" transform="translate(726.2807 -198.4701) rotate(90)"/></g><g id="Inner_Labels" data-name="Inner Labels"><text class="cls-9" transform="translate(223.5146 73.2451) rotate(5.0977)">9</text><text class="cls-9" transform="translate(232.9013 74.0576) rotate(8.89)">4</text><text class="cls-9" transform="matrix(0.9721, 0.2346, -0.2346, 0.9721, 242.0761, 75.3623)">%</text><text class="cls-9" transform="matrix(0.9385, 0.3453, -0.3453, 0.9385, 259.3066, 79.7915)">E</text><text class="cls-9" transform="matrix(0.9033, 0.4289, -0.4289, 0.9033, 269.4726, 83.3857)">m</text><text class="cls-9" transform="matrix(0.8633, 0.5047, -0.5047, 0.8633, 282.9287, 89.8648)">p</text><text class="cls-9" transform="translate(291.3144 94.8252) rotate(33.2028)">l</text><text class="cls-9" transform="translate(295.2168 97.2983) rotate(35.9764)">o</text><text class="cls-9" transform="matrix(0.7723, 0.6352, -0.6352, 0.7723, 302.54, 102.6055)">y</text><text class="cls-9" transform="matrix(0.7349, 0.6782, -0.6782, 0.7349, 308.9131, 107.8267)">e</text><text class="cls-9" transform="translate(314.8584 113.291) rotate(45.9397)">e</text></g><g id="Outside_Labels" data-name="Outside Labels"><text class="cls-6" transform="translate(19.7071 156.3771) rotate(-70.9829) scale(1.025 1)">6</text><text class="cls-6" transform="matrix(0.3956, -0.9456, 0.9225, 0.3859, 22.9747, 146.652)">%</text></g></g></g></svg>