<svg xmlns="http://www.w3.org/2000/svg" xmlns:xlink="http://www.w3.org/1999/xlink" viewBox="0 0 640 404"><defs><style>.cls-1{fill:none}.cls-15,.cls-2{fill:#fff}.cls-3{clip-path:url(#clip-path)}.cls-10,.cls-4{fill:#ffa600}.cls-4,.cls-5,.cls-6,.cls-7,.cls-8{fill-rule:evenodd}.cls-11,.cls-16,.cls-5{fill:#003f5c}.cls-12,.cls-6{fill:#bc5090}.cls-13,.cls-7{fill:#ef5675}.cls-14,.cls-8{fill:#ff764a}.cls-15,.cls-16,.cls-9{font-size:18px;font-family:Georgia}</style><clipPath id="clip-path"><path d="M188.1853,10.3885C82.3612,27.1494,10.1612,126.5241,26.9221,232.3483s116.1357,178.0241,221.96,161.2632,178.0242-116.1356,161.2633-221.96S294.01-6.3724,188.1853,10.3885Zm48.964,309.1464a119,119,0,1,1,98.9192-136.1506A119,119,0,0,1,237.1493,319.5349Z" class="cls-1"/></clipPath></defs><g id="Layer_2" data-name="Layer 2"><g id="Age"><g id="background"><rect width="640" height="400" y=".36" class="cls-2"/></g><g id="Chart"><g class="cls-3"><path d="M218.5368,202,33.4025,175.9806a175.4542,175.4542,0,0,1,14.3435-50.022Z" class="cls-4"/><path d="M218.5368,202,47.746,125.9586c41.9963-94.3252,152.5066-136.7461,246.8317-94.75,45.2761,20.1582,76.6859,52.1211,96.0509,97.7421Z" class="cls-5"/><path d="M218.5368,202l172.0918-73.0486c40.3436,95.0436-4,204.7968-99.0432,245.14a179.6045,179.6045,0,0,1-63.2642,14.6057Z" class="cls-6"/><path d="M218.5368,202l9.7844,186.6975C149.9574,392.8039,82.2625,352.1287,49.0991,281.01Z" class="cls-7"/><path d="M218.5368,202,49.0991,281.01c-15.7089-33.688-20.87-68.22-15.6966-105.029Z" class="cls-8"/></g></g><g id="Legend"><text class="cls-9" transform="translate(488.9557 359.8078)">56-65</text><text class="cls-9" transform="translate(488.7587 326.036)">46-55</text><text class="cls-9" transform="translate(488.7587 292.0361)">36-45</text><text class="cls-9" transform="translate(487.4867 258.2706)">26-35</text><text class="cls-9" transform="translate(487.4867 221.2706)">18-25</text><rect id="Swatch_1" width="24.751" height="24.751" x="450.416" y="201.999" class="cls-10" data-name="Swatch 1" transform="translate(677.1654 -248.4173) rotate(90)"/><rect id="Swatch_2" width="24.751" height="24.751" x="450.416" y="238.305" class="cls-11" data-name="Swatch 2" transform="translate(713.4715 -212.1113) rotate(90)"/><rect id="Swatch_3" width="24.751" height="24.751" x="450.416" y="272.376" class="cls-12" data-name="Swatch 3" transform="translate(747.5429 -178.0398) rotate(90)"/><rect id="Swatch_4" width="24.751" height="24.751" x="450.416" y="306.448" class="cls-13" data-name="Swatch 4" transform="translate(781.6144 -143.9683) rotate(90)"/><rect id="Swatch_5" width="24.751" height="24.751" x="450" y="340.941" class="cls-14" data-name="Swatch 5" transform="translate(815.6914 -109.0594) rotate(90)"/></g><g id="Inner_Labels" data-name="Inner Labels"><text class="cls-15" transform="translate(62.2528 216.2646) rotate(83.0037)">9</text><text class="cls-15" transform="matrix(0.2053, 0.9787, -0.9787, 0.2053, 63.5258, 227.1504)">%</text><text class="cls-15" transform="translate(115.5682 320.4189) rotate(39.1896)">1</text><text class="cls-15" transform="translate(123.891 327.1787) rotate(35.2887)">9</text><text class="cls-15" transform="matrix(0.8621, 0.5068, -0.5068, 0.8621, 132.8158, 333.5693)">%</text><text class="cls-15" transform="translate(295.5853 338.7324) rotate(-31.305)">3</text><text class="cls-15" transform="matrix(0.8169, -0.5768, 0.5768, 0.8169, 304.7562, 333.1289)">0</text><text class="cls-15" transform="translate(313.2953 327.0088) rotate(-38.0875)">.</text><text class="cls-15" transform="translate(317.4584 323.8174) rotate(-40.9539)">5</text><text class="cls-15" transform="matrix(0.6977, -0.7164, 0.7164, 0.6977, 325.7689, 316.6875)">%</text><text class="cls-15" transform="translate(139.4603 78.144) rotate(-30.635)">3</text><text class="cls-15" transform="translate(147.7225 73.2236) rotate(-26.8056)">7</text><text class="cls-15" transform="translate(156.4486 68.6875) rotate(-22.125)">%</text></g><g id="Outside_Labels" data-name="Outside Labels"><text class="cls-16" transform="translate(21.954 170.4517) rotate(-79.4904)">4</text><text class="cls-16" transform="translate(23.809 160.7031) rotate(-77.3821)">.</text><text class="cls-16" transform="matrix(0.2542, -0.9672, 0.9672, 0.2542, 24.767, 156.1787)">5</text><text class="cls-16" transform="translate(27.1694 146.7183) rotate(-71.7803)">%</text></g></g></g></svg>