<svg xmlns="http://www.w3.org/2000/svg" xmlns:xlink="http://www.w3.org/1999/xlink" viewBox="0 0 640 400"><defs><style>.cls-1{fill:none}.cls-11,.cls-12,.cls-2{fill:#fff}.cls-3{clip-path:url(#clip-path)}.cls-13,.cls-4,.cls-8{fill:#003f5c}.cls-4,.cls-5,.cls-6{fill-rule:evenodd}.cls-10,.cls-5{fill:#ffa600}.cls-6,.cls-9{fill:#7a5195}.cls-12,.cls-7{font-size:18px}.cls-11,.cls-12,.cls-7{font-family:Georgia}.cls-11{font-size:20px}.cls-13{stroke:#003f5c;stroke-linecap:round;stroke-miterlimit:10;stroke-width:3px}</style><clipPath id="clip-path"><path d="M9.5741,183.8724C2.1,290.7546,82.6865,383.4586,189.5688,390.9326S389.155,317.82,396.6289,210.9379,323.5165,11.3516,216.6343,3.8777,17.048,76.99,9.5741,183.8724Zm312.2375,21.8337A119,119,0,1,1,211.4025,78.695,119,119,0,0,1,321.8116,205.7061Z" class="cls-1"/></clipPath></defs><g id="Layer_2" data-name="Layer 2"><g id="Gender_Identity" data-name="Gender Identity"><g id="background"><rect width="640" height="400" class="cls-2"/></g><g id="Chart"><g class="cls-3"><path d="M203.1017,197.4019,136.1035,371.9383C39.71,334.9362-8.4367,226.7975,28.5654,130.4037S173.7062-14.1365,270.1,22.8656c42.4132,16.2809,72.1931,41.7153,94.9084,81.06Z" class="cls-4"/><path d="M203.1017,197.4019l161.9067-93.4768A180.6953,180.6953,0,0,1,379.87,136.5358Z" class="cls-5"/><path d="M203.1017,197.4019,379.87,136.5358c33.6154,97.6264-18.2757,204.0189-115.9021,237.6344-42.9556,14.7908-85.4511,14.049-127.8644-2.2319Z" class="cls-6"/></g></g><g id="Legend"><text class="cls-7" transform="translate(488.3428 287.1816)">Non-Binary <tspan x="0" y="20">&amp; Other</tspan></text><text class="cls-7" transform="translate(487.0708 253.4162)">Men</text><text class="cls-7" transform="translate(487.0708 216.4162)">Women</text><rect id="Swatch_1" width="24.751" height="24.751" x="450" y="197.144" class="cls-8" data-name="Swatch 1" transform="translate(671.895 -252.8558) rotate(90)"/><rect id="Swatch_2" width="24.751" height="24.751" x="450" y="233.45" class="cls-9" data-name="Swatch 2" transform="translate(708.201 -216.5498) rotate(90)"/><rect id="Swatch_3" width="24.751" height="24.751" x="450" y="267.522" class="cls-10" data-name="Swatch 3" transform="translate(742.2725 -182.4783) rotate(90)"/></g><g id="Inner_Labels" data-name="Inner Labels"><text class="cls-11" transform="translate(243.6044 349.0682) rotate(-16.9889)">3</text><text class="cls-11" transform="matrix(0.931, -0.365, 0.365, 0.931, 255.0907, 345.5282)">6</text><text class="cls-11" transform="translate(266.5507 341.1112) rotate(-26.8491)">%</text><text class="cls-11" transform="matrix(0.8137, -0.5812, 0.5812, 0.8137, 286.6151, 330.5067)">M</text><text class="cls-11" transform="translate(302.3846 318.9198) rotate(-41.039)">e</text><text class="cls-11" transform="translate(310.2343 312.1043) rotate(-45.2026)">n</text><text class="cls-12" transform="translate(113.9066 80.6415) rotate(-35.4501)">6</text><text class="cls-12" transform="translate(121.7328 75.0477) rotate(-31.7046)">1</text><text class="cls-12" transform="matrix(0.8902, -0.4555, 0.4555, 0.8902, 129.7567, 69.953)">%</text><text class="cls-12" transform="translate(145.8412 61.8607) rotate(-19.481)">W</text><text class="cls-12" transform="translate(161.7836 56.3739) rotate(-14.3952)">o</text><text class="cls-12" transform="translate(170.5033 53.9764) rotate(-9.6439)">m</text><text class="cls-12" transform="translate(185.5458 51.5399) rotate(-5.098)">e</text><text class="cls-12" transform="translate(193.7284 50.765) rotate(-1.553)">n</text><text class="cls-7" transform="translate(420.9722 87.5651)">3% Non-Binary<tspan x="29.878" y="20">&amp; Other</tspan></text><path d="M379.5723,118.6845l36.48-16.7273a2.3683,2.3683,0,0,0,2.8467.73,2.42,2.42,0,0,0-2.0171-4.3992,2.3683,2.3683,0,0,0-1.3042,2.6337" class="cls-13"/></g></g></g></svg>