<svg xmlns="http://www.w3.org/2000/svg" xmlns:xlink="http://www.w3.org/1999/xlink" viewBox="0 0 640 420"><defs><style>.cls-1{fill:none}.cls-18,.cls-2{fill:#fff}.cls-3{clip-path:url(#clip-path)}.cls-11,.cls-4{fill:#003f5c}.cls-4,.cls-5,.cls-6,.cls-7,.cls-8,.cls-9{fill-rule:evenodd}.cls-12,.cls-5{fill:#7a5195}.cls-13,.cls-6{fill:#374c80}.cls-14,.cls-7{fill:#ff764a}.cls-15,.cls-8{fill:#ef5675}.cls-16,.cls-9{fill:#ffa600}.cls-10,.cls-18{font-size:18px;font-family:Georgia}</style><clipPath id="clip-path"><path d="M38.8094,317.2829c62.9773,86.6807,184.299,105.8962,270.98,42.9189s105.8961-184.2989,42.9189-270.98S168.4091-16.674,81.7284,46.3033-24.1678,230.6022,38.8094,317.2829ZM292.0318,133.3061A119,119,0,1,1,125.8123,106.98,119,119,0,0,1,292.0318,133.3061Z" class="cls-1"/></clipPath></defs><g id="Layer_2" data-name="Layer 2"><g id="Geographical_Location" data-name="Geographical Location"><g id="background"><rect width="640" height="420" class="cls-2"/></g><g id="Chart"><g class="cls-3"><path d="M195.7569,203.25,256.623,380.0182C158.9966,413.6337,52.6041,361.7425,18.9886,264.1161S37.2643,60.0972,134.8907,26.4817c44.42-15.295,84.0052-14.604,127.8644,2.2319Z" class="cls-4"/><path d="M195.7569,203.25,262.7551,28.7136c96.3937,37.0021,144.54,145.1408,107.5381,241.5346a199.2163,199.2163,0,0,1-12.63,26.4786Z" class="cls-5"/><path d="M195.7569,203.25l161.9066,93.4768C345.4282,317.919,332.4279,333.14,313.4107,348.54Z" class="cls-6"/><path d="M195.7569,203.25,313.4107,348.54a183.741,183.741,0,0,1-29.8844,19.78Z" class="cls-7"/><path d="M195.7569,203.25l87.7694,165.07a174.5728,174.5728,0,0,1-20.7712,9.466Z" class="cls-8"/><path d="M195.7569,203.25l66.9982,174.5363c-1.8315.7031-4.2772,1.5932-6.1321,2.2319Z" class="cls-9"/></g></g><g id="Legend"><text class="cls-10" transform="translate(489.1833 397.6705)">South America</text><text class="cls-10" transform="translate(489.307 362.4836)">Asia</text><text class="cls-10" transform="translate(489.11 328.7118)">Middle East</text><text class="cls-10" transform="translate(489.11 294.7118)">Oceana</text><text class="cls-10" transform="translate(487.838 260.9464)">Europe</text><text class="cls-10" transform="translate(487.838 223.9464)">North America</text><rect id="Swatch_1" width="24.751" height="24.751" x="450.767" y="204.674" class="cls-11" data-name="Swatch 1" transform="translate(680.1925 -246.0928) rotate(90)"/><rect id="Swatch_2" width="24.751" height="24.751" x="450.767" y="240.981" class="cls-12" data-name="Swatch 2" transform="translate(716.4985 -209.7868) rotate(90)"/><rect id="Swatch_3" width="24.751" height="24.751" x="450.767" y="275.052" class="cls-13" data-name="Swatch 3" transform="translate(750.57 -175.7153) rotate(90)"/><rect id="Swatch_4" width="24.751" height="24.751" x="450.767" y="309.123" class="cls-14" data-name="Swatch 4" transform="translate(784.6415 -141.6438) rotate(90)"/><rect id="Swatch_5" width="24.751" height="24.751" x="450.351" y="343.616" class="cls-15" data-name="Swatch 5" transform="translate(818.7184 -106.7349) rotate(90)"/><rect id="Swatch_6" width="24.751" height="24.751" x="450.228" y="378.109" class="cls-16" data-name="Swatch 6" transform="translate(853.0876 -72.1183) rotate(90)"/></g><g id="Inner_Labels" data-name="Inner Labels"><text class="cls-18" transform="translate(53.2075 167.5128) rotate(-73.9783)">6</text><text class="cls-18" transform="matrix(0.3388, -0.9409, 0.9409, 0.3388, 55.8442, 158.2701)">2</text><text class="cls-18" transform="translate(58.9501 149.2945) rotate(-65.5729)">%</text><text class="cls-18" transform="matrix(0.5199, -0.8542, 0.8542, 0.5199, 66.643, 132.9176)">N</text><text class="cls-18" transform="translate(73.5483 121.6778) rotate(-54.3351)">o</text><text class="cls-18" transform="matrix(0.6268, -0.7792, 0.7792, 0.6268, 78.9716, 114.1554)">r</text><text class="cls-18" transform="translate(83.3803 108.6832) rotate(-48.6833)">t</text><text class="cls-18" transform="translate(87.1601 104.2804) rotate(-45.6084)">h</text><text class="cls-18" transform="matrix(0.7676, -0.641, 0.641, 0.7676, 97.0658, 94.358)">A</text><text class="cls-18" transform="translate(105.7109 86.9864) rotate(-34.7197)">m</text><text class="cls-18" transform="translate(118.287 78.4127) rotate(-30.181)">e</text><text class="cls-18" transform="translate(125.4614 74.2486) rotate(-27.1978)">r</text><text class="cls-18" transform="translate(131.7221 71.0475) rotate(-24.8537)">i</text><text class="cls-18" transform="translate(136.1913 68.9352) rotate(-22.3448)">c</text><text class="cls-18" transform="translate(143.3134 65.9791) rotate(-19.1384)">a</text><text class="cls-18" transform="translate(277.5947 81.2081) rotate(35.8686)">2</text><text class="cls-18" transform="translate(285.3964 86.8214) rotate(39.6706)">7</text><text class="cls-18" transform="translate(293.1269 93.3102) rotate(42.4912)">.</text><text class="cls-18" transform="matrix(0.7041, 0.7101, -0.7101, 0.7041, 296.4687, 96.2721)">5</text><text class="cls-18" transform="translate(303.2441 102.941) rotate(49.8161)">%</text><text class="cls-18" transform="translate(314.7538 116.9991) rotate(56.302)">E</text><text class="cls-18" transform="translate(320.9452 126.2911) rotate(60.3822)">u</text><text class="cls-18" transform="translate(325.8134 134.9147) rotate(63.6736)">r</text><text class="cls-18" transform="matrix(0.3931, 0.9195, -0.9195, 0.3931, 328.9345, 141.1217)">o</text><text class="cls-18" transform="translate(332.5663 149.5533) rotate(70.5744)">p</text><text class="cls-18" transform="translate(335.8134 158.7853) rotate(74.1113)">e</text></g></g></g></svg>