<svg xmlns="http://www.w3.org/2000/svg" xmlns:xlink="http://www.w3.org/1999/xlink" viewBox="0 0 640 426.465"><defs><style>.cls-1{fill:none}.cls-15,.cls-2{fill:#fff}.cls-3{clip-path:url(#clip-path)}.cls-10,.cls-4{fill:#ffa600}.cls-4,.cls-5,.cls-6,.cls-7,.cls-8{fill-rule:evenodd}.cls-11,.cls-5{fill:#bc5090}.cls-12,.cls-6{fill:#003f5c}.cls-13,.cls-7{fill:#7a5195}.cls-14,.cls-8{fill:#ff764a}.cls-15,.cls-9{font-size:18px;font-family:Georgia}</style><clipPath id="clip-path"><path d="M271.5407,25.8415C168.0483-1.8893,61.6709,59.5277,33.94,163.02S67.6265,372.89,171.1189,400.6207s209.87-33.6863,237.6005-137.1787S375.0332,53.5722,271.5407,25.8415ZM190.53,328.1762A119,119,0,1,1,336.275,244.0305,119,119,0,0,1,190.53,328.1762Z" class="cls-1"/></clipPath></defs><g id="Layer_2" data-name="Layer 2"><g id="Hours_Worked" data-name="Hours Worked"><g id="background"><rect width="640" height="410" y="8.231" class="cls-2"/></g><g id="Chart"><g class="cls-3"><path d="M221.3329,213.2319l-158.5457-99.07c2.1886-3.5025,3.0333-4.7787,5.4022-8.1619Z" class="cls-4"/><path d="M221.3329,213.2319,68.1894,106a180.7005,180.7005,0,0,1,23.2745-27.251Z" class="cls-5"/><path d="M221.3329,213.2319,91.4639,78.7486C165.737,7.024,284.0915,9.09,355.8162,83.3629s69.6588,192.6276-4.6143,264.3523S158.5743,417.3739,86.85,343.1009h0Z" class="cls-6"/><path d="M221.3329,213.2319,86.85,343.1009c-57.38-59.4185-69.366-144.7058-30.587-217.6385Z" class="cls-7"/><path d="M221.3329,213.2319l-165.07-87.7695c1.9389-3.6466,4.3359-7.7984,6.5246-11.3009Z" class="cls-8"/></g></g><g id="Legend"><text class="cls-9" transform="translate(488.9558 371.9386)">51-60 hrs</text><text class="cls-9" transform="translate(488.9558 336.9386)">41-50 hrs</text><text class="cls-9" transform="translate(488.9558 302.9386)">31-40 hrs</text><text class="cls-9" transform="translate(487.6838 269.1732)">21-30 hrs</text><text class="cls-9" transform="translate(487.6838 232.1732)">0-20 hrs</text><rect id="Swatch_1" width="24.751" height="24.751" x="450.613" y="212.901" class="cls-10" data-name="Swatch 1" transform="translate(688.2651 -237.7119) rotate(90)"/><rect id="Swatch_2" width="24.751" height="24.751" x="450.613" y="249.207" class="cls-11" data-name="Swatch 2" transform="translate(724.5712 -201.4058) rotate(90)"/><rect id="Swatch_3" width="24.751" height="24.751" x="450.613" y="283.279" class="cls-12" data-name="Swatch 3" transform="translate(758.6427 -167.3344) rotate(90)"/><rect id="Swatch_4" width="24.751" height="24.751" x="450.613" y="317.35" class="cls-13" data-name="Swatch 4" transform="translate(792.7141 -133.2629) rotate(90)"/><rect id="Swatch_5" width="24.751" height="24.751" x="450" y="353.071" class="cls-14" data-name="Swatch 5" transform="translate(827.8222 -96.9286) rotate(90)"/></g><g id="Inner_Labels" data-name="Inner Labels"><text class="cls-15" transform="translate(161.7356 78.8839) rotate(-21.8944)">7</text><text class="cls-15" transform="translate(170.9651 75.1622) rotate(-18.0535)">5</text><text class="cls-15" transform="matrix(0.9727, -0.232, 0.232, 0.9727, 179.9822, 72.0987)">%</text><text class="cls-15" transform="translate(197.7922 68.2159) rotate(-7.6282)">s</text><text class="cls-15" transform="translate(205.1575 67.2394) rotate(-5.0413)">t</text><text class="cls-15" transform="matrix(0.9992, -0.0392, 0.0392, 0.9992, 210.9426, 66.6842)">a</text><text class="cls-15" transform="matrix(0.9997, 0.0233, -0.0233, 0.9997, 219.5115, 66.3087)">n</text><text class="cls-15" transform="translate(229.6091 66.5314) rotate(5.1772)">d</text><text class="cls-15" transform="translate(239.4148 67.4239) rotate(8.766)">a</text><text class="cls-15" transform="translate(247.9626 68.753) rotate(11.8226)">r</text><text class="cls-15" transform="matrix(0.9654, 0.2608, -0.2608, 0.9654, 254.7419, 70.1149)">d</text><text class="cls-15" transform="matrix(0.9411, 0.338, -0.338, 0.9411, 268.2185, 74.005)">f</text><text class="cls-15" transform="matrix(0.922, 0.3871, -0.3871, 0.922, 273.3513, 75.774)">u</text><text class="cls-15" transform="translate(282.5154 79.6822) rotate(25.6616)">l</text><text class="cls-15" transform="translate(286.9041 81.7853) rotate(27.5673)">l</text><text class="cls-15" transform="translate(294.8123 86.0338) rotate(31.2834)">t</text><text class="cls-15" transform="matrix(0.8348, 0.5506, -0.5506, 0.8348, 299.8689, 89.11)">i</text><text class="cls-15" transform="translate(303.9324 91.5543) rotate(37.3056)">m</text><text class="cls-15" transform="matrix(0.7451, 0.6669, -0.6669, 0.7451, 315.9802, 100.879)">e</text><text class="cls-15" transform="matrix(0.676, 0.7369, -0.7369, 0.676, 325.074, 109.1026)">w</text><text class="cls-15" transform="translate(333.6238 118.4884) rotate(51.6983)">o</text><text class="cls-15" transform="translate(339.3406 125.7574) rotate(54.8396)">r</text><text class="cls-15" transform="translate(343.3699 131.4044) rotate(57.9826)">k</text><text class="cls-15" transform="translate(348.2517 139.296) rotate(60.7287)">l</text><text class="cls-15" transform="translate(350.6306 143.4088) rotate(63.4775)">o</text><text class="cls-15" transform="translate(354.7595 151.671) rotate(66.9747)">a</text><text class="cls-15" transform="translate(358.1404 159.5333) rotate(70.5855)">d</text></g><g id="Outside_Labels" data-name="Outside Labels"><text class="cls-9" transform="translate(49.3445 311.5387) rotate(-118.3497)">2</text><text class="cls-9" transform="translate(44.7191 303.0104) rotate(-115.3885)">0</text><text class="cls-9" transform="translate(40.1038 293.4537) rotate(-111.7681)">%</text><text class="cls-9" transform="translate(30.9876 268.193) rotate(-104.5962)">4</text><text class="cls-9" transform="matrix(-0.2093, -0.9779, 0.9779, -0.2093, 28.5247, 258.6539)">1</text><text class="cls-9" transform="translate(26.202 247.1949) rotate(-98.8282)">-</text><text class="cls-9" transform="translate(24.6434 236.652) rotate(-95.3466)">5</text><text class="cls-9" transform="translate(23.762 227.5358) rotate(-92.4996)">0</text><text class="cls-9" transform="matrix(0.0287, -0.9996, 0.9996, 0.0287, 23.262, 212.6783)">h</text><text class="cls-9" transform="translate(23.5818 202.4957) rotate(-85.8867)">r</text><text class="cls-9" transform="translate(24.0828 195.4064) rotate(-83.783)">s</text></g></g></g></svg>