<svg xmlns="http://www.w3.org/2000/svg" xmlns:xlink="http://www.w3.org/1999/xlink" viewBox="0 0 640 450"><defs><style>.cls-1,.cls-15{fill:none}.cls-16,.cls-2{fill:#fff}.cls-3{clip-path:url(#clip-path)}.cls-14,.cls-18,.cls-4,.cls-9{fill:#003f5c}.cls-4,.cls-5,.cls-6,.cls-7{fill-rule:evenodd}.cls-10,.cls-5{fill:#7a5195}.cls-11,.cls-6{fill:#ffa600}.cls-12,.cls-7{fill:#ff764a}.cls-16,.cls-18,.cls-8{font-size:18px}.cls-13,.cls-16,.cls-18,.cls-8{font-family:Georgia}.cls-13{font-size:16px}.cls-14,.cls-15{stroke:#003f5c;stroke-miterlimit:10}.cls-14{stroke-width:2px}.cls-15{stroke-linecap:round;stroke-width:4px}</style><clipPath id="clip-path"><path d="M273.905,34.9538C170.4126,7.2231,64.0352,68.64,36.3045,172.1325s33.6863,209.87,137.1787,237.6005,209.87-33.6863,237.6005-137.1787S377.3974,62.6845,273.905,34.9538Zm-81.01,302.3348a119,119,0,1,1,145.7447-84.1457A119,119,0,0,1,192.8946,337.2886Z" class="cls-1"/></clipPath></defs><g id="Layer_2" data-name="Layer 2"><g id="Type_of_Role" data-name="Type of Role"><g id="background"><rect width="640" height="450" class="cls-2"/></g><g id="Chart"><g class="cls-3"><path d="M223.6972,222.3442l-158.5458-99.07c54.7151-87.5624,170.0538-114.19,257.6162-59.4753s114.19,170.0537,59.4754,257.6161h0Z" class="cls-4"/><path d="M223.6972,222.3442l158.5458,99.07c-37.2063,59.5425-98.2153,91.3017-168.33,87.6272Z" class="cls-5"/><path d="M223.6972,222.3442l-9.7844,186.6976a172.6533,172.6533,0,0,1-44.8756-7.9128Z" class="cls-6"/><path d="M223.6972,222.3442l-54.66,178.7848C70.2971,370.9411,14.7246,266.4243,44.9124,167.6842a184.9127,184.9127,0,0,1,20.239-44.41Z" class="cls-7"/></g></g><g id="Legend"><text class="cls-8" transform="translate(488.3427 343.4451)">Work solo</text><text class="cls-8" transform="translate(488.3427 309.4451)">Other</text><text class="cls-8" transform="translate(487.0707 275.6797)">Lead a team</text><text class="cls-8" transform="translate(487.0707 238.6797)">Work in a team</text><rect id="Swatch_1" width="24.751" height="24.751" x="450" y="219.408" class="cls-9" data-name="Swatch 1" transform="translate(694.1585 -230.5923) rotate(90)"/><rect id="Swatch_2" width="24.751" height="24.751" x="450" y="255.714" class="cls-10" data-name="Swatch 2" transform="translate(730.4645 -194.2863) rotate(90)"/><rect id="Swatch_3" width="24.751" height="24.751" x="450" y="289.785" class="cls-11" data-name="Swatch 3" transform="translate(764.536 -160.2148) rotate(90)"/><rect id="Swatch_4" width="24.751" height="24.751" x="450" y="323.857" class="cls-12" data-name="Swatch 4" transform="translate(798.6075 -126.1433) rotate(90)"/></g><g id="Call_Outs" data-name="Call Outs"><text class="cls-13" transform="translate(439.2456 28.2953)">Effectively, 71% of <tspan x="13.512" y="18">all respondents</tspan><tspan x="17.801" y="36">work in teams</tspan></text><path d="M430.3243,40.7908a2.42,2.42,0,0,0-2.9788-3.8143,2.3854,2.3854,0,0,0-.6775,2.877L375.5332,79.788l.7009.8975,51.1348-39.9346A2.3855,2.3855,0,0,0,430.3243,40.7908Z" class="cls-14"/><path id="Path_1" d="M181.9741,425.1492a209.0314,209.0314,0,0,0,83.44,0,205.8795,205.8795,0,0,0,74.0221-31.1486,207.6153,207.6153,0,0,0,75.0014-91.079A205.4391,205.4391,0,0,0,426.5,264.0634a209.0314,209.0314,0,0,0,0-83.44,205.8795,205.8795,0,0,0-31.1486-74.0221A207.6153,207.6153,0,0,0,304.2723,31.6a205.4391,205.4391,0,0,0-38.8582-12.0623,209.0314,209.0314,0,0,0-83.44,0A205.8795,205.8795,0,0,0,107.952,50.6862a208.0317,208.0317,0,0,0-30.6371,25.278" class="cls-15" data-name="Path 1"/></g><g id="Inner_Labels" data-name="Inner Labels"><text class="cls-16" transform="translate(228.3611 379.195) rotate(-3.5024)">1</text><text class="cls-16" transform="translate(239.073 378.526) rotate(-7.4697)">7</text><text class="cls-16" transform="translate(250.3201 377.1061) rotate(-12.3933)">%</text><text class="cls-16" transform="translate(269.7712 372.402) rotate(-19.0498)">L</text><text class="cls-16" transform="translate(280.5984 368.6032) rotate(-22.8717)">e</text><text class="cls-16" transform="translate(289.0701 365.0202) rotate(-26.3156)">a</text><text class="cls-16" transform="translate(297.7292 360.7389) rotate(-30.0832)">d</text><text class="cls-16" transform="matrix(0.8146, -0.58, 0.58, 0.8146, 310.8669, 352.8219)">a</text><text class="cls-16" transform="translate(322.0525 344.5534) rotate(-39.9915)">t</text><text class="cls-16" transform="matrix(0.7333, -0.6799, 0.6799, 0.7333, 327.1082, 340.3414)">e</text><text class="cls-16" transform="translate(333.8445 334.0836) rotate(-46.2381)">a</text><text class="cls-16" transform="matrix(0.6284, -0.7779, 0.7779, 0.6284, 340.7781, 327.0006)">m</text><text class="cls-16" transform="translate(164.1135 87.9972) rotate(-21.9601)">5</text><text class="cls-16" transform="matrix(0.95, -0.3121, 0.3121, 0.95, 173.012, 84.3903)">0</text><text class="cls-16" transform="matrix(0.9722, -0.2342, 0.2342, 0.9722, 182.0193, 81.3082)">%</text><text class="cls-16" transform="translate(199.5374 77.216) rotate(-5.9567)">W</text><text class="cls-16" transform="translate(216.3518 75.6061) rotate(-0.9525)">o</text><text class="cls-16" transform="translate(225.6003 75.4713) rotate(2.1426)">r</text><text class="cls-16" transform="matrix(0.9958, 0.0918, -0.0918, 0.9958, 232.5515, 75.6886)">k</text><text class="cls-16" transform="translate(245.8484 77.1398) rotate(9.6331)">i</text><text class="cls-16" transform="translate(250.6443 77.8722) rotate(12.5847)">n</text><text class="cls-16" transform="translate(264.4958 81.173) rotate(17.8759)">a</text><text class="cls-16" transform="translate(276.6082 85.2907) rotate(22.3447)">t</text><text class="cls-16" transform="translate(282.0046 87.466) rotate(25.1158)">e</text><text class="cls-16" transform="matrix(0.8794, 0.476, -0.476, 0.8794, 289.4988, 90.9596)">a</text><text class="cls-16" transform="matrix(0.8384, 0.5451, -0.5451, 0.8384, 296.9783, 94.8229)">m</text></g><g id="Outside_Labels" data-name="Outside Labels"><text class="cls-18" transform="translate(51.535 318.3112) rotate(-117.7246)">2</text><text class="cls-18" transform="translate(47.0403 309.7848) rotate(-114.8921)">9</text><text class="cls-18" transform="translate(42.8904 301.0426) rotate(-111.3994)">%</text><text class="cls-18" transform="translate(36.3392 284.0377) rotate(-105.6434)">W</text><text class="cls-18" transform="translate(31.8607 267.6256) rotate(-101.8115)">o</text><text class="cls-18" transform="translate(29.9622 258.4664) rotate(-99.4192)">r</text><text class="cls-18" transform="matrix(-0.1227, -0.9924, 0.9924, -0.1227, 28.7835, 251.5504)">k</text><text class="cls-18" transform="matrix(-0.0597, -0.9982, 0.9982, -0.0597, 27.2825, 238.1754)">s</text><text class="cls-18" transform="translate(26.8123 230.7741) rotate(-91.0206)">o</text><text class="cls-18" transform="matrix(0.0177, -0.9998, 0.9998, 0.0177, 26.68, 221.3576)">l</text><text class="cls-18" transform="translate(26.72 216.4962) rotate(-86.9393)">o</text></g></g></g></svg>