<svg xmlns="http://www.w3.org/2000/svg" xmlns:xlink="http://www.w3.org/1999/xlink" viewBox="0 0 640 420.248"><defs><style>.cls-1{fill:none}.cls-15,.cls-2{fill:#fff}.cls-3{clip-path:url(#clip-path)}.cls-10,.cls-4{fill:#ffa600}.cls-4,.cls-5,.cls-6,.cls-7,.cls-8{fill-rule:evenodd}.cls-11,.cls-5{fill:#ef5675}.cls-12,.cls-6{fill:#003f5c}.cls-13,.cls-7{fill:#7a5195}.cls-14,.cls-8{fill:#374c80}.cls-15,.cls-9{font-size:18px;font-family:Georgia}</style><clipPath id="clip-path"><path d="M272.4384,22.7353C168.946-4.9954,62.5686,56.4216,34.8379,159.914s33.6863,209.87,137.1787,237.6005,209.87-33.6863,237.6-137.1787S375.9309,50.466,272.4384,22.7353ZM191.4281,325.07a119,119,0,1,1,145.7446-84.1457A119,119,0,0,1,191.4281,325.07Z" class="cls-1"/></clipPath></defs><g id="Layer_2" data-name="Layer 2"><g id="Length_of_Time_in_Role" data-name="Length of Time in Role"><g id="background"><rect width="640" height="410" y="1.063" class="cls-2"/></g><g id="Chart"><g class="cls-3"><path d="M222.2306,210.1257l-158.5457-99.07c19.6974-31.5224,43.1819-52.668,76.5906-68.9625Z" class="cls-4"/><path d="M222.2306,210.1257,140.2755,42.0928c92.802-45.2626,204.7255-6.7242,249.988,86.0778a180.6992,180.6992,0,0,1,12.5506,33.5679Z" class="cls-5"/><path d="M222.2306,210.1257l180.5835-48.3872c26.7235,99.7335-32.4628,202.2472-132.1963,228.9707-39.8934,10.6894-76.8279,8.7537-115.3854-6.0471Z" class="cls-6"/><path d="M222.2306,210.1257,155.2324,384.6621C81.9731,356.5405,36.6749,291.8479,35.3053,213.3885Z" class="cls-7"/><path d="M222.2306,210.1257,35.3053,213.3885c-.6487-37.1649,8.6821-70.8107,28.38-102.3332Z" class="cls-8"/></g></g><g id="Legend"><text class="cls-9" transform="translate(488.5699 367.0593)">10+ yrs</text><text class="cls-9" transform="translate(488.5702 334.929)">5 - 10 yrs</text><text class="cls-9" transform="translate(488.5702 300.929)">2 - 5 yrs</text><text class="cls-9" transform="translate(487.2982 267.1636)">1 - 2 yrs</text><text class="cls-9" transform="translate(487.2982 230.1636)">&lt; 1 yr</text><rect id="Swatch_1" width="24.751" height="24.751" x="450.228" y="210.892" class="cls-10" data-name="Swatch 1" transform="translate(685.8699 -239.3359) rotate(90)"/><rect id="Swatch_2" width="24.751" height="24.751" x="450.228" y="247.198" class="cls-11" data-name="Swatch 2" transform="translate(722.1759 -203.0299) rotate(90)"/><rect id="Swatch_3" width="24.751" height="24.751" x="450.228" y="281.269" class="cls-12" data-name="Swatch 3" transform="translate(756.2474 -168.9584) rotate(90)"/><rect id="Swatch_4" width="24.751" height="24.751" x="450.228" y="315.341" class="cls-13" data-name="Swatch 4" transform="translate(790.3189 -134.8869) rotate(90)"/><rect id="Swatch_5" width="24.751" height="24.751" x="450.228" y="349.412" class="cls-14" data-name="Swatch 5" transform="translate(824.3904 -100.8154) rotate(90)"/></g><g id="Inner_Labels" data-name="Inner Labels"><text class="cls-15" transform="translate(65.8755 226.0224) rotate(82.4057)">1</text><text class="cls-15" transform="matrix(0.2016, 0.9795, -0.9795, 0.2016, 67.3628, 236.9452)">9</text><text class="cls-15" transform="translate(69.5825 247.9813) rotate(73.3891)">%</text><text class="cls-15" transform="matrix(0.3959, 0.9183, -0.9183, 0.3959, 75.9038, 267.5097)">5</text><text class="cls-15" transform="translate(82.3652 281.6923) rotate(61.5853)">-</text><text class="cls-15" transform="translate(88.3174 292.3417) rotate(56.5062)">1</text><text class="cls-15" transform="translate(94.4111 301.496) rotate(52.502)">0</text><text class="cls-15" transform="translate(104.2007 313.7675) rotate(47.0281)">y</text><text class="cls-15" transform="translate(110.7646 320.7782) rotate(43.5699)">e</text><text class="cls-15" transform="matrix(0.7653, 0.6437, -0.6437, 0.7653, 117.6333, 327.287)">a</text><text class="cls-15" transform="matrix(0.8006, 0.5992, -0.5992, 0.8006, 125.1587, 333.5585)">r</text><text class="cls-15" transform="translate(131.5893 338.3563) rotate(33.816)">s</text><text class="cls-15" transform="matrix(0.9912, -0.1327, 0.1327, 0.9912, 237.9883, 366.2401)">3</text><text class="cls-15" transform="translate(248.6396 364.7929) rotate(-11.5646)">5</text><text class="cls-15" transform="matrix(0.9591, -0.2829, 0.2829, 0.9591, 259.3877, 362.6581)">%</text><text class="cls-15" transform="matrix(0.9209, -0.3899, 0.3899, 0.9209, 278.4385, 356.5897)">2</text><text class="cls-15" transform="translate(292.165 350.4706) rotate(-27.8392)">-</text><text class="cls-15" transform="matrix(0.8413, -0.5405, 0.5405, 0.8413, 302.3984, 344.911)">5</text><text class="cls-15" transform="translate(314.9951 336.5097) rotate(-38.0022)">y</text><text class="cls-15" transform="matrix(0.7505, -0.6609, 0.6609, 0.7505, 322.3506, 330.7411)">e</text><text class="cls-15" transform="matrix(0.7099, -0.7043, 0.7043, 0.7099, 329.2451, 324.6571)">a</text><text class="cls-15" transform="translate(335.9795 317.9257) rotate(-47.9253)">r</text><text class="cls-15" transform="translate(341.1631 312.1776) rotate(-50.8104)">s</text><text class="cls-15" transform="translate(193.2392 66.0565) rotate(-9.3292)">2</text><text class="cls-15" transform="translate(202.7143 64.4823) rotate(-5.5842)">8</text><text class="cls-15" transform="matrix(0.9998, -0.018, 0.018, 0.9998, 212.1733, 63.4423)">%</text><text class="cls-15" transform="matrix(0.9961, 0.0887, -0.0887, 0.9961, 230.375, 63.4213)">1</text><text class="cls-15" transform="matrix(0.9854, 0.1704, -0.1704, 0.9854, 244.1182, 64.8666)">-</text><text class="cls-15" transform="matrix(0.9679, 0.2514, -0.2514, 0.9679, 254.3545, 66.7196)">2</text><text class="cls-15" transform="matrix(0.9413, 0.3375, -0.3375, 0.9413, 267.6221, 70.3646)">y</text><text class="cls-15" transform="matrix(0.9206, 0.3906, -0.3906, 0.9206, 275.5312, 73.1893)">e</text><text class="cls-15" transform="translate(283.1201 76.3886) rotate(26.2936)">a</text><text class="cls-15" transform="translate(290.8721 80.2318) rotate(29.3474)">r</text><text class="cls-15" transform="translate(296.9785 83.6493) rotate(32.1577)">s</text></g><g id="Outside_Labels" data-name="Outside Labels"><text class="cls-9" transform="matrix(0.6059, -0.7955, 0.7955, 0.6059, 63.5771, 96.7476)">&lt;</text><text class="cls-9" transform="translate(70.4463 87.7935) rotate(-49.9655)">1</text><text class="cls-9" transform="translate(78.0654 78.8906) rotate(-46.3769)">y</text><text class="cls-9" transform="translate(83.9932 72.667) rotate(-43.8903)">e</text><text class="cls-9" transform="matrix(0.7505, -0.6609, 0.6609, 0.7505, 90.0674, 66.8081)">a</text><text class="cls-9" transform="matrix(0.7767, -0.6299, 0.6299, 0.7767, 96.6943, 60.9883)">r</text><text class="cls-9" transform="translate(27.5166 200.6885) rotate(-86.1465)">1</text><text class="cls-9" transform="translate(27.9746 193.23) rotate(-83.4786)">0</text><text class="cls-9" transform="translate(29.1719 182.6016) rotate(-80.2551)">+</text><text class="cls-9" transform="translate(31.9844 167.3589) rotate(-76.0735)">y</text><text class="cls-9" transform="translate(34.0459 159.0303) rotate(-73.5557)">e</text><text class="cls-9" transform="translate(36.4307 150.9136) rotate(-70.9946)">a</text><text class="cls-9" transform="translate(39.3144 142.5796) rotate(-68.6335)">r</text><text class="cls-9" transform="matrix(0.3994, -0.9168, 0.9168, 0.3994, 41.9101, 135.9209)">s</text></g></g></g></svg>