<svg xmlns="http://www.w3.org/2000/svg" xmlns:xlink="http://www.w3.org/1999/xlink" viewBox="0 0 640 410"><defs><style>.cls-1{fill:none}.cls-13,.cls-2{fill:#fff}.cls-3{clip-path:url(#clip-path)}.cls-4,.cls-9{fill:#ffa600}.cls-4,.cls-5,.cls-6,.cls-7{fill-rule:evenodd}.cls-10,.cls-5{fill:#ff764a}.cls-11,.cls-6{fill:#7a5195}.cls-12,.cls-7{fill:#003f5c}.cls-13,.cls-8{font-size:18px;font-family:Georgia}</style><clipPath id="clip-path"><path d="M395.0837,250.5543c27.7307-103.4924-33.6863-209.87-137.1787-237.6S48.0352,46.64,20.3045,150.1325s33.6863,209.87,137.1787,237.6005S367.353,354.0467,395.0837,250.5543Zm-302.3348-81.01a119,119,0,1,1,84.1457,145.7447A119,119,0,0,1,92.7489,169.5439Z" class="cls-1"/></clipPath></defs><g id="Layer_2" data-name="Layer 2"><g id="Actual_Role_Breakdown" data-name="Actual Role Breakdown"><g id="background"><rect width="640" height="410" class="cls-2"/></g><g id="Chart"><g class="cls-3"><path d="M207.6933,200.3465l99.07-158.5458c21.0149,13.1316,35.3243,26.2437,50.2375,46.0342Z" class="cls-4"/><path d="M207.6933,200.3465,357.0012,87.8349c22.37,29.6858,34.5975,62.39,37.19,99.47Z" class="cls-5"/><path d="M207.6933,200.3465l186.4983-13.0412c5.1858,74.16-28.64,137.7773-93.0214,174.9479Z" class="cls-6"/><path d="M207.6933,200.3465,301.17,362.2532c-89.4186,51.6258-203.7578,20.9887-255.3836-68.43S24.7978,90.0656,114.2164,38.44C175.0211,3.3342,247.2212,4.5945,306.7637,41.8007Z" class="cls-7"/></g></g><g id="Legend"><text class="cls-8" transform="translate(488.3428 323.9368)">3/4 or more</text><text class="cls-8" transform="translate(488.3428 289.9369)">1/2 to 3/4</text><text class="cls-8" transform="translate(487.0708 256.1714)">1/4 to 1/2</text><text class="cls-8" transform="translate(487.0708 219.1714)">Less than 1/4</text><rect id="Swatch_1" width="24.751" height="24.751" x="450" y="199.899" class="cls-9" data-name="Swatch 1" transform="translate(674.6502 -250.1005) rotate(90)"/><rect id="Swatch_2" width="24.751" height="24.751" x="450" y="236.206" class="cls-10" data-name="Swatch 2" transform="translate(710.9563 -213.7945) rotate(90)"/><rect id="Swatch_3" width="24.751" height="24.751" x="450" y="270.277" class="cls-11" data-name="Swatch 3" transform="translate(745.0278 -179.723) rotate(90)"/><rect id="Swatch_4" width="24.751" height="24.751" x="450" y="304.349" class="cls-12" data-name="Swatch 4" transform="translate(779.0993 -145.6515) rotate(90)"/></g><g id="Inner_Labels" data-name="Inner Labels"><text class="cls-13" transform="translate(298.5623 328.2926) rotate(-37.2737)">3</text><text class="cls-13" transform="matrix(0.7527, -0.6584, 0.6584, 0.7527, 307.0984, 321.7682)">0</text><text class="cls-13" transform="matrix(0.6949, -0.7191, 0.7191, 0.6949, 315.3796, 314.6071)">%</text><text class="cls-13" transform="translate(328.9275 299.9811) rotate(-52.3947)">1</text><text class="cls-13" transform="matrix(0.5595, -0.8288, 0.8288, 0.5595, 335.4158, 291.485)">/</text><text class="cls-13" transform="translate(340.4402 284.0631) rotate(-59.5591)">2</text><text class="cls-13" transform="translate(347.7957 270.983) rotate(-64.3385)">t</text><text class="cls-13" transform="translate(350.7117 264.9928) rotate(-67.4245)">o</text><text class="cls-13" transform="translate(356.1628 251.278) rotate(-72.9336)">3</text><text class="cls-13" transform="translate(359.2498 241.0768) rotate(-76.5427)">/</text><text class="cls-13" transform="translate(361.3503 232.3385) rotate(-80.1537)">4</text><text class="cls-13" transform="translate(64.197 168.6325) rotate(-75.6048)">6</text><text class="cls-13" transform="translate(66.5613 159.3248) rotate(-71.758)">7</text><text class="cls-13" transform="translate(69.5364 149.9381) rotate(-67.0626)">%</text><text class="cls-13" transform="matrix(0.4875, -0.8731, 0.8731, 0.4875, 76.9216, 133.297)">3</text><text class="cls-13" transform="translate(81.637 124.8717) rotate(-57.3895)">/</text><text class="cls-13" transform="translate(85.8967 118.1413) rotate(-53.9594)">4</text><text class="cls-13" transform="translate(94.1116 107.1481) rotate(-48.7154)">o</text><text class="cls-13" transform="translate(100.2551 100.1823) rotate(-45.5656)">r</text><text class="cls-13" transform="translate(107.8542 92.379) rotate(-39.703)">m</text><text class="cls-13" transform="translate(119.6218 82.7384) rotate(-34.9885)">o</text><text class="cls-13" transform="translate(127.2214 77.4435) rotate(-31.834)">r</text><text class="cls-13" transform="matrix(0.8758, -0.4827, 0.4827, 0.8758, 133.1165, 73.7501)">e</text></g></g></g></svg>