<svg xmlns="http://www.w3.org/2000/svg" xmlns:xlink="http://www.w3.org/1999/xlink" viewBox="0 0 640 400"><defs><style>.cls-1{fill:none}.cls-11,.cls-2{fill:#fff}.cls-3{clip-path:url(#clip-path)}.cls-4,.cls-8{fill:#003f5c}.cls-4,.cls-5,.cls-6{fill-rule:evenodd}.cls-5,.cls-9{fill:#ffa600}.cls-10,.cls-6{fill:#7a5195}.cls-11,.cls-7{font-size:18px;font-family:Georgia}</style><clipPath id="clip-path"><path d="M179.7462,5.3491C73.9221,22.11,1.722,121.4848,18.4829,227.309s116.1357,178.0241,221.96,161.2632,178.0241-116.1357,161.2632-221.96S285.57-11.4118,179.7462,5.3491ZM228.71,314.4956A119,119,0,1,1,327.6294,178.345,119,119,0,0,1,228.71,314.4956Z" class="cls-1"/></clipPath></defs><g id="Layer_2" data-name="Layer 2"><g id="Work_Location" data-name="Work Location"><g id="background"><rect width="640" height="400" class="cls-2"/></g><g id="Chart"><g class="cls-3"><path d="M210.0976,196.96,24.9633,170.9413C39.3332,68.6944,133.87-2.544,236.1166,11.8259S409.6018,120.7323,395.232,222.9791c-3.4488,24.5393-9.6072,42.9446-21.6209,64.6181Z" class="cls-4"/><path d="M210.0976,196.96l163.5135,90.637c-34.0391,61.408-93.3023,96.3167-163.5135,96.3167Z" class="cls-5"/><path d="M210.0976,196.96V383.9139c-103.2517,0-186.9537-83.702-186.9537-186.9537a196.9893,196.9893,0,0,1,1.8194-26.0189Z" class="cls-6"/></g></g><g id="Legend"><text class="cls-7" transform="translate(488.5702 287.4677)">Combo</text><text class="cls-7" transform="translate(487.2982 253.7023)">Remote</text><text class="cls-7" transform="translate(487.2982 216.7023)">Onsite</text><rect id="Swatch_1" width="24.751" height="24.751" x="450.228" y="197.43" class="cls-8" data-name="Swatch 1" transform="translate(672.4086 -252.7972) rotate(90)"/><rect id="Swatch_2" width="24.751" height="24.751" x="450.228" y="233.736" class="cls-9" data-name="Swatch 2" transform="translate(708.7147 -216.4912) rotate(90)"/><rect id="Swatch_3" width="24.751" height="24.751" x="450.228" y="267.808" class="cls-10" data-name="Swatch 3" transform="translate(742.7862 -182.4197) rotate(90)"/></g><g id="Inner_Labels" data-name="Inner Labels"><text class="cls-11" transform="translate(55.573 224.4431) rotate(78.1213)">2</text><text class="cls-11" transform="translate(57.8088 234.9949) rotate(74.0891)">7</text><text class="cls-11" transform="matrix(0.3559, 0.9345, -0.9345, 0.3559, 60.8581, 245.8923)">%</text><text class="cls-11" transform="translate(68.3777 264.4831) rotate(62.3672)">C</text><text class="cls-11" transform="matrix(0.5263, 0.8503, -0.8503, 0.5263, 74.0906, 275.2732)">o</text><text class="cls-11" transform="matrix(0.598, 0.8015, -0.8015, 0.598, 79.5701, 284.3074)">m</text><text class="cls-11" transform="matrix(0.6658, 0.7461, -0.7461, 0.6658, 89.6799, 297.5857)">b</text><text class="cls-11" transform="translate(96.717 305.362) rotate(45.32)">i</text><text class="cls-11" transform="matrix(0.7399, 0.6727, -0.6727, 0.7399, 100.6829, 309.4587)">n</text><text class="cls-11" transform="translate(108.9963 316.9568) rotate(38.4942)">a</text><text class="cls-11" transform="translate(116.4358 322.8142) rotate(35.5684)">t</text><text class="cls-11" transform="translate(121.6721 326.5417) rotate(33.3969)">i</text><text class="cls-11" transform="translate(126.3855 329.7048) rotate(30.5162)">o</text><text class="cls-11" transform="matrix(0.8944, 0.4472, -0.4472, 0.8944, 135.2854, 334.9441)">n</text><text class="cls-11" transform="matrix(0.9738, -0.2276, 0.2276, 0.9738, 240.991, 350.8406)">1</text><text class="cls-11" transform="translate(251.4597 348.3777) rotate(-17.1776)">7</text><text class="cls-11" transform="translate(262.3162 345.0779) rotate(-22.1256)">%</text><text class="cls-11" transform="translate(280.7673 337.154) rotate(-29.1087)">R</text><text class="cls-11" transform="matrix(0.8363, -0.5482, 0.5482, 0.8363, 292.3318, 330.6062)">e</text><text class="cls-11" transform="matrix(0.7879, -0.6158, 0.6158, 0.7879, 300.3572, 325.4822)">m</text><text class="cls-11" transform="translate(313.3845 315.0876) rotate(-42.9508)">o</text><text class="cls-11" transform="matrix(0.6947, -0.7193, 0.7193, 0.6947, 320.7537, 308.1482)">t</text><text class="cls-11" transform="matrix(0.6581, -0.7529, 0.7529, 0.6581, 325.3601, 303.4089)">e</text><text class="cls-11" transform="translate(138.0842 68.8596) rotate(-27.4152)">5</text><text class="cls-11" transform="translate(146.6057 64.4202) rotate(-23.6503)">6</text><text class="cls-11" transform="translate(155.2712 60.4963) rotate(-19.0169)">%</text><text class="cls-11" transform="translate(172.4675 54.8264) rotate(-12.1591)">O</text><text class="cls-11" transform="translate(184.9412 52.1692) rotate(-7.7068)">n</text><text class="cls-11" transform="translate(195.029 50.8332) rotate(-4.3057)">s</text><text class="cls-11" transform="translate(202.4578 50.2937) rotate(-1.916)">i</text><text class="cls-11" transform="matrix(0.9999, 0.0162, -0.0162, 0.9999, 207.3367, 50.071)">t</text><text class="cls-11" transform="matrix(0.9987, 0.0504, -0.0504, 0.9987, 213.28, 50.0925)">e</text></g></g></g></svg>