<svg xmlns="http://www.w3.org/2000/svg" xmlns:xlink="http://www.w3.org/1999/xlink" width="243" height="138" version="1.1" viewBox="0 0 243 138"><title>Boat Icon Copy</title><desc>Created with Sketch.</desc><defs><polygon id="path-1" points="166.384 137.635 .149 137.635 .149 .237 166.384 .237 166.384 137.635"/><polygon id="path-3" points="0 137.763 242.679 137.763 242.679 .365 0 .365"/></defs><g id="Home" fill="none" fill-rule="evenodd" stroke="none" stroke-width="1"><g id="Mobile" transform="translate(-39.000000, -1614.000000)"><g id="Group-8" transform="translate(39.000000, 1614.000000)"><g id="Boat--Icon-Copy"><g id="Group-3" transform="translate(23.516129, 0.128508)"><mask id="mask-2" fill="#fff"><use xlink:href="#path-1"/></mask><path id="Fill-1" fill="#3DD94A" d="M49.3159949,25.0992063 C76.9029084,24.5249365 84.5912573,19.9307778 100.872614,11.3156349 C117.152901,2.70085714 154.238193,-13.9547937 163.735502,24.5249365 C173.232455,63.0053968 153.786042,73.3433492 158.307908,95.1685238 C162.830844,116.992603 153.333534,143.411571 120.319027,136.519238 C87.3052324,129.627635 76.4507573,128.47873 62.4305125,132.499714 C48.4113365,136.519238 14.4921708,134.222159 4.09055938,95.7424286 C-6.31105205,57.2623333 6.80382185,45.7754762 9.96959164,41.7552222 C9.96959164,41.7552222 21.7287251,25.6742063 49.3159949,25.0992063 Z" mask="url(#mask-2)"/></g><mask id="mask-4" fill="#fff"><use xlink:href="#path-3"/></mask><polygon id="Fill-4" fill="#F0E7B2" points="151.492 86.981 153.362 86.981 153.362 75.785 151.492 75.785" mask="url(#mask-4)"/><path id="Fill-6" fill="#DBB783" d="M50.3486023,74.9291444 L50.3486023,70.3860968 L38.7986199,70.0232079 L38.7986199,74.6889222 L50.3486023,74.9291444 Z M65.1947622,75.2380016 L65.1947622,70.8526683 L54.0007284,70.5007317 L54.0007284,75.005081 L65.1947622,75.2380016 Z M79.9219161,75.5446683 L79.9219161,71.3155889 L68.8468883,70.9673032 L68.8468883,75.3139381 L79.9219161,75.5446683 Z M95.5993355,75.870319 L95.5993355,71.808081 L83.5740422,71.4302238 L83.5740422,75.6202397 L95.5993355,75.870319 Z M106.76344,76.1025095 L106.76344,72.1592873 L99.2514616,71.923081 L99.2514616,75.9458905 L106.76344,76.1025095 Z M120.540328,76.3887317 L120.540328,72.5922714 L110.415566,72.2739222 L110.415566,76.178081 L120.540328,76.3887317 Z M135.980805,76.7100016 L135.980805,73.0774619 L124.192454,72.7069063 L124.192454,76.4646683 L135.980805,76.7100016 Z M148.33283,76.9670175 L148.33283,73.4655413 L139.632931,73.1920968 L139.632931,76.785573 L148.33283,76.9670175 Z M155.933884,77.1250968 L155.933884,71.9194302 L151.984956,73.1249222 L151.984956,77.0425889 L155.933884,77.1250968 Z M196.731874,119.082573 C184.828437,119.082573 171.891003,118.186303 170.222783,117.942065 C169.614926,117.853351 158.88694,116.95416 144.038642,115.709605 C122.209617,113.880192 89.2211199,111.115811 62.1070232,108.718335 C13.1532123,104.389954 12.6640056,103.888335 12.2321639,103.445859 C10.8710789,102.051256 5.61843079,98.1003667 5.56534135,98.0602079 L3.0462651,96.1676365 L5.34086921,96.349446 L6.82024751,90.5884937 L14.7191727,79.9654143 L15.0850979,79.8726841 L15.2889044,79.6087317 L16.0617299,79.6251603 L35.1464938,74.7933349 L35.1464938,67.3877 L54.9385232,62.8220175 L148.474639,65.5944302 L159.481613,67.8352873 L159.481613,67.935319 L159.58601,67.935319 L159.58601,77.2006683 L204.17366,78.1279698 L218.071692,80.9577 L222.39866,94.9573984 C228.142652,95.0296841 240.079938,95.6933984 241.724286,99.9060492 L241.7788,100.045144 L241.786639,100.194827 C241.802316,100.483605 241.735687,101.498525 240.276618,102.700367 C239.076227,104.668144 236.272463,107.196319 231.938013,110.219176 C228.238498,113.327097 223.377786,115.590224 216.18577,117.555811 C212.476635,118.568906 205.930956,119.082573 196.733655,119.082573 L196.731874,119.082573 Z" mask="url(#mask-4)"/><path id="Fill-7" fill="#4D3C10" d="M140.523693,75.8913841 L140.523693,74.1331619 L147.442067,74.3503841 L147.442067,76.0355905 L140.523693,75.8913841 Z M125.083217,75.5704794 L125.083217,73.6476063 L135.090042,73.9623048 L135.090042,75.7782095 L125.083217,75.5704794 Z M111.306328,75.2838921 L111.306328,73.2149873 L119.649566,73.4771143 L119.649566,75.4573048 L111.306328,75.2838921 Z M152.875718,73.8049556 L155.043121,73.1437968 L155.043121,76.1933048 L152.875718,76.1484 L152.875718,73.8049556 Z M100.142224,75.0517016 L100.142224,72.864146 L105.872677,73.0441302 L105.872677,75.1707175 L100.142224,75.0517016 Z M84.4648047,74.7256857 L84.4648047,72.3712889 L94.708573,72.6929238 L94.708573,74.9388921 L84.4648047,74.7256857 Z M69.7376507,74.4197492 L69.7376507,71.9087333 L79.0311537,72.2004317 L79.0311537,74.6128762 L69.7376507,74.4197492 Z M54.8914909,74.1108921 L54.8914909,71.4417968 L64.3039997,71.7375111 L64.3039997,74.3062095 L54.8914909,74.1108921 Z M39.6893824,73.7947333 L39.6893824,70.9639079 L49.4578399,71.2709397 L49.4578399,73.9977175 L39.6893824,73.7947333 Z M54.8522974,61.9059238 L54.6331698,61.9566698 L35.6460334,66.3368921 L34.2557314,66.6577968 L34.2557314,68.1177492 L34.2557314,74.0784 L15.9626771,78.710527 L15.7503194,78.705781 L14.8641889,78.6867968 L14.5752255,79.0620984 L14.200749,79.156654 L13.8202152,79.6681302 L6.219161,89.8903524 L6.00395279,90.1798603 L5.91345132,90.5321619 L4.72624311,95.1566222 L4.6685217,95.380781 L-0.000142521994,95.0098603 L4.70094545,98.5427333 L5.00487361,98.7734635 L5.25998798,98.9633048 C6.86585455,100.176098 10.563944,103.027368 11.602573,104.09121 C12.2025906,104.706733 12.4270628,104.936733 27.3826082,106.426987 C35.4935349,107.234908 47.1507651,108.312257 62.0300613,109.627638 C89.1466522,112.025479 122.136218,114.78986 143.965956,116.619638 C158.162572,117.809067 169.376202,118.749146 170.102352,118.846622 C171.779123,119.091956 184.788887,119.995527 196.731874,119.995527 C206.00863,119.995527 212.631271,119.471273 216.414874,118.437368 C223.715919,116.44221 228.672834,114.131987 232.471758,110.951416 C236.857872,107.88913 239.63812,105.386146 240.95146,103.31359 C242.580487,101.918257 242.703055,100.644495 242.675976,100.144337 L242.659943,99.8449714 L242.551626,99.5675111 C241.59851,97.1258603 238.296632,95.5896063 232.16106,94.7316698 C228.73305,94.2526857 225.197791,94.102273 223.054617,94.0566381 L219.080035,81.1963524 L218.761855,80.1675587 L217.728926,79.957273 L204.424142,77.2483841 L204.269862,77.2169873 L204.113088,77.2137016 L160.476772,76.3064794 L160.476772,68.8479079 L160.476772,67.0225111 L160.060252,67.0225111 L158.938248,66.7939714 L148.721558,64.7141143 L148.575117,64.6841778 L148.425825,64.6797968 L55.0764132,61.9128603 L54.8522974,61.9059238 Z M222.694749,96.9232413 C222.452105,96.6983524 222.179532,96.4862413 221.87596,96.2901937 L221.894844,96.3507968 C221.894844,96.3507968 222.230484,96.5647333 222.694749,96.9232413 L222.694749,96.9232413 Z M149.223592,77.8982254 L149.223592,72.5804794 L138.742168,72.2508127 L138.742168,77.6799079 L149.223592,77.8982254 L149.223592,77.8982254 Z M136.871567,77.6412095 L136.871567,72.1920349 L123.301692,71.7656222 L123.301692,77.3593683 L136.871567,77.6412095 L136.871567,77.6412095 Z M121.431091,77.3199397 L121.431091,71.7068444 L109.524803,71.3326381 L109.524803,77.0724159 L121.431091,77.3199397 L121.431091,77.3199397 Z M107.654202,77.0337175 L107.654202,71.2742254 L98.3606991,70.9817968 L98.3606991,76.8405905 L107.654202,77.0337175 L107.654202,77.0337175 Z M156.824646,78.0563048 L156.824646,70.6952095 L151.094193,72.4443048 L151.094193,77.9372889 L156.824646,78.0563048 L156.824646,78.0563048 Z M96.4900979,76.801527 L96.4900979,70.923019 L82.6832798,70.4889397 L82.6832798,76.5142095 L96.4900979,76.801527 L96.4900979,76.801527 Z M80.8126786,76.4758762 L80.8126786,70.4301619 L67.9561258,70.0263841 L67.9561258,76.208273 L80.8126786,76.4758762 L80.8126786,76.4758762 Z M66.0855246,76.1692095 L66.0855246,69.9672413 L53.109966,69.5594476 L53.109966,75.8994159 L66.0855246,76.1692095 L66.0855246,76.1692095 Z M51.2393648,75.8603524 L51.2393648,69.5006698 L37.9078575,69.0819238 L37.9078575,75.5832571 L51.2393648,75.8603524 L51.2393648,75.8603524 Z M55.024749,63.737527 L148.374161,66.5044635 L158.59085,68.5843206 L158.59085,68.8479079 L158.695248,68.8479079 L158.695248,78.0950032 L204.076745,79.0387333 L217.381529,81.7476222 L221.744484,95.864146 C224.926287,95.8824 239.314239,96.1894317 240.897302,100.245098 C240.897302,100.245098 240.939702,101.031844 239.599283,102.084733 C238.747001,103.56367 236.556082,105.897622 231.403555,109.487813 C228.212132,112.177717 223.821029,114.524448 215.955953,116.67367 C211.811057,117.806146 204.40027,118.17013 196.731874,118.17013 C184.623918,118.17013 171.875682,117.262178 170.348915,117.038749 C167.85478,116.67367 14.2873311,104.260971 12.8621111,102.800654 C11.4368912,101.340337 6.09231642,97.3244635 6.09231642,97.3244635 C6.09231642,97.3244635 6.5551566,97.3613365 7.42560968,97.4303365 L6.68627683,97.3244635 L6.93675924,95.6556857 L6.44897771,95.6210032 L7.63654223,90.9965429 L15.2375965,80.7743206 L15.5949704,80.683781 L15.7129073,80.5308127 L16.161139,80.5403048 L35.9032856,75.5416381 L36.0372563,75.5445587 L36.0372563,68.1177492 L55.024749,63.737527 L55.024749,63.737527 Z" mask="url(#mask-4)"/><path id="Fill-8" fill="#92DB83" d="M6.68627683,97.3244635 L7.63654223,90.9965429 L15.2671698,80.5308127 L207.167334,84.6686222 L217.381529,81.7476222 L221.894844,96.3507968 C221.894844,96.3507968 228.783289,100.731749 223.320064,103.165733 C217.85684,105.599717 233.296604,100.975257 233.296604,100.975257 L239.710094,99.7584476 C239.710094,99.7584476 243.035844,101.705416 229.971209,110.467321 C229.971209,110.467321 214.531089,113.631098 213.818479,113.874606 C213.105869,114.118114 173.437366,114.604765 173.437366,114.604765 C173.437366,114.604765 34.4787783,102.678717 31.8656375,102.922225 C29.2524968,103.165733 28.7775422,100.488606 28.7775422,100.488606 L6.68627683,97.3244635 Z" mask="url(#mask-4)"/><polygon id="Fill-9" fill="#FFF" points="112.806 106.086 119.041 106.086 119.041 82.356 112.806 82.356" mask="url(#mask-4)"/><path id="Fill-10" fill="#4D3C10" d="M113.51827,105.35621 L118.328387,105.35621 L118.328387,83.0863683 L113.51827,82.8125587 L113.51827,105.35621 Z M112.09305,106.816527 L119.753607,106.816527 L119.753607,81.6260508 L112.09305,81.6260508 L112.09305,106.816527 Z" mask="url(#mask-4)"/><polygon id="Fill-11" fill="#FFF" points="208.652 86.92 215.778 84.912 218.628 97.324 210.077 100.975" mask="url(#mask-4)"/><path id="Fill-12" fill="#4D3C10" d="M209.42278,87.4598365 L210.68695,99.9240111 L217.795947,96.8887413 L215.253355,85.8166143 L209.42278,87.4598365 Z M209.466962,102.026503 L207.880692,86.3795667 L216.302317,84.0069159 L219.460604,97.7601857 L209.466962,102.026503 Z" mask="url(#mask-4)"/><polygon id="Fill-13" fill="#FFF" points="207.405 101.705 187.214 101.705 187.214 87.589 205.98 87.589" mask="url(#mask-4)"/><path id="Fill-14" fill="#4D3C10" d="M187.926865,100.975257 L206.614705,100.975257 L205.336995,88.3190508 L187.926865,88.3190508 L187.926865,100.975257 Z M208.195274,102.435575 L186.501645,102.435575 L186.501645,86.8587333 L206.622544,86.8587333 L208.195274,102.435575 Z" mask="url(#mask-4)"/><polygon id="Fill-15" fill="#FFF" points="183.889 101.705 160.135 101.705 160.135 86.859 183.889 87.589" mask="url(#mask-4)"/><path id="Fill-16" fill="#4D3C10" d="M160.847686,100.975257 L183.17625,100.975257 L183.17625,88.297146 L160.847686,87.6111619 L160.847686,100.975257 Z M184.60147,102.435575 L159.422466,102.435575 L159.422466,86.1063048 L184.60147,86.8806381 L184.60147,102.435575 Z" mask="url(#mask-4)"/><polygon id="Fill-17" fill="#FFF" points="142.557 101.705 123.436 100.61 123.436 86.494 142.557 86.859" mask="url(#mask-4)"/><path id="Fill-18" fill="#4D3C10" d="M124.148272,99.9195937 L141.844872,100.933054 L141.844872,87.5751651 L124.148272,87.2378317 L124.148272,99.9195937 Z M143.270092,102.477705 L122.723052,101.300689 L122.723052,85.7497683 L143.270092,86.1422286 L143.270092,102.477705 Z" mask="url(#mask-4)"/><path id="Fill-19" fill="#05600D" d="M145.942023,102.435575 C145.942023,102.435575 209.186158,106.451448 217.381173,104.443511 C225.576187,102.435575 225.219882,97.8720825 221.122375,95.864146 C221.122375,95.864146 239.115777,95.6816063 240.897302,100.245098 C240.897302,100.245098 241.610268,113.144813 148.258362,104.382908 L145.942023,102.435575 Z" mask="url(#mask-4)"/><polygon id="Fill-20" fill="#FFF" points="83.245 85.152 83.245 98.205 100.234 99.15 100.87 85.957" mask="url(#mask-4)"/><path id="Fill-21" fill="#4D3C10" d="M83.9574977,97.5130635 L99.5568862,98.3808571 L100.122342,86.6537778 L83.9574977,85.9155873 L83.9574977,97.5130635 Z M100.909776,99.9189365 L82.5322777,98.8963492 L82.5322777,84.3891905 L101.616685,85.2602698 L100.909776,99.9189365 Z" mask="url(#mask-4)"/><polygon id="Fill-22" fill="#FFF" points="64.137 84.316 64.137 97.142 79.569 98.089 79.569 85.061" mask="url(#mask-4)"/><path id="Fill-23" fill="#4D3C10" d="M64.8492532,96.4538587 L78.8566711,97.3132556 L78.8566711,85.7573984 L64.8492532,85.0812714 L64.8492532,96.4538587 Z M80.2818911,98.8637476 L63.4240333,97.8294778 L63.4240333,83.5501286 L80.2818911,84.3642556 L80.2818911,98.8637476 Z" mask="url(#mask-4)"/><polygon id="Fill-24" fill="#FFF" points="43.737 83.472 34.485 83.025 32.895 95.404 43.737 96.069" mask="url(#mask-4)"/><path id="Fill-25" fill="#4D3C10" d="M33.7014277,94.7218492 L43.0248603,95.2939286 L43.0248603,84.1688651 L35.1056257,83.7862619 L33.7014277,94.7218492 Z M44.4500802,96.8440556 L32.0891477,96.0857857 L33.8635465,82.2646111 L44.4500802,82.7753571 L44.4500802,96.8440556 Z" mask="url(#mask-4)"/><polygon id="Fill-26" fill="#FFF" points="47.134 83.564 47.134 96.185 60.817 97.025 60.817 84.224" mask="url(#mask-4)"/><path id="Fill-27" fill="#4D3C10" d="M47.8461299,95.4976429 L60.1048029,96.2504365 L60.1048029,84.9205635 L47.8461299,84.3291349 L47.8461299,95.4976429 Z M61.5300229,97.8005635 L46.42091,96.8732619 L46.42091,82.7983571 L61.5300229,83.5274206 L61.5300229,97.8005635 Z" mask="url(#mask-4)"/><polygon id="Fill-28" fill="#FFF" points="104.967 106.086 111.202 106.086 111.202 82.356 104.967 82.356" mask="url(#mask-4)"/><path id="Fill-29" fill="#4D3C10" d="M105.67956,105.35621 L110.489677,105.35621 L110.534215,82.8581937 L105.724098,82.8125587 L105.67956,105.35621 Z M104.25434,106.816527 L111.914897,106.816527 L111.914897,81.6260508 L104.25434,81.6260508 L104.25434,106.816527 Z" mask="url(#mask-4)"/><polygon id="Fill-30" fill="#DAF2C8" points="217.382 81.748 206.217 85.155 15.238 80.774 35.903 75.542 204.077 79.039" mask="url(#mask-4)"/><polygon id="Fill-31" fill="#F0E7B2" points="51.24 79.313 53.11 79.313 53.11 68.118 51.24 68.118" mask="url(#mask-4)"/><polygon id="Fill-32" fill="#F0E7B2" points="66.086 79.313 67.956 79.313 67.956 68.118 66.086 68.118" mask="url(#mask-4)"/><polygon id="Fill-33" fill="#F0E7B2" points="80.813 79.313 82.683 79.313 82.683 68.118 80.813 68.118" mask="url(#mask-4)"/><polygon id="Fill-34" fill="#F0E7B2" points="96.49 79.313 98.361 79.313 98.361 68.118 96.49 68.118" mask="url(#mask-4)"/><polygon id="Fill-35" fill="#F0E7B2" points="107.654 79.313 109.525 79.313 109.525 68.118 107.654 68.118" mask="url(#mask-4)"/><polygon id="Fill-36" fill="#F0E7B2" points="121.431 79.313 123.302 79.313 123.302 68.118 121.431 68.118" mask="url(#mask-4)"/><polygon id="Fill-37" fill="#F0E7B2" points="136.872 79.313 138.742 79.313 138.742 68.118 136.872 68.118" mask="url(#mask-4)"/><polygon id="Fill-38" fill="#F0E7B2" points="156.825 79.313 158.695 79.313 158.695 68.848 156.825 68.848" mask="url(#mask-4)"/><polygon id="Fill-39" fill="#F0E7B2" points="149.224 79.313 151.094 79.313 151.094 68.848 149.224 68.848" mask="url(#mask-4)"/><path id="Fill-40" fill="#1D918B" d="M158.876774,70.034781 L158.501774,68.4831937" mask="url(#mask-4)"/><polygon id="Fill-41" fill="#DAF2C8" points="158.591 68.584 148.374 66.505 55.025 63.738 36.037 68.118 36.081 69.244 37.231 69.061 150.514 72.621 158.591 70.156" mask="url(#mask-4)"/><path id="Fill-42" fill="#05600D" d="M234.483812,106.451448 C234.483812,106.451448 218.806393,111.562559 183.532199,110.102241 C148.258006,108.641924 6.09231642,97.3244635 6.09231642,97.3244635 C6.09231642,97.3244635 11.4368912,101.340337 12.8621111,102.800654 C14.2873311,104.260971 167.85478,116.67367 170.348915,117.038749 C172.84305,117.403829 205.266803,119.594305 215.955953,116.67367 C226.645102,113.753035 230.920762,110.467321 234.483812,106.451448" mask="url(#mask-4)"/><polygon id="Fill-43" fill="#FFF" points="6.379 94.945 7.567 90.32 15.168 82.288 30.132 82.288 27.045 96.405" mask="url(#mask-4)"/><path id="Fill-44" fill="#4D3C10" d="M7.28718519,94.276927 L26.4649447,95.6321016 L29.267996,83.0186095 L15.5203245,83.0186095 L8.21963534,90.6469429 L7.28718519,94.276927 Z M27.6243611,97.1778476 L5.47038607,95.6123873 L6.91342126,89.9938159 L14.8148406,81.5582921 L30.9967878,81.5582921 L27.6243611,97.1778476 Z" mask="url(#mask-4)"/></g></g></g></g></svg>