<svg xmlns="http://www.w3.org/2000/svg" xmlns:xlink="http://www.w3.org/1999/xlink" id="Layer_1" x="0" y="0" version="1.1" viewBox="0 0 243 138" xml:space="preserve" style="enable-background:new 0 0 243 138"><style type="text/css">.st0{filter:url(#Adobe_OpacityMaskFilter)}.st1{fill:#fff}.st2{mask:url(#mask-2_7_);fill:#e96851}.st3{filter:url(#Adobe_OpacityMaskFilter_1_)}.st4{mask:url(#mask-4_2_);fill:#45555f}.st5{filter:url(#Adobe_OpacityMaskFilter_2_)}.st6{mask:url(#mask-4_3_);fill:#e96851}.st7{filter:url(#Adobe_OpacityMaskFilter_3_)}.st8{mask:url(#mask-4_4_);fill:#e0877e}.st9{filter:url(#Adobe_OpacityMaskFilter_4_)}.st10{mask:url(#mask-4_5_);fill:#fff}.st11{filter:url(#Adobe_OpacityMaskFilter_5_)}.st12{mask:url(#mask-4_6_);fill:#45555f}.st13{filter:url(#Adobe_OpacityMaskFilter_6_)}.st14{mask:url(#mask-4_7_);fill:#fff}.st15{filter:url(#Adobe_OpacityMaskFilter_7_)}.st16{mask:url(#mask-4_8_);fill:#45555f}.st17{filter:url(#Adobe_OpacityMaskFilter_8_)}.st18{mask:url(#mask-4_9_);fill:#fff}.st19{filter:url(#Adobe_OpacityMaskFilter_9_)}.st20{mask:url(#mask-4_10_);fill:#45555f}.st21{filter:url(#Adobe_OpacityMaskFilter_10_)}.st22{mask:url(#mask-4_11_);fill:#fff}.st23{filter:url(#Adobe_OpacityMaskFilter_11_)}.st24{mask:url(#mask-4_12_);fill:#45555f}.st25{filter:url(#Adobe_OpacityMaskFilter_12_)}.st26{mask:url(#mask-4_13_);fill:#fff}.st27{filter:url(#Adobe_OpacityMaskFilter_13_)}.st28{mask:url(#mask-4_14_);fill:#45555f}.st29{filter:url(#Adobe_OpacityMaskFilter_14_)}.st30{mask:url(#mask-4_15_);fill:#933f34}.st31{filter:url(#Adobe_OpacityMaskFilter_15_)}.st32{mask:url(#mask-4_16_);fill:#fff}.st33{filter:url(#Adobe_OpacityMaskFilter_16_)}.st34{mask:url(#mask-4_17_);fill:#45555f}.st35{filter:url(#Adobe_OpacityMaskFilter_17_)}.st36{mask:url(#mask-4_18_);fill:#fff}.st37{filter:url(#Adobe_OpacityMaskFilter_18_)}.st38{mask:url(#mask-4_19_);fill:#45555f}.st39{filter:url(#Adobe_OpacityMaskFilter_19_)}.st40{mask:url(#mask-4_20_);fill:#fff}.st41{filter:url(#Adobe_OpacityMaskFilter_20_)}.st42{mask:url(#mask-4_21_);fill:#45555f}.st43{filter:url(#Adobe_OpacityMaskFilter_21_)}.st44{mask:url(#mask-4_22_);fill:#fff}.st45{filter:url(#Adobe_OpacityMaskFilter_22_)}.st46{mask:url(#mask-4_23_);fill:#45555f}.st47{filter:url(#Adobe_OpacityMaskFilter_23_)}.st48{mask:url(#mask-4_24_);fill:#fff}.st49{filter:url(#Adobe_OpacityMaskFilter_24_)}.st50{mask:url(#mask-4_25_);fill:#45555f}.st51{filter:url(#Adobe_OpacityMaskFilter_25_)}.st52{mask:url(#mask-4_26_);fill:#b0b7bb}.st53{filter:url(#Adobe_OpacityMaskFilter_26_)}.st54{mask:url(#mask-4_27_);fill:#b0b7bb}.st55{filter:url(#Adobe_OpacityMaskFilter_27_)}.st56{mask:url(#mask-4_28_);fill:#b0b7bb}.st57{filter:url(#Adobe_OpacityMaskFilter_28_)}.st58{mask:url(#mask-4_29_);fill:#b0b7bb}.st59{filter:url(#Adobe_OpacityMaskFilter_29_)}.st60{mask:url(#mask-4_30_);fill:#b0b7bb}.st61{filter:url(#Adobe_OpacityMaskFilter_30_)}.st62{mask:url(#mask-4_31_);fill:#b0b7bb}.st63{filter:url(#Adobe_OpacityMaskFilter_31_)}.st64{mask:url(#mask-4_32_);fill:#b0b7bb}.st65{filter:url(#Adobe_OpacityMaskFilter_32_)}.st66{mask:url(#mask-4_33_);fill:#b0b7bb}.st67{filter:url(#Adobe_OpacityMaskFilter_33_)}.st68{mask:url(#mask-4_34_);fill:#b0b7bb}.st69{filter:url(#Adobe_OpacityMaskFilter_34_)}.st70{mask:url(#mask-4_35_);fill:#b0b7bb}.st71{filter:url(#Adobe_OpacityMaskFilter_35_)}.st72{mask:url(#mask-4_36_);fill:#1d918b}.st73{filter:url(#Adobe_OpacityMaskFilter_36_)}.st74{mask:url(#mask-4_37_);fill:#b0b7bb}.st75{filter:url(#Adobe_OpacityMaskFilter_37_)}.st76{mask:url(#mask-4_38_);fill:#933f34}.st77{filter:url(#Adobe_OpacityMaskFilter_38_)}.st78{mask:url(#mask-4_39_);fill:#fff}.st79{filter:url(#Adobe_OpacityMaskFilter_39_)}.st80{mask:url(#mask-4_40_);fill:#45555f}.st81{fill:#e96851}.st82{fill:#45555f}.st83{fill:#b0b7bb}.st84{fill:#e0877e}.st85{fill:#933f34}</style><title>Boat Icon Copy</title><desc>Created with Sketch.</desc><g id="Home"><g id="Mobile" transform="translate(-39.000000, -1614.000000)"><g id="Group-8" transform="translate(39.000000, 1614.000000)"><g id="Boat--Icon-Copy"><g id="Group-3"><g transform="translate(23.516129, 0.128508)"><defs><filter id="Adobe_OpacityMaskFilter" width="166.2" height="137.4" x=".1" y=".2" filterUnits="userSpaceOnUse"><feColorMatrix type="matrix" values="1 0 0 0 0 0 1 0 0 0 0 0 1 0 0 0 0 0 1 0"/></filter></defs><mask id="mask-2_7_" width="166.2" height="137.4" x=".1" y=".2" maskUnits="userSpaceOnUse"><g class="st0"><polygon id="path-1_7_" points="166.4 137.6 .1 137.6 .1 .2 166.4 .2" class="st1"/></g></mask><path id="Fill-1_8_" d="M49.3,25.1c27.6-0.6,35.3-5.2,51.6-13.8c16.3-8.6,53.4-25.3,62.9,13.2 c9.5,38.5-9.9,48.8-5.4,70.6c4.5,21.8-5,48.2-38,41.4c-33-6.9-43.9-8-57.9-4c-14,4-47.9,1.7-58.3-36.8 c-10.4-38.5,2.7-50,5.9-54C10,41.8,21.7,25.7,49.3,25.1z" class="st2"/></g></g><defs><filter id="Adobe_OpacityMaskFilter_1_" width="238.7" height="56.3" x="3" y="62.8" filterUnits="userSpaceOnUse"><feColorMatrix type="matrix" values="1 0 0 0 0 0 1 0 0 0 0 0 1 0 0 0 0 0 1 0"/></filter></defs><mask id="mask-4_2_" width="238.7" height="56.3" x="3" y="62.8" maskUnits="userSpaceOnUse"><g class="st3"><polygon id="path-3_2_" points="0 137.8 242.7 137.8 242.7 .4 0 .4" class="st1"/></g></mask><path id="Fill-6" d="M50.3,74.9v-4.5L38.8,70v4.7L50.3,74.9z M65.2,75.2v-4.4L54,70.5V75L65.2,75.2z M79.9,75.5 v-4.2L68.8,71v4.3L79.9,75.5z M95.6,75.9v-4.1l-12-0.4v4.2L95.6,75.9z M106.8,76.1v-3.9l-7.5-0.2v4L106.8,76.1z M120.5,76.4 v-3.8l-10.1-0.3v3.9L120.5,76.4z M136,76.7v-3.6l-11.8-0.4v3.8L136,76.7z M148.3,77v-3.5l-8.7-0.3v3.6L148.3,77z M155.9,77.1 v-5.2l-3.9,1.2V77L155.9,77.1z M196.7,119.1c-11.9,0-24.8-0.9-26.5-1.1c-0.6-0.1-11.3-1-26.2-2.2c-21.8-1.8-54.8-4.6-81.9-7 c-49-4.3-49.4-4.8-49.9-5.3c-1.4-1.4-6.6-5.3-6.7-5.4L3,96.2l2.3,0.2l1.5-5.8L14.7,80l0.4-0.1l0.2-0.3l0.8,0l19.1-4.8v-7.4 l19.8-4.6l93.5,2.8l11,2.2v0.1h0.1v9.3l44.6,0.9l13.9,2.8l4.3,14c5.7,0.1,17.7,0.7,19.3,4.9l0.1,0.1l0,0.1 c0,0.3-0.1,1.3-1.5,2.5c-1.2,2-4,4.5-8.3,7.5c-3.7,3.1-8.6,5.4-15.8,7.3C212.5,118.6,205.9,119.1,196.7,119.1L196.7,119.1z" class="st4"/><defs><filter id="Adobe_OpacityMaskFilter_2_" width="242.7" height="58.1" x="0" y="61.9" filterUnits="userSpaceOnUse"><feColorMatrix type="matrix" values="1 0 0 0 0 0 1 0 0 0 0 0 1 0 0 0 0 0 1 0"/></filter></defs><mask id="mask-4_3_" width="242.7" height="58.1" x="0" y="61.9" maskUnits="userSpaceOnUse"><g class="st5"><polygon id="path-3_3_" points="0 137.8 242.7 137.8 242.7 .4 0 .4" class="st1"/></g></mask><path id="Fill-7" d="M140.5,75.9v-1.8l6.9,0.2V76L140.5,75.9z M125.1,75.6v-1.9l10,0.3v1.8L125.1,75.6z M111.3,75.3 v-2.1l8.3,0.3v2L111.3,75.3z M152.9,73.8l2.2-0.7v3l-2.2,0V73.8z M100.1,75.1v-2.2l5.7,0.2v2.1L100.1,75.1z M84.5,74.7v-2.4 l10.2,0.3v2.2L84.5,74.7z M69.7,74.4v-2.5l9.3,0.3v2.4L69.7,74.4z M54.9,74.1v-2.7l9.4,0.3v2.6L54.9,74.1z M39.7,73.8V71 l9.8,0.3V74L39.7,73.8z M54.9,61.9L54.6,62l-19,4.4l-1.4,0.3v1.5v6L16,78.7l-0.2,0l-0.9,0l-0.3,0.4l-0.4,0.1l-0.4,0.5L6.2,89.9 L6,90.2l-0.1,0.4l-1.2,4.6l-0.1,0.2L0,95l4.7,3.5L5,98.8L5.3,99c1.6,1.2,5.3,4.1,6.3,5.1c0.6,0.6,0.8,0.8,15.8,2.3 c8.1,0.8,19.8,1.9,34.6,3.2c27.1,2.4,60.1,5.2,81.9,7c14.2,1.2,25.4,2.1,26.1,2.2c1.7,0.2,14.7,1.1,26.6,1.1 c9.3,0,15.9-0.5,19.7-1.6c7.3-2,12.3-4.3,16.1-7.5c4.4-3.1,7.2-5.6,8.5-7.6c1.6-1.4,1.8-2.7,1.7-3.2l0-0.3l-0.1-0.3 c-1-2.4-4.3-4-10.4-4.8c-3.4-0.5-7-0.6-9.1-0.7l-4-12.9l-0.3-1l-1-0.2l-13.3-2.7l-0.2,0l-0.2,0l-43.6-0.9v-7.5V67h-0.4l-1.1-0.2 l-10.2-2.1l-0.1,0l-0.1,0l-93.3-2.8L54.9,61.9z M222.7,96.9c-0.2-0.2-0.5-0.4-0.8-0.6l0,0.1C221.9,96.4,222.2,96.6,222.7,96.9 L222.7,96.9z M149.2,77.9v-5.3l-10.5-0.3v5.4L149.2,77.9L149.2,77.9z M136.9,77.6v-5.4l-13.6-0.4v5.6L136.9,77.6L136.9,77.6z M121.4,77.3v-5.6l-11.9-0.4v5.7L121.4,77.3L121.4,77.3z M107.7,77v-5.8L98.4,71v5.9L107.7,77L107.7,77z M156.8,78.1v-7.4 l-5.7,1.7v5.5L156.8,78.1L156.8,78.1z M96.5,76.8v-5.9l-13.8-0.4v6L96.5,76.8L96.5,76.8z M80.8,76.5v-6L68,70v6.2L80.8,76.5 L80.8,76.5z M66.1,76.2V70l-13-0.4v6.3L66.1,76.2L66.1,76.2z M51.2,75.9v-6.4l-13.3-0.4v6.5L51.2,75.9L51.2,75.9z M55,63.7 l93.3,2.8l10.2,2.1v0.3h0.1v9.2l45.4,0.9l13.3,2.7l4.4,14.1c3.2,0,17.6,0.3,19.2,4.4c0,0,0,0.8-1.3,1.8c-0.9,1.5-3,3.8-8.2,7.4 c-3.2,2.7-7.6,5-15.4,7.2c-4.1,1.1-11.6,1.5-19.2,1.5c-12.1,0-24.9-0.9-26.4-1.1c-2.5-0.4-156.1-12.8-157.5-14.2 c-1.4-1.5-6.8-5.5-6.8-5.5s0.5,0,1.3,0.1l-0.7-0.1l0.3-1.7l-0.5,0L7.6,91l7.6-10.2l0.4-0.1l0.1-0.2l0.4,0l19.7-5l0.1,0v-7.4 L55,63.7L55,63.7z" class="st6"/><defs><filter id="Adobe_OpacityMaskFilter_3_" width="233.4" height="34.1" x="6.7" y="80.5" filterUnits="userSpaceOnUse"><feColorMatrix type="matrix" values="1 0 0 0 0 0 1 0 0 0 0 0 1 0 0 0 0 0 1 0"/></filter></defs><mask id="mask-4_4_" width="233.4" height="34.1" x="6.7" y="80.5" maskUnits="userSpaceOnUse"><g class="st7"><polygon id="path-3_4_" points="0 137.8 242.7 137.8 242.7 .4 0 .4" class="st1"/></g></mask><path id="Fill-8" d="M6.7,97.3l1-6.3l7.6-10.5l191.9,4.1l10.2-2.9l4.5,14.6c0,0,6.9,4.4,1.4,6.8s10-2.2,10-2.2 l6.4-1.2c0,0,3.3,1.9-9.7,10.7c0,0-15.4,3.2-16.2,3.4c-0.7,0.2-40.4,0.7-40.4,0.7s-139-11.9-141.6-11.7s-3.1-2.4-3.1-2.4 L6.7,97.3z" class="st8"/><defs><filter id="Adobe_OpacityMaskFilter_4_" width="6.2" height="23.7" x="112.8" y="82.4" filterUnits="userSpaceOnUse"><feColorMatrix type="matrix" values="1 0 0 0 0 0 1 0 0 0 0 0 1 0 0 0 0 0 1 0"/></filter></defs><mask id="mask-4_5_" width="6.2" height="23.7" x="112.8" y="82.4" maskUnits="userSpaceOnUse"><g class="st9"><polygon id="path-3_5_" points="0 137.8 242.7 137.8 242.7 .4 0 .4" class="st1"/></g></mask><polygon id="Fill-9" points="112.8 106.1 119 106.1 119 82.4 112.8 82.4" class="st10"/><defs><filter id="Adobe_OpacityMaskFilter_5_" width="7.7" height="25.2" x="112.1" y="81.6" filterUnits="userSpaceOnUse"><feColorMatrix type="matrix" values="1 0 0 0 0 0 1 0 0 0 0 0 1 0 0 0 0 0 1 0"/></filter></defs><mask id="mask-4_6_" width="7.7" height="25.2" x="112.1" y="81.6" maskUnits="userSpaceOnUse"><g class="st11"><polygon id="path-3_6_" points="0 137.8 242.7 137.8 242.7 .4 0 .4" class="st1"/></g></mask><path id="Fill-10" d="M113.5,105.4h4.8V83.1l-4.8-0.3V105.4z M112.1,106.8h7.7V81.6h-7.7V106.8z" class="st12"/><defs><filter id="Adobe_OpacityMaskFilter_6_" width="10" height="16.1" x="208.7" y="84.9" filterUnits="userSpaceOnUse"><feColorMatrix type="matrix" values="1 0 0 0 0 0 1 0 0 0 0 0 1 0 0 0 0 0 1 0"/></filter></defs><mask id="mask-4_7_" width="10" height="16.1" x="208.7" y="84.9" maskUnits="userSpaceOnUse"><g class="st13"><polygon id="path-3_7_" points="0 137.8 242.7 137.8 242.7 .4 0 .4" class="st1"/></g></mask><polygon id="Fill-11" points="208.7 86.9 215.8 84.9 218.6 97.3 210.1 101" class="st14"/><defs><filter id="Adobe_OpacityMaskFilter_7_" width="11.6" height="18" x="207.9" y="84" filterUnits="userSpaceOnUse"><feColorMatrix type="matrix" values="1 0 0 0 0 0 1 0 0 0 0 0 1 0 0 0 0 0 1 0"/></filter></defs><mask id="mask-4_8_" width="11.6" height="18" x="207.9" y="84" maskUnits="userSpaceOnUse"><g class="st15"><polygon id="path-3_8_" points="0 137.8 242.7 137.8 242.7 .4 0 .4" class="st1"/></g></mask><path id="Fill-12" d="M209.4,87.5l1.3,12.5l7.1-3l-2.5-11.1L209.4,87.5z M209.5,102l-1.6-15.6l8.4-2.4l3.2,13.8 L209.5,102z" class="st16"/><defs><filter id="Adobe_OpacityMaskFilter_8_" width="20.2" height="14.1" x="187.2" y="87.6" filterUnits="userSpaceOnUse"><feColorMatrix type="matrix" values="1 0 0 0 0 0 1 0 0 0 0 0 1 0 0 0 0 0 1 0"/></filter></defs><mask id="mask-4_9_" width="20.2" height="14.1" x="187.2" y="87.6" maskUnits="userSpaceOnUse"><g class="st17"><polygon id="path-3_9_" points="0 137.8 242.7 137.8 242.7 .4 0 .4" class="st1"/></g></mask><polygon id="Fill-13" points="207.4 101.7 187.2 101.7 187.2 87.6 206 87.6" class="st18"/><defs><filter id="Adobe_OpacityMaskFilter_9_" width="21.7" height="15.6" x="186.5" y="86.9" filterUnits="userSpaceOnUse"><feColorMatrix type="matrix" values="1 0 0 0 0 0 1 0 0 0 0 0 1 0 0 0 0 0 1 0"/></filter></defs><mask id="mask-4_10_" width="21.7" height="15.6" x="186.5" y="86.9" maskUnits="userSpaceOnUse"><g class="st19"><polygon id="path-3_10_" points="0 137.8 242.7 137.8 242.7 .4 0 .4" class="st1"/></g></mask><path id="Fill-14" d="M187.9,101h18.7l-1.3-12.7h-17.4V101z M208.2,102.4h-21.7V86.9h20.1L208.2,102.4z" class="st20"/><defs><filter id="Adobe_OpacityMaskFilter_10_" width="23.8" height="14.8" x="160.1" y="86.9" filterUnits="userSpaceOnUse"><feColorMatrix type="matrix" values="1 0 0 0 0 0 1 0 0 0 0 0 1 0 0 0 0 0 1 0"/></filter></defs><mask id="mask-4_11_" width="23.8" height="14.8" x="160.1" y="86.9" maskUnits="userSpaceOnUse"><g class="st21"><polygon id="path-3_11_" points="0 137.8 242.7 137.8 242.7 .4 0 .4" class="st1"/></g></mask><polygon id="Fill-15" points="183.9 101.7 160.1 101.7 160.1 86.9 183.9 87.6" class="st22"/><defs><filter id="Adobe_OpacityMaskFilter_11_" width="25.2" height="16.3" x="159.4" y="86.1" filterUnits="userSpaceOnUse"><feColorMatrix type="matrix" values="1 0 0 0 0 0 1 0 0 0 0 0 1 0 0 0 0 0 1 0"/></filter></defs><mask id="mask-4_12_" width="25.2" height="16.3" x="159.4" y="86.1" maskUnits="userSpaceOnUse"><g class="st23"><polygon id="path-3_12_" points="0 137.8 242.7 137.8 242.7 .4 0 .4" class="st1"/></g></mask><path id="Fill-16" d="M160.8,101h22.3V88.3l-22.3-0.7V101z M184.6,102.4h-25.2V86.1l25.2,0.8V102.4z" class="st24"/><defs><filter id="Adobe_OpacityMaskFilter_12_" width="19.1" height="15.2" x="123.4" y="86.5" filterUnits="userSpaceOnUse"><feColorMatrix type="matrix" values="1 0 0 0 0 0 1 0 0 0 0 0 1 0 0 0 0 0 1 0"/></filter></defs><mask id="mask-4_13_" width="19.1" height="15.2" x="123.4" y="86.5" maskUnits="userSpaceOnUse"><g class="st25"><polygon id="path-3_13_" points="0 137.8 242.7 137.8 242.7 .4 0 .4" class="st1"/></g></mask><polygon id="Fill-17" points="142.6 101.7 123.4 100.6 123.4 86.5 142.6 86.9" class="st26"/><defs><filter id="Adobe_OpacityMaskFilter_13_" width="20.5" height="16.7" x="122.7" y="85.7" filterUnits="userSpaceOnUse"><feColorMatrix type="matrix" values="1 0 0 0 0 0 1 0 0 0 0 0 1 0 0 0 0 0 1 0"/></filter></defs><mask id="mask-4_14_" width="20.5" height="16.7" x="122.7" y="85.7" maskUnits="userSpaceOnUse"><g class="st27"><polygon id="path-3_14_" points="0 137.8 242.7 137.8 242.7 .4 0 .4" class="st1"/></g></mask><path id="Fill-18" d="M124.1,99.9l17.7,1V87.6l-17.7-0.3V99.9z M143.3,102.5l-20.5-1.2V85.7l20.5,0.4V102.5z" class="st28"/><defs><filter id="Adobe_OpacityMaskFilter_14_" width="95" height="11.6" x="145.9" y="95.9" filterUnits="userSpaceOnUse"><feColorMatrix type="matrix" values="1 0 0 0 0 0 1 0 0 0 0 0 1 0 0 0 0 0 1 0"/></filter></defs><mask id="mask-4_15_" width="95" height="11.6" x="145.9" y="95.9" maskUnits="userSpaceOnUse"><g class="st29"><polygon id="path-3_15_" points="0 137.8 242.7 137.8 242.7 .4 0 .4" class="st1"/></g></mask><path id="Fill-19" d="M145.9,102.4c0,0,63.2,4,71.4,2c8.2-2,7.8-6.6,3.7-8.6c0,0,18-0.2,19.8,4.4 c0,0,0.7,12.9-92.6,4.1L145.9,102.4z" class="st30"/><defs><filter id="Adobe_OpacityMaskFilter_15_" width="17.6" height="14" x="83.2" y="85.2" filterUnits="userSpaceOnUse"><feColorMatrix type="matrix" values="1 0 0 0 0 0 1 0 0 0 0 0 1 0 0 0 0 0 1 0"/></filter></defs><mask id="mask-4_16_" width="17.6" height="14" x="83.2" y="85.2" maskUnits="userSpaceOnUse"><g class="st31"><polygon id="path-3_16_" points="0 137.8 242.7 137.8 242.7 .4 0 .4" class="st1"/></g></mask><polygon id="Fill-20" points="83.2 85.2 83.2 98.2 100.2 99.1 100.9 86" class="st32"/><defs><filter id="Adobe_OpacityMaskFilter_16_" width="19.1" height="15.5" x="82.5" y="84.4" filterUnits="userSpaceOnUse"><feColorMatrix type="matrix" values="1 0 0 0 0 0 1 0 0 0 0 0 1 0 0 0 0 0 1 0"/></filter></defs><mask id="mask-4_17_" width="19.1" height="15.5" x="82.5" y="84.4" maskUnits="userSpaceOnUse"><g class="st33"><polygon id="path-3_17_" points="0 137.8 242.7 137.8 242.7 .4 0 .4" class="st1"/></g></mask><path id="Fill-21" d="M84,97.5l15.6,0.9l0.6-11.7L84,85.9V97.5z M100.9,99.9l-18.4-1V84.4l19.1,0.9L100.9,99.9z" class="st34"/><defs><filter id="Adobe_OpacityMaskFilter_17_" width="15.4" height="13.8" x="64.1" y="84.3" filterUnits="userSpaceOnUse"><feColorMatrix type="matrix" values="1 0 0 0 0 0 1 0 0 0 0 0 1 0 0 0 0 0 1 0"/></filter></defs><mask id="mask-4_18_" width="15.4" height="13.8" x="64.1" y="84.3" maskUnits="userSpaceOnUse"><g class="st35"><polygon id="path-3_18_" points="0 137.8 242.7 137.8 242.7 .4 0 .4" class="st1"/></g></mask><polygon id="Fill-22" points="64.1 84.3 64.1 97.1 79.6 98.1 79.6 85.1" class="st36"/><defs><filter id="Adobe_OpacityMaskFilter_18_" width="16.9" height="15.3" x="63.4" y="83.6" filterUnits="userSpaceOnUse"><feColorMatrix type="matrix" values="1 0 0 0 0 0 1 0 0 0 0 0 1 0 0 0 0 0 1 0"/></filter></defs><mask id="mask-4_19_" width="16.9" height="15.3" x="63.4" y="83.6" maskUnits="userSpaceOnUse"><g class="st37"><polygon id="path-3_19_" points="0 137.8 242.7 137.8 242.7 .4 0 .4" class="st1"/></g></mask><path id="Fill-23" d="M64.8,96.5l14,0.9V85.8l-14-0.7V96.5z M80.3,98.9l-16.9-1V83.6l16.9,0.8V98.9z" class="st38"/><defs><filter id="Adobe_OpacityMaskFilter_19_" width="10.8" height="13" x="32.9" y="83" filterUnits="userSpaceOnUse"><feColorMatrix type="matrix" values="1 0 0 0 0 0 1 0 0 0 0 0 1 0 0 0 0 0 1 0"/></filter></defs><mask id="mask-4_20_" width="10.8" height="13" x="32.9" y="83" maskUnits="userSpaceOnUse"><g class="st39"><polygon id="path-3_20_" points="0 137.8 242.7 137.8 242.7 .4 0 .4" class="st1"/></g></mask><polygon id="Fill-24" points="43.7 83.5 34.5 83 32.9 95.4 43.7 96.1" class="st40"/><defs><filter id="Adobe_OpacityMaskFilter_20_" width="12.4" height="14.6" x="32.1" y="82.3" filterUnits="userSpaceOnUse"><feColorMatrix type="matrix" values="1 0 0 0 0 0 1 0 0 0 0 0 1 0 0 0 0 0 1 0"/></filter></defs><mask id="mask-4_21_" width="12.4" height="14.6" x="32.1" y="82.3" maskUnits="userSpaceOnUse"><g class="st41"><polygon id="path-3_21_" points="0 137.8 242.7 137.8 242.7 .4 0 .4" class="st1"/></g></mask><path id="Fill-25" d="M33.7,94.7l9.3,0.6V84.2l-7.9-0.4L33.7,94.7z M44.5,96.8l-12.4-0.8l1.8-13.8l10.6,0.5V96.8z" class="st42"/><defs><filter id="Adobe_OpacityMaskFilter_21_" width="13.7" height="13.5" x="47.1" y="83.6" filterUnits="userSpaceOnUse"><feColorMatrix type="matrix" values="1 0 0 0 0 0 1 0 0 0 0 0 1 0 0 0 0 0 1 0"/></filter></defs><mask id="mask-4_22_" width="13.7" height="13.5" x="47.1" y="83.6" maskUnits="userSpaceOnUse"><g class="st43"><polygon id="path-3_22_" points="0 137.8 242.7 137.8 242.7 .4 0 .4" class="st1"/></g></mask><polygon id="Fill-26" points="47.1 83.6 47.1 96.2 60.8 97 60.8 84.2" class="st44"/><defs><filter id="Adobe_OpacityMaskFilter_22_" width="15.1" height="15" x="46.4" y="82.8" filterUnits="userSpaceOnUse"><feColorMatrix type="matrix" values="1 0 0 0 0 0 1 0 0 0 0 0 1 0 0 0 0 0 1 0"/></filter></defs><mask id="mask-4_23_" width="15.1" height="15" x="46.4" y="82.8" maskUnits="userSpaceOnUse"><g class="st45"><polygon id="path-3_23_" points="0 137.8 242.7 137.8 242.7 .4 0 .4" class="st1"/></g></mask><path id="Fill-27" d="M47.8,95.5l12.3,0.8V84.9l-12.3-0.6V95.5z M61.5,97.8l-15.1-0.9V82.8l15.1,0.7V97.8z" class="st46"/><defs><filter id="Adobe_OpacityMaskFilter_23_" width="6.2" height="23.7" x="105" y="82.4" filterUnits="userSpaceOnUse"><feColorMatrix type="matrix" values="1 0 0 0 0 0 1 0 0 0 0 0 1 0 0 0 0 0 1 0"/></filter></defs><mask id="mask-4_24_" width="6.2" height="23.7" x="105" y="82.4" maskUnits="userSpaceOnUse"><g class="st47"><polygon id="path-3_24_" points="0 137.8 242.7 137.8 242.7 .4 0 .4" class="st1"/></g></mask><polygon id="Fill-28" points="105 106.1 111.2 106.1 111.2 82.4 105 82.4" class="st48"/><defs><filter id="Adobe_OpacityMaskFilter_24_" width="7.7" height="25.2" x="104.3" y="81.6" filterUnits="userSpaceOnUse"><feColorMatrix type="matrix" values="1 0 0 0 0 0 1 0 0 0 0 0 1 0 0 0 0 0 1 0"/></filter></defs><mask id="mask-4_25_" width="7.7" height="25.2" x="104.3" y="81.6" maskUnits="userSpaceOnUse"><g class="st49"><polygon id="path-3_25_" points="0 137.8 242.7 137.8 242.7 .4 0 .4" class="st1"/></g></mask><path id="Fill-29" d="M105.7,105.4h4.8l0-22.5l-4.8,0L105.7,105.4z M104.3,106.8h7.7V81.6h-7.7V106.8z" class="st50"/><defs><filter id="Adobe_OpacityMaskFilter_25_" width="202.1" height="9.6" x="15.2" y="75.5" filterUnits="userSpaceOnUse"><feColorMatrix type="matrix" values="1 0 0 0 0 0 1 0 0 0 0 0 1 0 0 0 0 0 1 0"/></filter></defs><mask id="mask-4_26_" width="202.1" height="9.6" x="15.2" y="75.5" maskUnits="userSpaceOnUse"><g class="st51"><polygon id="path-3_26_" points="0 137.8 242.7 137.8 242.7 .4 0 .4" class="st1"/></g></mask><polygon id="Fill-30" points="217.4 81.7 206.2 85.2 15.2 80.8 35.9 75.5 204.1 79" class="st52"/><defs><filter id="Adobe_OpacityMaskFilter_26_" width="1.9" height="11.2" x="51.2" y="68.1" filterUnits="userSpaceOnUse"><feColorMatrix type="matrix" values="1 0 0 0 0 0 1 0 0 0 0 0 1 0 0 0 0 0 1 0"/></filter></defs><mask id="mask-4_27_" width="1.9" height="11.2" x="51.2" y="68.1" maskUnits="userSpaceOnUse"><g class="st53"><polygon id="path-3_27_" points="0 137.8 242.7 137.8 242.7 .4 0 .4" class="st1"/></g></mask><polygon id="Fill-31" points="51.2 79.3 53.1 79.3 53.1 68.1 51.2 68.1" class="st54"/><defs><filter id="Adobe_OpacityMaskFilter_27_" width="1.9" height="11.2" x="66.1" y="68.1" filterUnits="userSpaceOnUse"><feColorMatrix type="matrix" values="1 0 0 0 0 0 1 0 0 0 0 0 1 0 0 0 0 0 1 0"/></filter></defs><mask id="mask-4_28_" width="1.9" height="11.2" x="66.1" y="68.1" maskUnits="userSpaceOnUse"><g class="st55"><polygon id="path-3_28_" points="0 137.8 242.7 137.8 242.7 .4 0 .4" class="st1"/></g></mask><polygon id="Fill-32" points="66.1 79.3 68 79.3 68 68.1 66.1 68.1" class="st56"/><defs><filter id="Adobe_OpacityMaskFilter_28_" width="1.9" height="11.2" x="80.8" y="68.1" filterUnits="userSpaceOnUse"><feColorMatrix type="matrix" values="1 0 0 0 0 0 1 0 0 0 0 0 1 0 0 0 0 0 1 0"/></filter></defs><mask id="mask-4_29_" width="1.9" height="11.2" x="80.8" y="68.1" maskUnits="userSpaceOnUse"><g class="st57"><polygon id="path-3_29_" points="0 137.8 242.7 137.8 242.7 .4 0 .4" class="st1"/></g></mask><polygon id="Fill-33" points="80.8 79.3 82.7 79.3 82.7 68.1 80.8 68.1" class="st58"/><defs><filter id="Adobe_OpacityMaskFilter_29_" width="1.9" height="11.2" x="96.5" y="68.1" filterUnits="userSpaceOnUse"><feColorMatrix type="matrix" values="1 0 0 0 0 0 1 0 0 0 0 0 1 0 0 0 0 0 1 0"/></filter></defs><mask id="mask-4_30_" width="1.9" height="11.2" x="96.5" y="68.1" maskUnits="userSpaceOnUse"><g class="st59"><polygon id="path-3_30_" points="0 137.8 242.7 137.8 242.7 .4 0 .4" class="st1"/></g></mask><polygon id="Fill-34" points="96.5 79.3 98.4 79.3 98.4 68.1 96.5 68.1" class="st60"/><defs><filter id="Adobe_OpacityMaskFilter_30_" width="1.9" height="11.2" x="107.7" y="68.1" filterUnits="userSpaceOnUse"><feColorMatrix type="matrix" values="1 0 0 0 0 0 1 0 0 0 0 0 1 0 0 0 0 0 1 0"/></filter></defs><mask id="mask-4_31_" width="1.9" height="11.2" x="107.7" y="68.1" maskUnits="userSpaceOnUse"><g class="st61"><polygon id="path-3_31_" points="0 137.8 242.7 137.8 242.7 .4 0 .4" class="st1"/></g></mask><polygon id="Fill-35" points="107.7 79.3 109.5 79.3 109.5 68.1 107.7 68.1" class="st62"/><defs><filter id="Adobe_OpacityMaskFilter_31_" width="1.9" height="11.2" x="121.4" y="68.1" filterUnits="userSpaceOnUse"><feColorMatrix type="matrix" values="1 0 0 0 0 0 1 0 0 0 0 0 1 0 0 0 0 0 1 0"/></filter></defs><mask id="mask-4_32_" width="1.9" height="11.2" x="121.4" y="68.1" maskUnits="userSpaceOnUse"><g class="st63"><polygon id="path-3_32_" points="0 137.8 242.7 137.8 242.7 .4 0 .4" class="st1"/></g></mask><polygon id="Fill-36" points="121.4 79.3 123.3 79.3 123.3 68.1 121.4 68.1" class="st64"/><defs><filter id="Adobe_OpacityMaskFilter_32_" width="1.9" height="11.2" x="136.9" y="68.1" filterUnits="userSpaceOnUse"><feColorMatrix type="matrix" values="1 0 0 0 0 0 1 0 0 0 0 0 1 0 0 0 0 0 1 0"/></filter></defs><mask id="mask-4_33_" width="1.9" height="11.2" x="136.9" y="68.1" maskUnits="userSpaceOnUse"><g class="st65"><polygon id="path-3_33_" points="0 137.8 242.7 137.8 242.7 .4 0 .4" class="st1"/></g></mask><polygon id="Fill-37" points="136.9 79.3 138.7 79.3 138.7 68.1 136.9 68.1" class="st66"/><defs><filter id="Adobe_OpacityMaskFilter_33_" width="1.9" height="10.5" x="156.8" y="68.8" filterUnits="userSpaceOnUse"><feColorMatrix type="matrix" values="1 0 0 0 0 0 1 0 0 0 0 0 1 0 0 0 0 0 1 0"/></filter></defs><mask id="mask-4_34_" width="1.9" height="10.5" x="156.8" y="68.8" maskUnits="userSpaceOnUse"><g class="st67"><polygon id="path-3_34_" points="0 137.8 242.7 137.8 242.7 .4 0 .4" class="st1"/></g></mask><polygon id="Fill-38" points="156.8 79.3 158.7 79.3 158.7 68.8 156.8 68.8" class="st68"/><defs><filter id="Adobe_OpacityMaskFilter_34_" width="1.9" height="10.5" x="149.2" y="68.8" filterUnits="userSpaceOnUse"><feColorMatrix type="matrix" values="1 0 0 0 0 0 1 0 0 0 0 0 1 0 0 0 0 0 1 0"/></filter></defs><mask id="mask-4_35_" width="1.9" height="10.5" x="149.2" y="68.8" maskUnits="userSpaceOnUse"><g class="st69"><polygon id="path-3_35_" points="0 137.8 242.7 137.8 242.7 .4 0 .4" class="st1"/></g></mask><polygon id="Fill-39" points="149.2 79.3 151.1 79.3 151.1 68.8 149.2 68.8" class="st70"/><defs><filter id="Adobe_OpacityMaskFilter_35_" width=".4" height="1.6" x="158.5" y="68.5" filterUnits="userSpaceOnUse"><feColorMatrix type="matrix" values="1 0 0 0 0 0 1 0 0 0 0 0 1 0 0 0 0 0 1 0"/></filter></defs><mask id="mask-4_36_" width=".4" height="1.6" x="158.5" y="68.5" maskUnits="userSpaceOnUse"><g class="st71"><polygon id="path-3_36_" points="0 137.8 242.7 137.8 242.7 .4 0 .4" class="st1"/></g></mask><path id="Fill-40" d="M158.9,70l-0.4-1.6" class="st72"/><defs><filter id="Adobe_OpacityMaskFilter_36_" width="122.6" height="8.9" x="36" y="63.7" filterUnits="userSpaceOnUse"><feColorMatrix type="matrix" values="1 0 0 0 0 0 1 0 0 0 0 0 1 0 0 0 0 0 1 0"/></filter></defs><mask id="mask-4_37_" width="122.6" height="8.9" x="36" y="63.7" maskUnits="userSpaceOnUse"><g class="st73"><polygon id="path-3_37_" points="0 137.8 242.7 137.8 242.7 .4 0 .4" class="st1"/></g></mask><polygon id="Fill-41" points="158.6 68.6 148.4 66.5 55 63.7 36 68.1 36.1 69.2 37.2 69.1 150.5 72.6 158.6 70.2" class="st74"/><defs><filter id="Adobe_OpacityMaskFilter_37_" width="228.4" height="20.8" x="6.1" y="97.3" filterUnits="userSpaceOnUse"><feColorMatrix type="matrix" values="1 0 0 0 0 0 1 0 0 0 0 0 1 0 0 0 0 0 1 0"/></filter></defs><mask id="mask-4_38_" width="228.4" height="20.8" x="6.1" y="97.3" maskUnits="userSpaceOnUse"><g class="st75"><polygon id="path-3_38_" points="0 137.8 242.7 137.8 242.7 .4 0 .4" class="st1"/></g></mask><path id="Fill-42" d="M234.5,106.5c0,0-15.7,5.1-51,3.7S6.1,97.3,6.1,97.3s5.3,4,6.8,5.5 c1.4,1.5,155,13.9,157.5,14.2c2.5,0.4,34.9,2.6,45.6-0.4C226.6,113.8,230.9,110.5,234.5,106.5" class="st76"/><defs><filter id="Adobe_OpacityMaskFilter_38_" width="23.8" height="14.1" x="6.4" y="82.3" filterUnits="userSpaceOnUse"><feColorMatrix type="matrix" values="1 0 0 0 0 0 1 0 0 0 0 0 1 0 0 0 0 0 1 0"/></filter></defs><mask id="mask-4_39_" width="23.8" height="14.1" x="6.4" y="82.3" maskUnits="userSpaceOnUse"><g class="st77"><polygon id="path-3_39_" points="0 137.8 242.7 137.8 242.7 .4 0 .4" class="st1"/></g></mask><polygon id="Fill-43" points="6.4 94.9 7.6 90.3 15.2 82.3 30.1 82.3 27 96.4" class="st78"/><defs><filter id="Adobe_OpacityMaskFilter_39_" width="25.5" height="15.6" x="5.5" y="81.6" filterUnits="userSpaceOnUse"><feColorMatrix type="matrix" values="1 0 0 0 0 0 1 0 0 0 0 0 1 0 0 0 0 0 1 0"/></filter></defs><mask id="mask-4_40_" width="25.5" height="15.6" x="5.5" y="81.6" maskUnits="userSpaceOnUse"><g class="st79"><polygon id="path-3_40_" points="0 137.8 242.7 137.8 242.7 .4 0 .4" class="st1"/></g></mask><path id="Fill-44" d="M7.3,94.3l19.2,1.4L29.3,83H15.5l-7.3,7.6L7.3,94.3z M27.6,97.2L5.5,95.6L6.9,90l7.9-8.4H31 L27.6,97.2z" class="st80"/></g></g></g></g><rect width="72" height="72" x="46.7" y="-119.8" class="st81"/><rect width="89.5" height="49.3" x="169.9" y="-97.3" class="st82"/><rect width="67" height="55.3" x="-68.7" y="-103.3" class="st83"/><rect width="47.7" height="38.7" x="-1.7" y="-86.7" class="st84"/><rect width="51.6" height="35.3" x="118.2" y="-83.3" class="st85"/></svg>