<svg xmlns="http://www.w3.org/2000/svg" xmlns:xlink="http://www.w3.org/1999/xlink" id="Layer_1" x="0" y="0" version="1.1" viewBox="0 0 174 141" xml:space="preserve" style="enable-background:new 0 0 174 141"><style type="text/css">.st0{fill:#e96851}.st1{fill:#fff}.st2{fill:#45555f}.st3{fill:#e0877e}.st4{fill:#1485e0}.st5{fill:#933f34}.st6{filter:url(#Adobe_OpacityMaskFilter)}.st7{mask:url(#mask-2_1_);fill:#fff}.st8{filter:url(#Adobe_OpacityMaskFilter_1_)}.st9{mask:url(#mask-2_2_);fill:#45555f}.st10{filter:url(#Adobe_OpacityMaskFilter_2_)}.st11{mask:url(#mask-2_3_);fill:#e0877e}.st12{filter:url(#Adobe_OpacityMaskFilter_3_)}.st13{mask:url(#mask-2_4_);fill:#e0877e}.st14{filter:url(#Adobe_OpacityMaskFilter_4_)}.st15{mask:url(#mask-2_5_);fill:#e0877e}.st16{filter:url(#Adobe_OpacityMaskFilter_5_)}.st17{mask:url(#mask-2_6_);fill:#e0877e}.st18{filter:url(#Adobe_OpacityMaskFilter_6_)}.st19{mask:url(#mask-2_7_);fill:#e0877e}.st20{filter:url(#Adobe_OpacityMaskFilter_7_)}.st21{mask:url(#mask-2_8_);fill:#e0877e}.st22{filter:url(#Adobe_OpacityMaskFilter_8_)}.st23{mask:url(#mask-2_9_);fill:#e0877e}.st24{filter:url(#Adobe_OpacityMaskFilter_9_)}.st25{mask:url(#mask-2_10_);fill:#e0877e}.st26{filter:url(#Adobe_OpacityMaskFilter_10_)}.st27{mask:url(#mask-2_11_);fill:#e0877e}.st28{filter:url(#Adobe_OpacityMaskFilter_11_)}.st29{mask:url(#mask-2_12_);fill:#e0877e}.st30{filter:url(#Adobe_OpacityMaskFilter_12_)}.st31{mask:url(#mask-2_13_);fill:#e0877e}.st32{filter:url(#Adobe_OpacityMaskFilter_13_)}.st33{mask:url(#mask-2_14_);fill:#e0877e}.st34{filter:url(#Adobe_OpacityMaskFilter_14_)}.st35{mask:url(#mask-2_15_);fill:#e0877e}.st36{filter:url(#Adobe_OpacityMaskFilter_15_)}.st37{mask:url(#mask-2_16_);fill:#e0877e}.st38{filter:url(#Adobe_OpacityMaskFilter_16_)}.st39{mask:url(#mask-2_17_);fill:#e0877e}.st40{filter:url(#Adobe_OpacityMaskFilter_17_)}.st41{mask:url(#mask-2_18_);fill:#e0877e}.st42{filter:url(#Adobe_OpacityMaskFilter_18_)}.st43{mask:url(#mask-2_19_);fill:#e0877e}.st44{filter:url(#Adobe_OpacityMaskFilter_19_)}.st45{mask:url(#mask-2_20_);fill:#e0877e}.st46{filter:url(#Adobe_OpacityMaskFilter_20_)}.st47{mask:url(#mask-2_21_);fill:#e0877e}.st48{filter:url(#Adobe_OpacityMaskFilter_21_)}.st49{mask:url(#mask-2_22_);fill:#e0877e}.st50{filter:url(#Adobe_OpacityMaskFilter_22_)}.st51{mask:url(#mask-2_23_);fill:#e0877e}.st52{filter:url(#Adobe_OpacityMaskFilter_23_)}.st53{mask:url(#mask-2_24_);fill:#e0877e}.st54{filter:url(#Adobe_OpacityMaskFilter_24_)}.st55{mask:url(#mask-2_25_);fill:#e0877e}.st56{filter:url(#Adobe_OpacityMaskFilter_25_)}.st57{mask:url(#mask-2_30_);fill:#e0877e}.st58{filter:url(#Adobe_OpacityMaskFilter_26_)}.st59{mask:url(#mask-2_26_);fill:#e0877e}.st60{filter:url(#Adobe_OpacityMaskFilter_27_)}.st61{mask:url(#mask-2_27_);fill:#e0877e}.st62{filter:url(#Adobe_OpacityMaskFilter_28_)}.st63{mask:url(#mask-2_28_);fill:#e0877e}.st64{filter:url(#Adobe_OpacityMaskFilter_29_)}.st65{mask:url(#mask-2_29_);fill:#e0877e}.st66{filter:url(#Adobe_OpacityMaskFilter_30_)}.st67{mask:url(#mask-2_31_);fill:#e0877e}.st68{filter:url(#Adobe_OpacityMaskFilter_31_)}.st69{mask:url(#mask-2_32_);fill:#e0877e}.st70{filter:url(#Adobe_OpacityMaskFilter_32_)}.st71{mask:url(#mask-2_33_);fill:#e96851}.st72{filter:url(#Adobe_OpacityMaskFilter_33_)}.st73{mask:url(#mask-2_54_);fill:#e0877e}.st74{filter:url(#Adobe_OpacityMaskFilter_34_)}.st75{mask:url(#mask-2_34_);fill:#933f34}.st76{filter:url(#Adobe_OpacityMaskFilter_35_)}.st77{mask:url(#mask-2_35_);fill:#fff}.st78{filter:url(#Adobe_OpacityMaskFilter_36_)}.st79{mask:url(#mask-2_36_);fill:#933f34}.st80{filter:url(#Adobe_OpacityMaskFilter_37_)}.st81{mask:url(#mask-2_37_);fill:#fff}.st82{filter:url(#Adobe_OpacityMaskFilter_38_)}.st83{mask:url(#mask-2_38_);fill:#933f34}.st84{filter:url(#Adobe_OpacityMaskFilter_39_)}.st85{mask:url(#mask-2_39_);fill:#fff}.st86{filter:url(#Adobe_OpacityMaskFilter_40_)}.st87{mask:url(#mask-2_40_);fill:#933f34}.st88{filter:url(#Adobe_OpacityMaskFilter_41_)}.st89{mask:url(#mask-2_41_);fill:#b0b7bb}.st90{filter:url(#Adobe_OpacityMaskFilter_42_)}.st91{mask:url(#mask-2_42_);fill:#933f34}.st92{filter:url(#Adobe_OpacityMaskFilter_43_)}.st93{mask:url(#mask-2_43_);fill:#e96851}.st94{filter:url(#Adobe_OpacityMaskFilter_44_)}.st95{mask:url(#mask-2_44_);fill:#933f34}.st96{filter:url(#Adobe_OpacityMaskFilter_45_)}.st97{mask:url(#mask-2_45_);fill:#933f34}.st98{filter:url(#Adobe_OpacityMaskFilter_46_)}.st99{mask:url(#mask-2_46_);fill:#933f34}.st100{filter:url(#Adobe_OpacityMaskFilter_47_)}.st101{mask:url(#mask-2_47_);fill:#933f34}.st102{filter:url(#Adobe_OpacityMaskFilter_48_)}.st103{mask:url(#mask-2_48_);fill:#45555f}.st104{filter:url(#Adobe_OpacityMaskFilter_49_)}.st105{mask:url(#mask-2_49_);fill:#933f34}.st106{filter:url(#Adobe_OpacityMaskFilter_50_)}.st107{mask:url(#mask-2_50_);fill:#4d3a09}.st108{filter:url(#Adobe_OpacityMaskFilter_51_)}.st109{mask:url(#mask-2_51_);fill:#fff}.st110{filter:url(#Adobe_OpacityMaskFilter_52_)}.st111{mask:url(#mask-2_52_);fill:#4d3a09}.st112{filter:url(#Adobe_OpacityMaskFilter_53_)}.st113{mask:url(#mask-2_53_);fill:#45555f}.st114{fill:#b0b7bb}</style><title>Page 1 Copy</title><desc>Created with Sketch.</desc><g id="Home"><g id="Mobile" transform="translate(-73.000000, -2060.000000)"><g id="Group-6" transform="translate(50.000000, 2060.000000)"><g id="Page-1-Copy" transform="translate(23.000000, 0.000000)"><g id="Group-3"><g><path id="Fill-1_8_" d="M10.3,42.8c0,0,12.3-16.5,41.1-17.1c28.8-0.6,36.9-5.3,53.9-14.1 c17-8.8,55.8-25.9,65.7,13.5c9.9,39.4-10.4,50-5.7,72.4c4.7,22.4-5.2,49.4-39.7,42.4c-34.5-7.1-45.9-8.2-60.5-4.1 c-14.7,4.1-50.1,1.8-61-37.7C-6.8,58.7,7,46.9,10.3,42.8" class="st0"/></g></g><polygon id="Fill-4" points="147 117.2 78.7 135.5 53 39.8 121.3 21.5" class="st1"/><path id="Fill-6" d="M53.8,40.7l25.4,94.5l67-17.9l-25.4-94.5L53.8,40.7z M78.1,137L52,39.7L121.9,21l26.1,97.3 L78.1,137z" class="st2"/><polygon id="Fill-8" points="90.3 131 66 40.2 66.7 40 91 130.8" class="st3"/><polygon id="Fill-10" points="58.1 50 58 49.6 122.9 32 123 32.4" class="st3"/><polygon id="Fill-12" points="59.1 53 59 52.6 123.9 35 124 35.4" class="st3"/><polygon id="Fill-14" points="60.1 56 60 55.6 124.9 38 125 38.4" class="st3"/><polygon id="Fill-16" points="60.1 59 60 58.6 124.9 41 125 41.4" class="st3"/><polygon id="Fill-18" points="61.1 62 61 61.6 125.9 44 126 44.4" class="st3"/><polygon id="Fill-20" points="62.1 65 62 64.6 126.9 47 127 47.4" class="st3"/><polygon id="Fill-22" points="62.1 67 62 66.6 126.9 49 127 49.4" class="st3"/><polygon id="Fill-24" points="63.1 70 63 69.6 127.9 52 128 52.4" class="st3"/><polygon id="Fill-26" points="64.1 74 64 73.6 128.9 56 129 56.4" class="st3"/><polygon id="Fill-28" points="65.1 77 65 76.6 129.9 59 130 59.4" class="st3"/><polygon id="Fill-30" points="65.1 79 65 78.6 129.9 61 130 61.4" class="st3"/><polygon id="Fill-32" points="66.1 82 66 81.6 130.9 64 131 64.4" class="st3"/><polygon id="Fill-34" points="67.1 85 67 84.6 131.9 67 132 67.4" class="st3"/><polygon id="Fill-36" points="68.1 87 68 86.6 132.9 69 133 69.4" class="st3"/><polygon id="Fill-38" points="68.1 91 68 90.6 132.9 73 133 73.4" class="st3"/><polygon id="Fill-40" points="69.1 94 69 93.6 133.9 76 134 76.4" class="st3"/><polygon id="Fill-42" points="70.1 96 70 95.6 134.9 78 135 78.4" class="st3"/><polygon id="Fill-44" points="72.1 99 72 98.6 136.9 81 137 81.4" class="st3"/><polygon id="Fill-46" points="72.1 102 72 101.6 136.9 84 137 84.4" class="st3"/><polygon id="Fill-48" points="73.1 106 73 105.6 137.9 88 138 88.4" class="st3"/><polygon id="Fill-50" points="74.1 108 74 107.6 138.9 90 139 90.4" class="st3"/><polygon id="Fill-52" points="74.1 111 74 110.6 138.9 93 139 93.4" class="st3"/><polygon id="Fill-54" points="75.1 114 75 113.6 139.9 96 140 96.4" class="st3"/><polygon id="Fill-56" points="76.1 116 76 115.6 140.9 98 141 98.4" class="st3"/><polygon id="Fill-58" points="77.1 119 77 118.6 141.9 101 142 101.4" class="st3"/><polygon id="Fill-60" points="77.1 122 77 121.6 141.9 104 142 104.4" class="st3"/><polygon id="Fill-62" points="78.1 125 78 124.6 142.9 107 143 107.4" class="st3"/><polygon id="Fill-64" points="79.1 128 79 127.6 143.9 110 144 110.4" class="st3"/><polygon id="Fill-66" points="80.1 131 80 130.6 144.9 113 145 113.4" class="st3"/><path id="Fill-68" d="M81.5,127c-0.7,0-1.3-0.5-1.4-1.1c-0.2-0.8,0.3-1.6,1.1-1.8c0.1,0,0.3-0.1,0.4-0.1 c0.7,0,1.3,0.5,1.4,1.1c0.2,0.8-0.3,1.6-1.1,1.8C81.8,127,81.6,127,81.5,127" class="st1"/><path id="Fill-70" d="M82,123c-0.2,0-0.3,0-0.5,0.1c-1.1,0.3-1.7,1.4-1.4,2.4c0.2,0.9,1,1.5,1.9,1.5 c0.2,0,0.3,0,0.5-0.1c1.1-0.3,1.7-1.4,1.4-2.4C83.7,123.6,82.9,123,82,123 M82,123.8L82,123.8c0.5,0,1,0.4,1.2,0.9 c0.2,0.6-0.2,1.3-0.8,1.5c-0.1,0-0.2,0-0.3,0c-0.5,0-1-0.4-1.2-0.9c-0.2-0.6,0.2-1.3,0.8-1.5C81.8,123.8,81.9,123.8,82,123.8" class="st4"/><path id="Fill-72" d="M71.5,88c-0.7,0-1.3-0.5-1.4-1.1c-0.1-0.4-0.1-0.8,0.1-1.1c0.2-0.3,0.5-0.6,0.9-0.7 c0.1,0,0.3-0.1,0.4-0.1c0.7,0,1.3,0.5,1.4,1.1c0.1,0.4,0.1,0.8-0.1,1.1c-0.2,0.3-0.5,0.6-0.9,0.7C71.8,88,71.6,88,71.5,88" class="st1"/><path id="Fill-74" d="M71,84c-0.2,0-0.3,0-0.5,0.1c-1.1,0.3-1.7,1.4-1.4,2.4c0.2,0.9,1,1.5,1.9,1.5 c0.2,0,0.3,0,0.5-0.1c1.1-0.3,1.7-1.4,1.4-2.4C72.7,84.6,71.9,84,71,84 M71,84.8L71,84.8c0.5,0,1,0.4,1.2,0.9 c0.1,0.3,0,0.6-0.1,0.9c-0.2,0.3-0.4,0.5-0.7,0.6c-0.1,0-0.2,0-0.3,0c-0.5,0-1-0.4-1.2-0.9c-0.1-0.3,0-0.6,0.1-0.9 c0.2-0.3,0.4-0.5,0.7-0.6C70.8,84.8,70.9,84.8,71,84.8" class="st4"/><path id="Fill-76" d="M62,50.5c-0.7,0-1.3-0.5-1.4-1.1c-0.2-0.8,0.3-1.6,1.1-1.8c0.1,0,0.3-0.1,0.4-0.1 c0.7,0,1.3,0.5,1.4,1.1c0.2,0.8-0.3,1.6-1.1,1.8C62.3,50.5,62.1,50.5,62,50.5" class="st0"/><path id="Fill-78" d="M62,47c-0.2,0-0.3,0-0.5,0.1c-1.1,0.3-1.7,1.4-1.4,2.4c0.2,0.9,1,1.5,1.9,1.5 c0.2,0,0.3,0,0.5-0.1c1.1-0.3,1.7-1.4,1.4-2.4C63.7,47.6,62.9,47,62,47 M62,47.8L62,47.8c0.5,0,1,0.4,1.2,0.9 c0.2,0.6-0.2,1.3-0.8,1.5c-0.1,0-0.2,0-0.3,0c-0.5,0-1-0.4-1.2-0.9c-0.1-0.3,0-0.6,0.1-0.9c0.2-0.3,0.4-0.5,0.7-0.6 C61.8,47.8,61.9,47.8,62,47.8" class="st5"/><defs><filter id="Adobe_OpacityMaskFilter" width="72" height="99" x="65" y="30" filterUnits="userSpaceOnUse"><feColorMatrix type="matrix" values="1 0 0 0 0 0 1 0 0 0 0 0 1 0 0 0 0 0 1 0"/></filter></defs><mask id="mask-2_1_" width="72" height="99" x="65" y="30" maskUnits="userSpaceOnUse"><g class="st6"><polygon id="path-1_1_" points="0 140 174 140 174 0 0 0" class="st1"/></g></mask><polygon id="Fill-80" points="65 129 137 129 137 30 65 30" class="st7"/><defs><filter id="Adobe_OpacityMaskFilter_1_" width="73" height="101" x="64" y="29" filterUnits="userSpaceOnUse"><feColorMatrix type="matrix" values="1 0 0 0 0 0 1 0 0 0 0 0 1 0 0 0 0 0 1 0"/></filter></defs><mask id="mask-2_2_" width="73" height="101" x="64" y="29" maskUnits="userSpaceOnUse"><g class="st8"><polygon id="path-1_2_" points="0 140 174 140 174 0 0 0" class="st1"/></g></mask><path id="Fill-82" d="M65.5,128.5h70v-98h-70V128.5z M64,130h73V29H64V130z" class="st9"/><defs><filter id="Adobe_OpacityMaskFilter_2_" width="1" height="94" x="77" y="33" filterUnits="userSpaceOnUse"><feColorMatrix type="matrix" values="1 0 0 0 0 0 1 0 0 0 0 0 1 0 0 0 0 0 1 0"/></filter></defs><mask id="mask-2_3_" width="1" height="94" x="77" y="33" maskUnits="userSpaceOnUse"><g class="st10"><polygon id="path-1_3_" points="0 140 174 140 174 0 0 0" class="st1"/></g></mask><polygon id="Fill-83" points="77 127 78 127 78 33 77 33" class="st11"/><defs><filter id="Adobe_OpacityMaskFilter_3_" width="66" height=".5" x="67" y="39" filterUnits="userSpaceOnUse"><feColorMatrix type="matrix" values="1 0 0 0 0 0 1 0 0 0 0 0 1 0 0 0 0 0 1 0"/></filter></defs><mask id="mask-2_4_" width="66" height=".5" x="67" y="39" maskUnits="userSpaceOnUse"><g class="st12"><polygon id="path-1_4_" points="0 139 174 139 174 -1 0 -1" class="st1"/></g></mask><polygon id="Fill-84" points="67 39.5 133 39.5 133 39 67 39" class="st13"/><defs><filter id="Adobe_OpacityMaskFilter_4_" width="66" height=".5" x="67" y="41.9" filterUnits="userSpaceOnUse"><feColorMatrix type="matrix" values="1 0 0 0 0 0 1 0 0 0 0 0 1 0 0 0 0 0 1 0"/></filter></defs><mask id="mask-2_5_" width="66" height=".5" x="67" y="41.9" maskUnits="userSpaceOnUse"><g class="st14"><polygon id="path-1_5_" points="0 138.9 174 138.9 174 -1.1 0 -1.1" class="st1"/></g></mask><polygon id="Fill-85" points="67 42.4 133 42.4 133 41.9 67 41.9" class="st15"/><defs><filter id="Adobe_OpacityMaskFilter_5_" width="66" height=".5" x="67" y="44.8" filterUnits="userSpaceOnUse"><feColorMatrix type="matrix" values="1 0 0 0 0 0 1 0 0 0 0 0 1 0 0 0 0 0 1 0"/></filter></defs><mask id="mask-2_6_" width="66" height=".5" x="67" y="44.8" maskUnits="userSpaceOnUse"><g class="st16"><polygon id="path-1_6_" points="0 138.8 174 138.8 174 -1.2 0 -1.2" class="st1"/></g></mask><polygon id="Fill-86" points="67 45.3 133 45.3 133 44.8 67 44.8" class="st17"/><defs><filter id="Adobe_OpacityMaskFilter_6_" width="66" height=".5" x="67" y="47.8" filterUnits="userSpaceOnUse"><feColorMatrix type="matrix" values="1 0 0 0 0 0 1 0 0 0 0 0 1 0 0 0 0 0 1 0"/></filter></defs><mask id="mask-2_7_" width="66" height=".5" x="67" y="47.8" maskUnits="userSpaceOnUse"><g class="st18"><polygon id="path-1_7_" points="0 139.8 174 139.8 174 -.2 0 -.2" class="st1"/></g></mask><polygon id="Fill-87" points="67 48.3 133 48.3 133 47.8 67 47.8" class="st19"/><defs><filter id="Adobe_OpacityMaskFilter_7_" width="66" height=".5" x="67" y="50.7" filterUnits="userSpaceOnUse"><feColorMatrix type="matrix" values="1 0 0 0 0 0 1 0 0 0 0 0 1 0 0 0 0 0 1 0"/></filter></defs><mask id="mask-2_8_" width="66" height=".5" x="67" y="50.7" maskUnits="userSpaceOnUse"><g class="st20"><polygon id="path-1_8_" points="0 139.7 174 139.7 174 -.3 0 -.3" class="st1"/></g></mask><polygon id="Fill-88" points="67 51.2 133 51.2 133 50.7 67 50.7" class="st21"/><defs><filter id="Adobe_OpacityMaskFilter_8_" width="66" height=".5" x="67" y="53.6" filterUnits="userSpaceOnUse"><feColorMatrix type="matrix" values="1 0 0 0 0 0 1 0 0 0 0 0 1 0 0 0 0 0 1 0"/></filter></defs><mask id="mask-2_9_" width="66" height=".5" x="67" y="53.6" maskUnits="userSpaceOnUse"><g class="st22"><polygon id="path-1_9_" points="0 139.6 174 139.6 174 -.4 0 -.4" class="st1"/></g></mask><polygon id="Fill-89" points="67 54.1 133 54.1 133 53.6 67 53.6" class="st23"/><defs><filter id="Adobe_OpacityMaskFilter_9_" width="66" height=".5" x="67" y="56.5" filterUnits="userSpaceOnUse"><feColorMatrix type="matrix" values="1 0 0 0 0 0 1 0 0 0 0 0 1 0 0 0 0 0 1 0"/></filter></defs><mask id="mask-2_10_" width="66" height=".5" x="67" y="56.5" maskUnits="userSpaceOnUse"><g class="st24"><polygon id="path-1_10_" points="0 138.5 174 138.5 174 -1.5 0 -1.5" class="st1"/></g></mask><polygon id="Fill-90" points="67 57 133 57 133 56.5 67 56.5" class="st25"/><defs><filter id="Adobe_OpacityMaskFilter_10_" width="66" height=".5" x="67" y="59.5" filterUnits="userSpaceOnUse"><feColorMatrix type="matrix" values="1 0 0 0 0 0 1 0 0 0 0 0 1 0 0 0 0 0 1 0"/></filter></defs><mask id="mask-2_11_" width="66" height=".5" x="67" y="59.5" maskUnits="userSpaceOnUse"><g class="st26"><polygon id="path-1_11_" points="0 138.5 174 138.5 174 -1.5 0 -1.5" class="st1"/></g></mask><polygon id="Fill-91" points="67 60 133 60 133 59.5 67 59.5" class="st27"/><defs><filter id="Adobe_OpacityMaskFilter_11_" width="66" height=".5" x="67" y="62.4" filterUnits="userSpaceOnUse"><feColorMatrix type="matrix" values="1 0 0 0 0 0 1 0 0 0 0 0 1 0 0 0 0 0 1 0"/></filter></defs><mask id="mask-2_12_" width="66" height=".5" x="67" y="62.4" maskUnits="userSpaceOnUse"><g class="st28"><polygon id="path-1_12_" points="0 138.4 174 138.4 174 -1.6 0 -1.6" class="st1"/></g></mask><polygon id="Fill-92" points="67 62.9 133 62.9 133 62.4 67 62.4" class="st29"/><defs><filter id="Adobe_OpacityMaskFilter_12_" width="66" height=".5" x="67" y="65.3" filterUnits="userSpaceOnUse"><feColorMatrix type="matrix" values="1 0 0 0 0 0 1 0 0 0 0 0 1 0 0 0 0 0 1 0"/></filter></defs><mask id="mask-2_13_" width="66" height=".5" x="67" y="65.3" maskUnits="userSpaceOnUse"><g class="st30"><polygon id="path-1_13_" points="0 139.3 174 139.3 174 -.7 0 -.7" class="st1"/></g></mask><polygon id="Fill-93" points="67 65.8 133 65.8 133 65.3 67 65.3" class="st31"/><defs><filter id="Adobe_OpacityMaskFilter_13_" width="66" height=".5" x="67" y="68.2" filterUnits="userSpaceOnUse"><feColorMatrix type="matrix" values="1 0 0 0 0 0 1 0 0 0 0 0 1 0 0 0 0 0 1 0"/></filter></defs><mask id="mask-2_14_" width="66" height=".5" x="67" y="68.2" maskUnits="userSpaceOnUse"><g class="st32"><polygon id="path-1_14_" points="0 139.2 174 139.2 174 -.8 0 -.8" class="st1"/></g></mask><polygon id="Fill-94" points="67 68.7 133 68.7 133 68.2 67 68.2" class="st33"/><defs><filter id="Adobe_OpacityMaskFilter_14_" width="66" height=".5" x="67" y="71.1" filterUnits="userSpaceOnUse"><feColorMatrix type="matrix" values="1 0 0 0 0 0 1 0 0 0 0 0 1 0 0 0 0 0 1 0"/></filter></defs><mask id="mask-2_15_" width="66" height=".5" x="67" y="71.1" maskUnits="userSpaceOnUse"><g class="st34"><polygon id="path-1_15_" points="0 138.1 174 138.1 174 -1.9 0 -1.9" class="st1"/></g></mask><polygon id="Fill-95" points="67 71.6 133 71.6 133 71.1 67 71.1" class="st35"/><defs><filter id="Adobe_OpacityMaskFilter_15_" width="66" height=".5" x="67" y="74.1" filterUnits="userSpaceOnUse"><feColorMatrix type="matrix" values="1 0 0 0 0 0 1 0 0 0 0 0 1 0 0 0 0 0 1 0"/></filter></defs><mask id="mask-2_16_" width="66" height=".5" x="67" y="74.1" maskUnits="userSpaceOnUse"><g class="st36"><polygon id="path-1_16_" points="0 138.1 174 138.1 174 -1.9 0 -1.9" class="st1"/></g></mask><polygon id="Fill-96" points="67 74.6 133 74.6 133 74.1 67 74.1" class="st37"/><defs><filter id="Adobe_OpacityMaskFilter_16_" width="66" height=".5" x="67" y="77" filterUnits="userSpaceOnUse"><feColorMatrix type="matrix" values="1 0 0 0 0 0 1 0 0 0 0 0 1 0 0 0 0 0 1 0"/></filter></defs><mask id="mask-2_17_" width="66" height=".5" x="67" y="77" maskUnits="userSpaceOnUse"><g class="st38"><polygon id="path-1_17_" points="0 138 174 138 174 -2 0 -2" class="st1"/></g></mask><polygon id="Fill-97" points="67 77.5 133 77.5 133 77 67 77" class="st39"/><defs><filter id="Adobe_OpacityMaskFilter_17_" width="66" height=".5" x="67" y="79.9" filterUnits="userSpaceOnUse"><feColorMatrix type="matrix" values="1 0 0 0 0 0 1 0 0 0 0 0 1 0 0 0 0 0 1 0"/></filter></defs><mask id="mask-2_18_" width="66" height=".5" x="67" y="79.9" maskUnits="userSpaceOnUse"><g class="st40"><polygon id="path-1_18_" points="0 138.9 174 138.9 174 -1.1 0 -1.1" class="st1"/></g></mask><polygon id="Fill-98" points="67 80.4 133 80.4 133 79.9 67 79.9" class="st41"/><defs><filter id="Adobe_OpacityMaskFilter_18_" width="66" height=".5" x="67" y="82.8" filterUnits="userSpaceOnUse"><feColorMatrix type="matrix" values="1 0 0 0 0 0 1 0 0 0 0 0 1 0 0 0 0 0 1 0"/></filter></defs><mask id="mask-2_19_" width="66" height=".5" x="67" y="82.8" maskUnits="userSpaceOnUse"><g class="st42"><polygon id="path-1_19_" points="0 138.8 174 138.8 174 -1.2 0 -1.2" class="st1"/></g></mask><polygon id="Fill-99" points="67 83.3 133 83.3 133 82.8 67 82.8" class="st43"/><defs><filter id="Adobe_OpacityMaskFilter_19_" width="66" height=".5" x="67" y="85.8" filterUnits="userSpaceOnUse"><feColorMatrix type="matrix" values="1 0 0 0 0 0 1 0 0 0 0 0 1 0 0 0 0 0 1 0"/></filter></defs><mask id="mask-2_20_" width="66" height=".5" x="67" y="85.8" maskUnits="userSpaceOnUse"><g class="st44"><polygon id="path-1_20_" points="0 137.8 174 137.8 174 -2.2 0 -2.2" class="st1"/></g></mask><polygon id="Fill-100" points="67 86.3 133 86.3 133 85.8 67 85.8" class="st45"/><defs><filter id="Adobe_OpacityMaskFilter_20_" width="66" height=".5" x="67" y="88.7" filterUnits="userSpaceOnUse"><feColorMatrix type="matrix" values="1 0 0 0 0 0 1 0 0 0 0 0 1 0 0 0 0 0 1 0"/></filter></defs><mask id="mask-2_21_" width="66" height=".5" x="67" y="88.7" maskUnits="userSpaceOnUse"><g class="st46"><polygon id="path-1_21_" points="0 137.7 174 137.7 174 -2.3 0 -2.3" class="st1"/></g></mask><polygon id="Fill-101" points="67 89.2 133 89.2 133 88.7 67 88.7" class="st47"/><defs><filter id="Adobe_OpacityMaskFilter_21_" width="66" height=".5" x="67" y="91.6" filterUnits="userSpaceOnUse"><feColorMatrix type="matrix" values="1 0 0 0 0 0 1 0 0 0 0 0 1 0 0 0 0 0 1 0"/></filter></defs><mask id="mask-2_22_" width="66" height=".5" x="67" y="91.6" maskUnits="userSpaceOnUse"><g class="st48"><polygon id="path-1_22_" points="0 137.6 174 137.6 174 -2.4 0 -2.4" class="st1"/></g></mask><polygon id="Fill-102" points="67 92.1 133 92.1 133 91.6 67 91.6" class="st49"/><defs><filter id="Adobe_OpacityMaskFilter_22_" width="66" height=".5" x="67" y="94.5" filterUnits="userSpaceOnUse"><feColorMatrix type="matrix" values="1 0 0 0 0 0 1 0 0 0 0 0 1 0 0 0 0 0 1 0"/></filter></defs><mask id="mask-2_23_" width="66" height=".5" x="67" y="94.5" maskUnits="userSpaceOnUse"><g class="st50"><polygon id="path-1_23_" points="0 138.5 174 138.5 174 -1.5 0 -1.5" class="st1"/></g></mask><polygon id="Fill-103" points="67 95 133 95 133 94.5 67 94.5" class="st51"/><defs><filter id="Adobe_OpacityMaskFilter_23_" width="66" height=".5" x="67" y="97.4" filterUnits="userSpaceOnUse"><feColorMatrix type="matrix" values="1 0 0 0 0 0 1 0 0 0 0 0 1 0 0 0 0 0 1 0"/></filter></defs><mask id="mask-2_24_" width="66" height=".5" x="67" y="97.4" maskUnits="userSpaceOnUse"><g class="st52"><polygon id="path-1_24_" points="0 138.4 174 138.4 174 -1.6 0 -1.6" class="st1"/></g></mask><polygon id="Fill-104" points="67 97.9 133 97.9 133 97.4 67 97.4" class="st53"/><defs><filter id="Adobe_OpacityMaskFilter_24_" width="66" height=".5" x="67" y="100.4" filterUnits="userSpaceOnUse"><feColorMatrix type="matrix" values="1 0 0 0 0 0 1 0 0 0 0 0 1 0 0 0 0 0 1 0"/></filter></defs><mask id="mask-2_25_" width="66" height=".5" x="67" y="100.4" maskUnits="userSpaceOnUse"><g class="st54"><polygon id="path-1_25_" points="0 137.4 174 137.4 174 -2.6 0 -2.6" class="st1"/></g></mask><polygon id="Fill-105" points="67 100.9 133 100.9 133 100.4 67 100.4" class="st55"/><defs><filter id="Adobe_OpacityMaskFilter_25_" width="66" height=".5" x="67" y="115" filterUnits="userSpaceOnUse"><feColorMatrix type="matrix" values="1 0 0 0 0 0 1 0 0 0 0 0 1 0 0 0 0 0 1 0"/></filter></defs><mask id="mask-2_30_" width="66" height=".5" x="67" y="115" maskUnits="userSpaceOnUse"><g class="st56"><polygon id="path-1_30_" points="0 141 174 141 174 1 0 1" class="st1"/></g></mask><polygon id="Fill-109_1_" points="67 115.5 133 115.5 133 115 67 115" class="st57"/><defs><filter id="Adobe_OpacityMaskFilter_26_" width="66" height=".5" x="67" y="103.3" filterUnits="userSpaceOnUse"><feColorMatrix type="matrix" values="1 0 0 0 0 0 1 0 0 0 0 0 1 0 0 0 0 0 1 0"/></filter></defs><mask id="mask-2_26_" width="66" height=".5" x="67" y="103.3" maskUnits="userSpaceOnUse"><g class="st58"><polygon id="path-1_26_" points="0 138.3 174 138.3 174 -1.7 0 -1.7" class="st1"/></g></mask><polygon id="Fill-106" points="67 103.8 133 103.8 133 103.3 67 103.3" class="st59"/><defs><filter id="Adobe_OpacityMaskFilter_27_" width="66" height=".5" x="67" y="106.2" filterUnits="userSpaceOnUse"><feColorMatrix type="matrix" values="1 0 0 0 0 0 1 0 0 0 0 0 1 0 0 0 0 0 1 0"/></filter></defs><mask id="mask-2_27_" width="66" height=".5" x="67" y="106.2" maskUnits="userSpaceOnUse"><g class="st60"><polygon id="path-1_27_" points="0 138.2 174 138.2 174 -1.8 0 -1.8" class="st1"/></g></mask><polygon id="Fill-107" points="67 106.7 133 106.7 133 106.2 67 106.2" class="st61"/><defs><filter id="Adobe_OpacityMaskFilter_28_" width="66" height=".5" x="67" y="109.1" filterUnits="userSpaceOnUse"><feColorMatrix type="matrix" values="1 0 0 0 0 0 1 0 0 0 0 0 1 0 0 0 0 0 1 0"/></filter></defs><mask id="mask-2_28_" width="66" height=".5" x="67" y="109.1" maskUnits="userSpaceOnUse"><g class="st62"><polygon id="path-1_28_" points="0 138.1 174 138.1 174 -1.9 0 -1.9" class="st1"/></g></mask><polygon id="Fill-108" points="67 109.6 133 109.6 133 109.1 67 109.1" class="st63"/><defs><filter id="Adobe_OpacityMaskFilter_29_" width="66" height=".5" x="67" y="112.1" filterUnits="userSpaceOnUse"><feColorMatrix type="matrix" values="1 0 0 0 0 0 1 0 0 0 0 0 1 0 0 0 0 0 1 0"/></filter></defs><mask id="mask-2_29_" width="66" height=".5" x="67" y="112.1" maskUnits="userSpaceOnUse"><g class="st64"><polygon id="path-1_29_" points="0 138.1 174 138.1 174 -1.9 0 -1.9" class="st1"/></g></mask><polygon id="Fill-109" points="67 112.6 133 112.6 133 112.1 67 112.1" class="st65"/><defs><filter id="Adobe_OpacityMaskFilter_30_" width="66" height=".5" x="67" y="117.9" filterUnits="userSpaceOnUse"><feColorMatrix type="matrix" values="1 0 0 0 0 0 1 0 0 0 0 0 1 0 0 0 0 0 1 0"/></filter></defs><mask id="mask-2_31_" width="66" height=".5" x="67" y="117.9" maskUnits="userSpaceOnUse"><g class="st66"><polygon id="path-1_31_" points="0 127.9 174 127.9 174 -12.1 0 -12.1" class="st1"/></g></mask><polygon id="Fill-111" points="67 118.4 133 118.4 133 117.9 67 117.9" class="st67"/><defs><filter id="Adobe_OpacityMaskFilter_31_" width="66" height=".5" x="67" y="120.8" filterUnits="userSpaceOnUse"><feColorMatrix type="matrix" values="1 0 0 0 0 0 1 0 0 0 0 0 1 0 0 0 0 0 1 0"/></filter></defs><mask id="mask-2_32_" width="66" height=".5" x="67" y="120.8" maskUnits="userSpaceOnUse"><g class="st68"><polygon id="path-1_32_" points="0 127.8 174 127.8 174 -12.2 0 -12.2" class="st1"/></g></mask><polygon id="Fill-112" points="67 121.3 133 121.3 133 120.8 67 120.8" class="st69"/><defs><filter id="Adobe_OpacityMaskFilter_32_" width="3" height="3" x="68.5" y="116.5" filterUnits="userSpaceOnUse"><feColorMatrix type="matrix" values="1 0 0 0 0 0 1 0 0 0 0 0 1 0 0 0 0 0 1 0"/></filter></defs><mask id="mask-2_33_" width="3" height="3" x="68.5" y="116.5" maskUnits="userSpaceOnUse"><g class="st70"><polygon id="path-1_33_" points="-.5 139.5 173.5 139.5 173.5 -.5 -.5 -.5" class="st1"/></g></mask><path id="Fill-113" d="M70,119.5c-0.8,0-1.5-0.7-1.5-1.5s0.7-1.5,1.5-1.5c0.8,0,1.5,0.7,1.5,1.5 S70.8,119.5,70,119.5" class="st71"/><defs><filter id="Adobe_OpacityMaskFilter_33_" width="66" height=".5" x="67" y="123.8" filterUnits="userSpaceOnUse"><feColorMatrix type="matrix" values="1 0 0 0 0 0 1 0 0 0 0 0 1 0 0 0 0 0 1 0"/></filter></defs><mask id="mask-2_54_" width="66" height=".5" x="67" y="123.8" maskUnits="userSpaceOnUse"><g class="st72"><polygon id="path-1_54_" points="0 149.8 174 149.8 174 9.8 0 9.8" class="st1"/></g></mask><polygon id="Fill-109_4_" points="67 124.3 133 124.3 133 123.8 67 123.8" class="st73"/><defs><filter id="Adobe_OpacityMaskFilter_34_" width="4" height="4" x="68" y="116" filterUnits="userSpaceOnUse"><feColorMatrix type="matrix" values="1 0 0 0 0 0 1 0 0 0 0 0 1 0 0 0 0 0 1 0"/></filter></defs><mask id="mask-2_34_" width="4" height="4" x="68" y="116" maskUnits="userSpaceOnUse"><g class="st74"><polygon id="path-1_34_" points="0 140 174 140 174 0 0 0" class="st1"/></g></mask><path id="Fill-114" d="M70,116c-1.1,0-2,0.9-2,2s0.9,2,2,2c1.1,0,2-0.9,2-2S71.1,116,70,116 M70,116.8 c0.7,0,1.2,0.5,1.2,1.2s-0.5,1.2-1.2,1.2c-0.7,0-1.2-0.5-1.2-1.2S69.3,116.8,70,116.8" class="st75"/><defs><filter id="Adobe_OpacityMaskFilter_35_" width="3" height="3" x="68.5" y="77.5" filterUnits="userSpaceOnUse"><feColorMatrix type="matrix" values="1 0 0 0 0 0 1 0 0 0 0 0 1 0 0 0 0 0 1 0"/></filter></defs><mask id="mask-2_35_" width="3" height="3" x="68.5" y="77.5" maskUnits="userSpaceOnUse"><g class="st76"><polygon id="path-1_35_" points="-.5 139.5 173.5 139.5 173.5 -.5 -.5 -.5" class="st1"/></g></mask><path id="Fill-115" d="M70,80.5c-0.8,0-1.5-0.7-1.5-1.5s0.7-1.5,1.5-1.5c0.8,0,1.5,0.7,1.5,1.5S70.8,80.5,70,80.5" class="st77"/><defs><filter id="Adobe_OpacityMaskFilter_36_" width="4" height="4" x="68" y="77" filterUnits="userSpaceOnUse"><feColorMatrix type="matrix" values="1 0 0 0 0 0 1 0 0 0 0 0 1 0 0 0 0 0 1 0"/></filter></defs><mask id="mask-2_36_" width="4" height="4" x="68" y="77" maskUnits="userSpaceOnUse"><g class="st78"><polygon id="path-1_36_" points="0 140 174 140 174 0 0 0" class="st1"/></g></mask><path id="Fill-116" d="M70,77c-1.1,0-2,0.9-2,2c0,1.1,0.9,2,2,2c1.1,0,2-0.9,2-2C72,77.9,71.1,77,70,77 M70,77.8 c0.7,0,1.2,0.5,1.2,1.2s-0.5,1.2-1.2,1.2c-0.7,0-1.2-0.5-1.2-1.2S69.3,77.8,70,77.8" class="st79"/><defs><filter id="Adobe_OpacityMaskFilter_37_" width="3" height="3" x="68.5" y="37.5" filterUnits="userSpaceOnUse"><feColorMatrix type="matrix" values="1 0 0 0 0 0 1 0 0 0 0 0 1 0 0 0 0 0 1 0"/></filter></defs><mask id="mask-2_37_" width="3" height="3" x="68.5" y="37.5" maskUnits="userSpaceOnUse"><g class="st80"><polygon id="path-1_37_" points="-.5 139.5 173.5 139.5 173.5 -.5 -.5 -.5" class="st1"/></g></mask><path id="Fill-117" d="M70,40.5c-0.8,0-1.5-0.7-1.5-1.5s0.7-1.5,1.5-1.5c0.8,0,1.5,0.7,1.5,1.5S70.8,40.5,70,40.5" class="st81"/><defs><filter id="Adobe_OpacityMaskFilter_38_" width="4" height="4" x="68" y="37" filterUnits="userSpaceOnUse"><feColorMatrix type="matrix" values="1 0 0 0 0 0 1 0 0 0 0 0 1 0 0 0 0 0 1 0"/></filter></defs><mask id="mask-2_38_" width="4" height="4" x="68" y="37" maskUnits="userSpaceOnUse"><g class="st82"><polygon id="path-1_38_" points="0 140 174 140 174 0 0 0" class="st1"/></g></mask><path id="Fill-118" d="M70,37c-1.1,0-2,0.9-2,2c0,1.1,0.9,2,2,2c1.1,0,2-0.9,2-2C72,37.9,71.1,37,70,37 M70,37.8 c0.7,0,1.2,0.5,1.2,1.2s-0.5,1.2-1.2,1.2c-0.7,0-1.2-0.5-1.2-1.2S69.3,37.8,70,37.8" class="st83"/><defs><filter id="Adobe_OpacityMaskFilter_39_" width="16" height="14" x="45" y="76.1" filterUnits="userSpaceOnUse"><feColorMatrix type="matrix" values="1 0 0 0 0 0 1 0 0 0 0 0 1 0 0 0 0 0 1 0"/></filter></defs><mask id="mask-2_39_" width="16" height="14" x="45" y="76.1" maskUnits="userSpaceOnUse"><g class="st84"><polygon id="path-1_39_" points="0 140.1 174 140.1 174 .1 0 .1" class="st1"/></g></mask><path id="Fill-119" d="M47.3,76.1c-1.4,0.2-2.2,1.6-2.2,1.6c-0.2,0.1-0.2,0.4-0.1,0.5l9.1,11.3 c0.5,0.7,1.5,0.7,2.2,0.2l4.6-3.5" class="st85"/><defs><filter id="Adobe_OpacityMaskFilter_40_" width="16" height="15" x="44.5" y="75.5" filterUnits="userSpaceOnUse"><feColorMatrix type="matrix" values="1 0 0 0 0 0 1 0 0 0 0 0 1 0 0 0 0 0 1 0"/></filter></defs><mask id="mask-2_40_" width="16" height="15" x="44.5" y="75.5" maskUnits="userSpaceOnUse"><g class="st86"><polygon id="path-1_40_" points="-.5 140.5 173.5 140.5 173.5 .5 -.5 .5" class="st1"/></g></mask><path id="Fill-120" d="M55.9,90.2c-0.8,0.5-1.9,0.4-2.5-0.4l-8.8-11.5c-0.1-0.2-0.2-0.4-0.2-0.6 c0-0.2,0.1-0.4,0.3-0.5l2.1-1.7l0.5,0.6l-2.1,1.7L54,89.3c0.4,0.5,1,0.6,1.5,0.2l4.4-3.6l0.5,0.6l-4.4,3.6 C56,90.1,56,90.1,55.9,90.2" class="st87"/><defs><filter id="Adobe_OpacityMaskFilter_41_" width="36" height="45" x="56" y="84" filterUnits="userSpaceOnUse"><feColorMatrix type="matrix" values="1 0 0 0 0 0 1 0 0 0 0 0 1 0 0 0 0 0 1 0"/></filter></defs><mask id="mask-2_41_" width="36" height="45" x="56" y="84" maskUnits="userSpaceOnUse"><g class="st88"><polygon id="path-1_41_" points="0 140 174 140 174 0 0 0" class="st1"/></g></mask><path id="Fill-121" d="M56,87.4l30.8,40.1c0.1,0.2,0.3,0.2,0.5,0.1l0.3-0.2l1.1,1.5c0.1,0.2,0.4,0.2,0.5,0.1 l2.6-2.1c0.2-0.1,0.2-0.4,0.1-0.5l-1.1-1.5l0.3-0.2c0.2-0.1,0.2-0.4,0.1-0.6L60.3,84L56,87.4z" class="st89"/><defs><filter id="Adobe_OpacityMaskFilter_42_" width="38" height="47" x="53" y="81" filterUnits="userSpaceOnUse"><feColorMatrix type="matrix" values="1 0 0 0 0 0 1 0 0 0 0 0 1 0 0 0 0 0 1 0"/></filter></defs><mask id="mask-2_42_" width="38" height="47" x="53" y="81" maskUnits="userSpaceOnUse"><g class="st90"><polygon id="path-1_42_" points="0 140 174 140 174 0 0 0" class="st1"/></g></mask><path id="Fill-122" d="M86,124.6l1.4,1.8l2-1.6L88,123l0.6-0.5L58.3,83.1l-3.2,2.5L85.4,125L86,124.6z M87.9,127.8 c-0.5,0.3-1.1,0.2-1.5-0.3l-0.7-0.9c-0.4,0.2-0.9,0-1.2-0.4L53,85.4l5.5-4.4L90,121.9c0.2,0.2,0.3,0.6,0.2,0.9 c0,0.2-0.1,0.3-0.2,0.4l0.7,0.9c0.4,0.5,0.3,1.2-0.2,1.6L87.9,127.8z" class="st91"/><defs><filter id="Adobe_OpacityMaskFilter_43_" width="16" height="19" x="44.8" y="69" filterUnits="userSpaceOnUse"><feColorMatrix type="matrix" values="1 0 0 0 0 0 1 0 0 0 0 0 1 0 0 0 0 0 1 0"/></filter></defs><mask id="mask-2_43_" width="16" height="19" x="44.8" y="69" maskUnits="userSpaceOnUse"><g class="st92"><polygon id="path-1_43_" points="-.2 140 173.8 140 173.8 0 -.2 0" class="st1"/></g></mask><path id="Fill-123" d="M56.5,88L44.9,72.6c-0.1-0.2-0.1-0.4,0.1-0.5l3.7-3c0.2-0.1,0.4-0.1,0.5,0.1l11.6,15.4" class="st93"/><defs><filter id="Adobe_OpacityMaskFilter_44_" width="18" height="20" x="43.5" y="69" filterUnits="userSpaceOnUse"><feColorMatrix type="matrix" values="1 0 0 0 0 0 1 0 0 0 0 0 1 0 0 0 0 0 1 0"/></filter></defs><mask id="mask-2_44_" width="18" height="20" x="43.5" y="69" maskUnits="userSpaceOnUse"><g class="st94"><polygon id="path-1_44_" points="-.5 141 173.5 141 173.5 1 -.5 1" class="st1"/></g></mask><path id="Fill-124" d="M55.8,89L43.7,73.8c-0.4-0.5-0.3-1.2,0.2-1.6l3.9-3c0.5-0.4,1.2-0.3,1.6,0.2l12.1,15.2 l-1.2,0.9L48.4,70.6l-3.3,2.5L57,88.1L55.8,89z" class="st95"/><defs><filter id="Adobe_OpacityMaskFilter_45_" width="4" height="4" x="56.5" y="84.5" filterUnits="userSpaceOnUse"><feColorMatrix type="matrix" values="1 0 0 0 0 0 1 0 0 0 0 0 1 0 0 0 0 0 1 0"/></filter></defs><mask id="mask-2_45_" width="4" height="4" x="56.5" y="84.5" maskUnits="userSpaceOnUse"><g class="st96"><polygon id="path-1_45_" points="-.5 140.5 173.5 140.5 173.5 .5 -.5 .5" class="st1"/></g></mask><polygon id="Fill-125" points="56.9 88.5 56.5 87.8 60.1 84.5 60.5 85.2" class="st97"/><defs><filter id="Adobe_OpacityMaskFilter_46_" width="4" height="4" x="45.9" y="73" filterUnits="userSpaceOnUse"><feColorMatrix type="matrix" values="1 0 0 0 0 0 1 0 0 0 0 0 1 0 0 0 0 0 1 0"/></filter></defs><mask id="mask-2_46_" width="4" height="4" x="45.9" y="73" maskUnits="userSpaceOnUse"><g class="st98"><polygon id="path-1_46_" points="-.1 141 173.9 141 173.9 1 -.1 1" class="st1"/></g></mask><polygon id="Fill-126" points="46.3 77 45.9 76.3 49.5 73 49.9 73.7" class="st99"/><defs><filter id="Adobe_OpacityMaskFilter_47_" width="45" height="65" x="112" y="28" filterUnits="userSpaceOnUse"><feColorMatrix type="matrix" values="1 0 0 0 0 0 1 0 0 0 0 0 1 0 0 0 0 0 1 0"/></filter></defs><mask id="mask-2_47_" width="45" height="65" x="112" y="28" maskUnits="userSpaceOnUse"><g class="st100"><polygon id="path-1_47_" points="0 140 174 140 174 0 0 0" class="st1"/></g></mask><path id="Fill-127" d="M154.3,28.3l1.8,1.3c0.7,0.5,1.2,1.2,0.7,1.9l-38.5,56.8L112,93l2.1-7.7l38.5-56.8 C153,27.8,153.6,27.9,154.3,28.3" class="st101"/><defs><filter id="Adobe_OpacityMaskFilter_48_" width="34" height="49" x="116" y="38" filterUnits="userSpaceOnUse"><feColorMatrix type="matrix" values="1 0 0 0 0 0 1 0 0 0 0 0 1 0 0 0 0 0 1 0"/></filter></defs><mask id="mask-2_48_" width="34" height="49" x="116" y="38" maskUnits="userSpaceOnUse"><g class="st102"><polygon id="path-1_48_" points="0 140 174 140 174 0 0 0" class="st1"/></g></mask><polygon id="Fill-128" points="150 38.4 116.6 87 116 86.6 149.4 38" class="st103"/><defs><filter id="Adobe_OpacityMaskFilter_49_" width="34" height="49" x="115" y="37" filterUnits="userSpaceOnUse"><feColorMatrix type="matrix" values="1 0 0 0 0 0 1 0 0 0 0 0 1 0 0 0 0 0 1 0"/></filter></defs><mask id="mask-2_49_" width="34" height="49" x="115" y="37" maskUnits="userSpaceOnUse"><g class="st104"><polygon id="path-1_49_" points="0 140 174 140 174 0 0 0" class="st1"/></g></mask><polygon id="Fill-129" points="149 37.4 115.6 86 115 85.6 148.4 37" class="st105"/><defs><filter id="Adobe_OpacityMaskFilter_50_" width="3" height="3" x="114" y="84" filterUnits="userSpaceOnUse"><feColorMatrix type="matrix" values="1 0 0 0 0 0 1 0 0 0 0 0 1 0 0 0 0 0 1 0"/></filter></defs><mask id="mask-2_50_" width="3" height="3" x="114" y="84" maskUnits="userSpaceOnUse"><g class="st106"><polygon id="path-1_50_" points="0 140 174 140 174 0 0 0" class="st1"/></g></mask><polygon id="Fill-130" points="117 86.3 116.6 87 114 84.7 114.4 84" class="st107"/><defs><filter id="Adobe_OpacityMaskFilter_51_" width="6" height="7" x="113.3" y="84.8" filterUnits="userSpaceOnUse"><feColorMatrix type="matrix" values="1 0 0 0 0 0 1 0 0 0 0 0 1 0 0 0 0 0 1 0"/></filter></defs><mask id="mask-2_51_" width="6" height="7" x="113.3" y="84.8" maskUnits="userSpaceOnUse"><g class="st108"><polygon id="path-1_51_" points="1.3 140.8 175.3 140.8 175.3 .8 1.3 .8" class="st1"/></g></mask><polygon id="Fill-131" points="119.3 87.7 113.3 91.8 115 84.8" class="st109"/><defs><filter id="Adobe_OpacityMaskFilter_52_" width="2" height="2" x="112" y="89" filterUnits="userSpaceOnUse"><feColorMatrix type="matrix" values="1 0 0 0 0 0 1 0 0 0 0 0 1 0 0 0 0 0 1 0"/></filter></defs><mask id="mask-2_52_" width="2" height="2" x="112" y="89" maskUnits="userSpaceOnUse"><g class="st110"><polygon id="path-1_52_" points="0 140 174 140 174 0 0 0" class="st1"/></g></mask><polygon id="Fill-132" points="113 89 114 89.6 113 91 112 90.4" class="st111"/><defs><filter id="Adobe_OpacityMaskFilter_53_" width="47" height="67" x="111" y="28" filterUnits="userSpaceOnUse"><feColorMatrix type="matrix" values="1 0 0 0 0 0 1 0 0 0 0 0 1 0 0 0 0 0 1 0"/></filter></defs><mask id="mask-2_53_" width="47" height="67" x="111" y="28" maskUnits="userSpaceOnUse"><g class="st112"><polygon id="path-1_53_" points="0 140 174 140 174 0 0 0" class="st1"/></g></mask><path id="Fill-133" d="M118.5,87.7l38.4-56.3c0-0.1,0.1-0.2-0.1-0.5c-0.1-0.1-0.2-0.2-0.4-0.3l-1.8-1.3 c-0.5-0.3-0.6-0.2-0.7,0l-38.4,56.3L114,91L118.5,87.7z M157.5,30.3c0.6,0.7,0.7,1.6,0.2,2.3L119.2,89l-8.2,6l2.7-9.8l0.1-0.1 l38.5-56.2c0.7-1,1.7-1.1,2.8-0.4l1.8,1.3C157.1,29.9,157.3,30.1,157.5,30.3L157.5,30.3z" class="st113"/></g></g></g></g><rect width="72" height="72" x="34.6" y="-85.8" class="st0"/><rect width="89.5" height="49.3" x="157.7" y="-63.3" class="st2"/><rect width="67" height="55.3" x="-80.8" y="-69.3" class="st114"/><rect width="47.7" height="38.7" x="-13.8" y="-52.7" class="st3"/><rect width="51.6" height="35.3" x="106.1" y="-49.3" class="st5"/></svg>