<svg xmlns="http://www.w3.org/2000/svg" xmlns:xlink="http://www.w3.org/1999/xlink" width="174" height="141" version="1.1" viewBox="0 0 174 141"><title>Page 1 Copy</title><desc>Created with Sketch.</desc><defs><polygon id="path-1" points="0 140 174 140 174 0 0 0"/></defs><g id="Home" fill="none" fill-rule="evenodd" stroke="none" stroke-width="1"><g id="Mobile" transform="translate(-73.000000, -2060.000000)"><g id="Group-6" transform="translate(50.000000, 2060.000000)"><g id="Page-1-Copy" transform="translate(23.000000, 0.000000)"><g id="Group-3" fill="#3DD94A"><path id="Fill-1" d="M10.2699122,42.7761088 C10.2699122,42.7761088 22.5665332,26.3019231 51.4147645,25.7128647 C80.2626231,25.1245544 88.3023919,20.4180716 105.327938,11.5922944 C122.352366,2.76689125 161.132756,-14.2959788 171.064169,25.1245544 C180.99521,64.5458355 160.659938,75.1365438 165.38849,97.4953289 C170.118161,119.852992 160.186747,146.917886 125.66321,139.85704 C91.1404176,132.796942 79.7898051,131.619947 65.1287216,135.739241 C50.4687559,139.85704 14.9992099,137.503798 4.1221606,98.0832653 C-6.75488865,58.6623581 6.95944111,46.8946552 10.2699122,42.7761088"/></g><polygon id="Fill-4" fill="#FFF" points="147 116.744 78.713 135 53 39.256 121.287 21"/><path id="Fill-6" fill="#523C0E" d="M53.8262105,40.7211452 L79.2004349,135.178809 L146.173417,117.278855 L120.799192,22.8211914 L53.8262105,40.7211452 Z M78.1462354,137 L52,39.6696284 L121.853392,21 L148,118.330743 L78.1462354,137 Z"/><polygon id="Fill-8" fill="#4AE56C" points="90.278 131 66 40.194 66.722 40 91 130.806"/><polygon id="Fill-10" fill="#4AE56C" points="58.098 50 58 49.632 122.903 32 123 32.368"/><polygon id="Fill-12" fill="#4AE56C" points="59.098 53 59 52.632 123.903 35 124 35.368"/><polygon id="Fill-14" fill="#4AE56C" points="60.097 56 60 55.632 124.903 38 125 38.368"/><polygon id="Fill-16" fill="#4AE56C" points="60.097 59 60 58.632 124.903 41 125 41.368"/><polygon id="Fill-18" fill="#4AE56C" points="61.097 62 61 61.632 125.903 44 126 44.368"/><polygon id="Fill-20" fill="#4AE56C" points="62.097 65 62 64.632 126.903 47 127 47.368"/><polygon id="Fill-22" fill="#4AE56C" points="62.097 67 62 66.632 126.903 49 127 49.368"/><polygon id="Fill-24" fill="#4AE56C" points="63.097 70 63 69.632 127.903 52 128 52.368"/><polygon id="Fill-26" fill="#4AE56C" points="64.097 74 64 73.632 128.903 56 129 56.368"/><polygon id="Fill-28" fill="#4AE56C" points="65.098 77 65 76.632 129.903 59 130 59.368"/><polygon id="Fill-30" fill="#4AE56C" points="65.097 79 65 78.632 129.903 61 130 61.368"/><polygon id="Fill-32" fill="#4AE56C" points="66.097 82 66 81.632 130.903 64 131 64.368"/><polygon id="Fill-34" fill="#4AE56C" points="67.097 85 67 84.632 131.903 67 132 67.368"/><polygon id="Fill-36" fill="#4AE56C" points="68.097 87 68 86.632 132.903 69 133 69.368"/><polygon id="Fill-38" fill="#4AE56C" points="68.097 91 68 90.632 132.903 73 133 73.368"/><polygon id="Fill-40" fill="#4AE56C" points="69.097 94 69 93.632 133.903 76 134 76.368"/><polygon id="Fill-42" fill="#4AE56C" points="70.097 96 70 95.632 134.903 78 135 78.368"/><polygon id="Fill-44" fill="#4AE56C" points="72.098 99 72 98.632 136.903 81 137 81.368"/><polygon id="Fill-46" fill="#4AE56C" points="72.098 102 72 101.632 136.903 84 137 84.368"/><polygon id="Fill-48" fill="#4AE56C" points="73.097 106 73 105.632 137.903 88 138 88.368"/><polygon id="Fill-50" fill="#4AE56C" points="74.097 108 74 107.632 138.903 90 139 90.368"/><polygon id="Fill-52" fill="#4AE56C" points="74.097 111 74 110.632 138.903 93 139 93.368"/><polygon id="Fill-54" fill="#4AE56C" points="75.097 114 75 113.632 139.903 96 140 96.368"/><polygon id="Fill-56" fill="#4AE56C" points="76.097 116 76 115.632 140.903 98 141 98.368"/><polygon id="Fill-58" fill="#4AE56C" points="77.097 119 77 118.632 141.903 101 142 101.368"/><polygon id="Fill-60" fill="#4AE56C" points="77.098 123 77 122.632 141.903 105 142 105.368"/><polygon id="Fill-62" fill="#4AE56C" points="78.098 125 78 124.632 142.903 107 143 107.368"/><polygon id="Fill-64" fill="#4AE56C" points="79.097 128 79 127.632 143.903 110 144 110.368"/><polygon id="Fill-66" fill="#4AE56C" points="80.097 131 80 130.632 144.903 113 145 113.368"/><path id="Fill-68" fill="#FFF" d="M81.4986528,127 C80.8217442,127 80.2262147,126.542671 80.051456,125.888167 C79.8369454,125.089341 80.312844,124.265775 81.1120086,124.051731 C81.23989,124.017618 81.3703964,124 81.5009029,124 C82.1781865,124 82.773341,124.457329 82.9488497,125.111833 C83.1626103,125.910659 82.6867117,126.734225 81.8882971,126.948269 C81.7604158,126.982382 81.6299093,127 81.4986528,127"/><path id="Fill-70" fill="#1485E0" d="M82.0013305,123 C81.8297666,123 81.6558033,123.022393 81.4826398,123.068779 C80.4156647,123.354294 79.7829981,124.450765 80.0685379,125.517245 C80.3084873,126.410577 81.1159171,127 81.998931,127 C82.1700949,127 82.3444581,126.977607 82.5176216,126.931221 C83.5841968,126.645306 84.2172634,125.548835 83.9313236,124.482355 C83.692174,123.589423 82.8843443,123 82.0013305,123 M82.0013305,123.79976 L82.0013305,123.79976 C82.5424164,123.79976 83.018716,124.16565 83.1594863,124.689893 C83.3302503,125.328501 82.9495306,125.987904 82.3100654,126.158652 C82.2080869,126.186244 82.103309,126.20024 81.998931,126.20024 C81.4574451,126.20024 80.9815454,125.83435 80.841175,125.310507 C80.6700111,124.671898 81.0507309,124.012496 81.6893962,123.841348 C81.7925745,123.813756 81.8969525,123.79976 82.0013305,123.79976"/><path id="Fill-72" fill="#FFF" d="M71.4985007,88 C70.8219328,88 70.2270779,87.5426715 70.0520323,86.8881669 C69.9478297,86.501312 70.0014303,86.0972135 70.2012146,85.7504686 C70.4017486,85.4033487 70.7252267,85.1555667 71.1120511,85.0517306 C71.2398681,85.0172435 71.3703089,85 71.5014993,85 C72.1776923,85 72.7725473,85.4573285 72.9479677,86.1118331 C73.0521703,86.498688 72.9985697,86.9027865 72.7987854,87.2499063 C72.5982514,87.5966513 72.2747733,87.8448082 71.8879489,87.9482694 C71.7605067,87.9823816 71.6296911,88 71.4985007,88"/><path id="Fill-74" fill="#1485E0" d="M71.0017304,84 C70.8301666,84 70.6558033,84.0223933 70.4826398,84.0691792 C69.4156647,84.3542937 68.7829981,85.4507648 69.0685379,86.5176447 C69.3084873,87.4105768 70.1159171,88 70.998931,88 C71.1704948,88 71.3444581,87.9776067 71.5176216,87.9312206 C72.5841968,87.6453064 73.2172634,86.5488353 72.9313236,85.4823553 C72.692174,84.5894232 71.8843443,84 71.0017304,84 M71.0017304,84.7997601 L71.0017304,84.7997601 C71.5424164,84.7997601 72.018716,85.1656503 72.1594863,85.689893 C72.2422689,85.9990003 72.1994779,86.3225032 72.0391117,86.5996201 C71.8787455,86.8771369 71.6204,87.0758772 71.3100654,87.1586524 C71.2080869,87.1862441 71.103309,87.2002399 70.998931,87.2002399 C70.4574451,87.2002399 69.9815454,86.8343497 69.841175,86.3105068 C69.7583925,86.0013996 69.8007836,85.6774968 69.9611497,85.39998 C70.1215159,85.1228631 70.3798615,84.9245226 70.6893962,84.8413476 C70.7925745,84.8137559 70.8969525,84.7997601 71.0017304,84.7997601"/><path id="Fill-76" fill="#FFF" d="M61.4988742,50 C60.8216021,50 60.2260827,49.5422966 60.051327,48.8881669 C59.8371951,48.0889666 60.3127105,47.2657753 61.1118616,47.0517306 C61.2401157,47.0172435 61.370245,47 61.5011242,47 C62.1783963,47 62.7735407,47.4573285 62.9486714,48.1118331 C63.1628033,48.9106585 62.6872879,49.7345995 61.8885119,49.9478945 C61.7606327,49.9827565 61.6297534,50 61.4988742,50"/><path id="Fill-78" fill="#52370D" d="M62.0014612,47 C61.8299063,47 61.6555521,47.0223933 61.4827976,47.0691792 C60.4158781,47.3542937 59.7832444,48.4507648 60.0683695,49.5176447 C60.3083064,50.4105768 61.1156941,51 61.9990618,51 C62.1702168,51 62.3441711,50.9776067 62.5177254,50.9312206 C63.5838451,50.6453064 64.2172786,49.5488353 63.9313537,48.4823553 C63.6922166,47.5894232 62.8840291,47 62.0014612,47 M62.0014612,47.7997601 L62.0014612,47.7997601 C62.5425189,47.7997601 63.0183938,48.1656503 63.1591568,48.689893 C63.3299119,49.3285014 62.9496119,49.9879036 62.31018,50.1586524 C62.2082068,50.1862441 62.1030345,50.2002399 61.9990618,50.2002399 C61.4580041,50.2002399 60.9813294,49.8347496 60.8413662,49.3105068 C60.758588,49.0013996 60.8009768,48.6774968 60.9609348,48.39998 C61.1212926,48.1228631 61.3796247,47.9245226 61.6891433,47.8409477 C61.7923162,47.8137559 61.8966887,47.7997601 62.0014612,47.7997601"/><mask id="mask-2" fill="#fff"><use xlink:href="#path-1"/></mask><polygon id="Fill-80" fill="#FFF" points="65 129 137 129 137 30 65 30" mask="url(#mask-2)"/><path id="Fill-82" fill="#543C11" d="M65.5051546,128.509225 L135.494845,128.509225 L135.494845,30.4907749 L65.5051546,30.4907749 L65.5051546,128.509225 Z M64,130 L137,130 L137,29 L64,29 L64,130 Z" mask="url(#mask-2)"/><polygon id="Fill-83" fill="#83DB9B" points="77 127 78 127 78 33 77 33" mask="url(#mask-2)"/><polygon id="Fill-84" fill="#83DB9B" points="67 40.5 133 40.5 133 40 67 40" mask="url(#mask-2)"/><polygon id="Fill-85" fill="#83DB9B" points="67 43.5 133 43.5 133 43 67 43" mask="url(#mask-2)"/><polygon id="Fill-86" fill="#83DB9B" points="67 46.5 133 46.5 133 46 67 46" mask="url(#mask-2)"/><polygon id="Fill-87" fill="#83DB9B" points="67 48.5 133 48.5 133 48 67 48" mask="url(#mask-2)"/><polygon id="Fill-88" fill="#83DB9B" points="67 51.5 133 51.5 133 51 67 51" mask="url(#mask-2)"/><polygon id="Fill-89" fill="#83DB9B" points="67 54.5 133 54.5 133 54 67 54" mask="url(#mask-2)"/><polygon id="Fill-90" fill="#83DB9B" points="67 58.5 133 58.5 133 58 67 58" mask="url(#mask-2)"/><polygon id="Fill-91" fill="#83DB9B" points="67 61.5 133 61.5 133 61 67 61" mask="url(#mask-2)"/><polygon id="Fill-92" fill="#83DB9B" points="67 64.5 133 64.5 133 64 67 64" mask="url(#mask-2)"/><polygon id="Fill-93" fill="#83DB9B" points="67 66.5 133 66.5 133 66 67 66" mask="url(#mask-2)"/><polygon id="Fill-94" fill="#83DB9B" points="67 69.5 133 69.5 133 69 67 69" mask="url(#mask-2)"/><polygon id="Fill-95" fill="#83DB9B" points="67 73.5 133 73.5 133 73 67 73" mask="url(#mask-2)"/><polygon id="Fill-96" fill="#83DB9B" points="67 76.5 133 76.5 133 76 67 76" mask="url(#mask-2)"/><polygon id="Fill-97" fill="#83DB9B" points="67 79.5 133 79.5 133 79 67 79" mask="url(#mask-2)"/><polygon id="Fill-98" fill="#83DB9B" points="67 81.5 133 81.5 133 81 67 81" mask="url(#mask-2)"/><polygon id="Fill-99" fill="#83DB9B" points="67 84.5 133 84.5 133 84 67 84" mask="url(#mask-2)"/><polygon id="Fill-100" fill="#83DB9B" points="67 88.5 133 88.5 133 88 67 88" mask="url(#mask-2)"/><polygon id="Fill-101" fill="#83DB9B" points="67 91.5 133 91.5 133 91 67 91" mask="url(#mask-2)"/><polygon id="Fill-102" fill="#83DB9B" points="67 94.5 133 94.5 133 94 67 94" mask="url(#mask-2)"/><polygon id="Fill-103" fill="#83DB9B" points="67 96.5 133 96.5 133 96 67 96" mask="url(#mask-2)"/><polygon id="Fill-104" fill="#83DB9B" points="67 99.5 133 99.5 133 99 67 99" mask="url(#mask-2)"/><polygon id="Fill-105" fill="#83DB9B" points="67 103.5 133 103.5 133 103 67 103" mask="url(#mask-2)"/><polygon id="Fill-106" fill="#83DB9B" points="67 105.5 133 105.5 133 105 67 105" mask="url(#mask-2)"/><polygon id="Fill-107" fill="#83DB9B" points="67 108.5 133 108.5 133 108 67 108" mask="url(#mask-2)"/><polygon id="Fill-108" fill="#83DB9B" points="67 111.5 133 111.5 133 111 67 111" mask="url(#mask-2)"/><polygon id="Fill-109" fill="#83DB9B" points="67 114.5 133 114.5 133 114 67 114" mask="url(#mask-2)"/><polygon id="Fill-110" fill="#83DB9B" points="133 116.5 67 116.5 67 116" mask="url(#mask-2)"/><polygon id="Fill-111" fill="#83DB9B" points="67 130.5 133 130.5 133 130 67 130" mask="url(#mask-2)"/><polygon id="Fill-112" fill="#83DB9B" points="67 133.5 133 133.5 133 133 67 133" mask="url(#mask-2)"/><path id="Fill-113" fill="#FFF" d="M70.5,120 C69.673125,120 69,119.32725 69,118.5 C69,117.67275 69.673125,117 70.5,117 C71.327625,117 72,117.67275 72,118.5 C72,119.32725 71.327625,120 70.5,120" mask="url(#mask-2)"/><path id="Fill-114" fill="#4D3C10" d="M70,116 C68.896,116 68,116.8956 68,118 C68,119.1044 68.896,120 70,120 C71.1048,120 72,119.1044 72,118 C72,116.8956 71.1048,116 70,116 M70,116.8 C70.6616,116.8 71.2,117.3384 71.2,118 C71.2,118.6616 70.6616,119.2 70,119.2 C69.3388,119.2 68.8,118.6616 68.8,118 C68.8,117.3384 69.3388,116.8 70,116.8" mask="url(#mask-2)"/><path id="Fill-115" fill="#FFF" d="M70.5,81 C69.673125,81 69,80.32725 69,79.5 C69,78.67275 69.673125,78 70.5,78 C71.327625,78 72,78.67275 72,79.5 C72,80.32725 71.327625,81 70.5,81" mask="url(#mask-2)"/><path id="Fill-116" fill="#52370D" d="M70,77 C68.896,77 68,77.8956 68,79 C68,80.1048 68.896,81 70,81 C71.1048,81 72,80.1048 72,79 C72,77.8956 71.1048,77 70,77 M70,77.8 C70.6616,77.8 71.2,78.3384 71.2,79 C71.2,79.6616 70.6616,80.2 70,80.2 C69.3388,80.2 68.8,79.6616 68.8,79 C68.8,78.3384 69.3388,77.8 70,77.8" mask="url(#mask-2)"/><path id="Fill-117" fill="#FFF" d="M70.5,41 C69.673125,41 69,40.32725 69,39.5 C69,38.67275 69.673125,38 70.5,38 C71.327625,38 72,38.67275 72,39.5 C72,40.32725 71.327625,41 70.5,41" mask="url(#mask-2)"/><path id="Fill-118" fill="#52370D" d="M70,37 C68.896,37 68,37.8956 68,39 C68,40.1048 68.896,41 70,41 C71.1048,41 72,40.1048 72,39 C72,37.8956 71.1048,37 70,37 M70,37.8 C70.6616,37.8 71.2,38.3384 71.2,39 C71.2,39.6616 70.6616,40.2 70,40.2 C69.3388,40.2 68.8,39.6616 68.8,39 C68.8,38.3384 69.3388,37.8 70,37.8" mask="url(#mask-2)"/><path id="Fill-119" fill="#FFF" d="M47.3185147,76 L45.1520491,77.6303548 C44.9822525,77.7580197 44.9487604,77.9904447 45.0815602,78.1537806 L54.2240995,89.4457339 C54.756856,90.1035832 55.6993056,90.1749253 56.377324,89.6646415 L61,86.1857752" mask="url(#mask-2)"/><path id="Fill-120" fill="#4D3A09" d="M56.4080993,89.6822061 C55.5964413,90.2219817 54.5479561,90.0638113 53.9547638,89.2863961 L45.1576803,77.7407245 C45.0336458,77.578715 44.9800599,77.376779 45.0066655,77.1729235 C45.0325216,76.972907 45.1333231,76.7928538 45.2899588,76.6676996 L47.3756875,75 L47.8369761,75.6050402 L45.7519968,77.2727398 L54.545333,88.8138045 C54.9215586,89.3067433 55.5870732,89.3743112 56.0910805,88.9712071 L60.5390862,85.4146764 L61,86.0201005 L56.5523691,89.5766311 C56.5055283,89.6146381 56.4571885,89.6499577 56.4080993,89.6822061" mask="url(#mask-2)"/><path id="Fill-121" fill="#B0DB83" d="M56,87.4289734 L86.8209725,127.543021 C86.9456886,127.705757 87.1592787,127.764461 87.318374,127.638507 L87.6314444,127.390317 L88.7524265,128.849739 C88.8771426,129.011732 89.1024362,129.051487 89.2611658,128.925905 L91.8564313,126.868298 C92.0151609,126.742345 92.0488087,126.496383 91.9244583,126.334762 L90.8027448,124.87534 L91.0664407,124.666532 C91.2255361,124.540208 91.2705216,124.27604 91.1461713,124.114419 L60.3241015,84 L56,87.4289734 Z" mask="url(#mask-2)"/><path id="Fill-122" fill="#4D3C10" d="M85.9937724,124.587387 L87.3515363,126.352023 L89.3832133,124.744891 L88.0243453,122.979882 L88.6044038,122.520435 L58.2588046,83.0953178 L55.0666425,85.6217172 L85.4133458,125.046088 L85.9937724,124.587387 Z M87.8808029,127.821432 C87.4015921,128.137186 86.7707416,128.02447 86.4137259,127.560171 L85.7048473,126.638664 C85.273484,126.792808 84.7755023,126.645755 84.4696466,126.247518 L53,85.3630682 L58.5123962,81 L89.9827789,121.885196 C90.1664395,122.122571 90.2444677,122.437205 90.1969883,122.748479 C90.1738007,122.901504 90.1208004,123.047437 90.0438764,123.176948 L90.7663731,124.115624 C91.1421598,124.603436 91.0556663,125.314441 90.5713027,125.698869 L87.8808029,127.821432 Z" mask="url(#mask-2)"/><path id="Fill-123" fill="#3ACA44" d="M56.7050233,88 L45.0787276,72.6033223 C44.9552252,72.4399793 44.9788359,72.2154295 45.1368463,72.0873836 L48.85899,69.0837491 C49.0173636,68.9568297 49.2509284,68.9737272 49.3740675,69.1374458 L61,84.534499" mask="url(#mask-2)"/><path id="Fill-124" fill="#4D3C10" d="M56.3396733,88 L44.2443057,72.765936 C43.8554369,72.2755213 43.9393328,71.5941421 44.4351499,71.2129561 L48.3079652,68.2407458 C48.8075614,67.8584452 49.5221881,67.9405525 49.9042545,68.4224221 L62,83.6568577 L60.8084517,84.5708123 L48.9492774,69.6343409 L45.6720473,72.1492023 L57.5312216,87.0853023 L56.3396733,88 Z" mask="url(#mask-2)"/><polygon id="Fill-125" fill="#4D3C10" points="57.428 88 57 87.342 60.572 84 61 84.659" mask="url(#mask-2)"/><polygon id="Fill-126" fill="#4D3A09" points="46.429 76 46 75.342 49.571 72 50 72.658" mask="url(#mask-2)"/><path id="Fill-127" fill="#74E270" d="M154.284814,28.3447405 L156.119734,29.6239915 C156.795953,30.0949577 157.280663,30.8260659 156.816737,31.5119974 L118.345023,88.2880795 L112,93 L114.063172,85.3030349 L152.534885,28.5261999 C152.998811,27.8402684 153.608967,27.8741508 154.284814,28.3447405" mask="url(#mask-2)"/><polygon id="Fill-128" fill="#4D3A09" points="150 38.422 116.615 87 116 86.577 149.386 38" mask="url(#mask-2)"/><polygon id="Fill-129" fill="#4D3A09" points="149 37.422 115.615 86 115 85.577 148.386 37" mask="url(#mask-2)"/><polygon id="Fill-130" fill="#4D3A09" points="117 86.324 116.638 87 114 84.676 114.362 84" mask="url(#mask-2)"/><polygon id="Fill-131" fill="#FFF" points="118 86.953 112 91 113.664 84" mask="url(#mask-2)"/><polygon id="Fill-132" fill="#4D3A09" points="113.015 89 114 89.629 112.985 91 112 90.372" mask="url(#mask-2)"/><path id="Fill-133" fill="#4D3A09" d="M118.534065,87.6542485 L156.948865,31.3187539 C156.994904,31.2510155 157.080669,31.1248949 156.81966,30.8168911 C156.722385,30.7019979 156.592437,30.5871046 156.443182,30.4830645 L154.607206,29.2113795 C154.113775,28.8693195 154.024297,29.0003053 153.889151,29.1986552 L115.474351,85.534524 L114,91 L118.534065,87.6542485 Z M157.463475,30.3333106 C158.089394,31.0699097 158.172875,31.9351806 157.686461,32.6467913 L119.155132,88.9986752 L111,95 L113.651345,85.195959 L113.723324,85.0915297 L152.183046,28.844075 C152.849778,27.8691534 153.889019,27.7300387 154.96425,28.4722323 L156.798969,29.7403017 C157.05646,29.9182043 157.280189,30.1177388 157.463475,30.3333106 L157.463475,30.3333106 Z" mask="url(#mask-2)"/></g></g></g></g></svg>