<svg xmlns="http://www.w3.org/2000/svg" xmlns:xlink="http://www.w3.org/1999/xlink" id="Layer_1" x="0" y="0" version="1.1" viewBox="0 0 174 141" xml:space="preserve" style="enable-background:new 0 0 174 141"><style type="text/css">.st0{fill:#ffc63a}.st1{fill:#fff}.st2{fill:#45555f}.st3{fill:#ffd161}.st4{fill:#1485e0}.st5{fill:#ffe29c}.st6{fill:#b0b7bb}.st7{fill:#4d3a09}</style><title>Page 1 Copy</title><desc>Created with Sketch.</desc><g id="Home"><g id="Mobile" transform="translate(-73.000000, -2060.000000)"><g id="Group-6" transform="translate(50.000000, 2060.000000)"><g id="Page-1-Copy" transform="translate(23.000000, 0.000000)"><g id="Group-3"><g><g><path id="Fill-1_9_" d="M10.3,42.8c0,0,12.3-16.5,41.1-17.1s36.9-5.3,53.9-14.1s55.8-25.9,65.7,13.5 s-10.4,50-5.7,72.4s-5.2,49.4-39.7,42.4c-34.5-7.1-45.9-8.2-60.5-4.1c-14.7,4.1-50.1,1.8-61-37.7C-6.8,58.7,7,46.9,10.3,42.8" class="st0"/></g></g></g><polygon id="Fill-4" points="147 117.2 78.7 135.5 53 39.8 121.3 21.5" class="st1"/><path id="Fill-6" d="M53.8,40.7l25.4,94.5l67-17.9l-25.4-94.5L53.8,40.7z M78.1,137L52,39.7L121.9,21l26.1,97.3 L78.1,137z" class="st2"/><polygon id="Fill-8" points="90.3 131 66 40.2 66.7 40 91 130.8" class="st3"/><polygon id="Fill-10" points="58.1 50 58 49.6 122.9 32 123 32.4" class="st3"/><polygon id="Fill-12" points="59.1 53 59 52.6 123.9 35 124 35.4" class="st3"/><polygon id="Fill-14" points="60.1 56 60 55.6 124.9 38 125 38.4" class="st3"/><polygon id="Fill-16" points="60.1 59 60 58.6 124.9 41 125 41.4" class="st3"/><polygon id="Fill-18" points="61.1 62 61 61.6 125.9 44 126 44.4" class="st3"/><polygon id="Fill-20" points="62.1 65 62 64.6 126.9 47 127 47.4" class="st3"/><polygon id="Fill-22" points="62.1 67 62 66.6 126.9 49 127 49.4" class="st3"/><polygon id="Fill-24" points="63.1 70 63 69.6 127.9 52 128 52.4" class="st3"/><polygon id="Fill-26" points="64.1 74 64 73.6 128.9 56 129 56.4" class="st3"/><polygon id="Fill-28" points="65.1 77 65 76.6 129.9 59 130 59.4" class="st3"/><polygon id="Fill-30" points="65.1 79 65 78.6 129.9 61 130 61.4" class="st3"/><polygon id="Fill-32" points="66.1 82 66 81.6 130.9 64 131 64.4" class="st3"/><polygon id="Fill-34" points="67.1 85 67 84.6 131.9 67 132 67.4" class="st3"/><polygon id="Fill-36" points="68.1 87 68 86.6 132.9 69 133 69.4" class="st3"/><polygon id="Fill-38" points="68.1 91 68 90.6 132.9 73 133 73.4" class="st3"/><polygon id="Fill-40" points="69.1 94 69 93.6 133.9 76 134 76.4" class="st3"/><polygon id="Fill-42" points="70.1 96 70 95.6 134.9 78 135 78.4" class="st3"/><polygon id="Fill-44" points="72.1 99 72 98.6 136.9 81 137 81.4" class="st3"/><polygon id="Fill-46" points="72.1 102 72 101.6 136.9 84 137 84.4" class="st3"/><polygon id="Fill-48" points="73.1 106 73 105.6 137.9 88 138 88.4" class="st3"/><polygon id="Fill-50" points="74.1 108 74 107.6 138.9 90 139 90.4" class="st3"/><polygon id="Fill-52" points="74.1 111 74 110.6 138.9 93 139 93.4" class="st3"/><polygon id="Fill-54" points="75.1 114 75 113.6 139.9 96 140 96.4" class="st3"/><polygon id="Fill-56" points="76.1 116 76 115.6 140.9 98 141 98.4" class="st3"/><polygon id="Fill-58" points="77.1 119 77 118.6 141.9 101 142 101.4" class="st3"/><polygon id="Fill-60" points="77.1 122 77 121.6 141.9 104 142 104.4" class="st3"/><polygon id="Fill-62" points="78.1 125 78 124.6 142.9 107 143 107.4" class="st3"/><polygon id="Fill-64" points="79.1 128 79 127.6 143.9 110 144 110.4" class="st3"/><polygon id="Fill-66" points="80.1 131 80 130.6 144.9 113 145 113.4" class="st3"/><path id="Fill-68" d="M81.5,127c-0.7,0-1.3-0.5-1.4-1.1c-0.2-0.8,0.3-1.6,1.1-1.8c0.1,0,0.3-0.1,0.4-0.1 c0.7,0,1.3,0.5,1.4,1.1c0.2,0.8-0.3,1.6-1.1,1.8C81.8,127,81.6,127,81.5,127" class="st1"/><path id="Fill-70" d="M82,123c-0.2,0-0.3,0-0.5,0.1c-1.1,0.3-1.7,1.4-1.4,2.4c0.2,0.9,1,1.5,1.9,1.5 c0.2,0,0.3,0,0.5-0.1c1.1-0.3,1.7-1.4,1.4-2.4C83.7,123.6,82.9,123,82,123 M82,123.8L82,123.8c0.5,0,1,0.4,1.2,0.9 c0.2,0.6-0.2,1.3-0.8,1.5c-0.1,0-0.2,0-0.3,0c-0.5,0-1-0.4-1.2-0.9c-0.2-0.6,0.2-1.3,0.8-1.5C81.8,123.8,81.9,123.8,82,123.8" class="st4"/><path id="Fill-72" d="M71.5,88c-0.7,0-1.3-0.5-1.4-1.1c-0.1-0.4-0.1-0.8,0.1-1.1c0.2-0.3,0.5-0.6,0.9-0.7 c0.1,0,0.3-0.1,0.4-0.1c0.7,0,1.3,0.5,1.4,1.1c0.1,0.4,0.1,0.8-0.1,1.1c-0.2,0.3-0.5,0.6-0.9,0.7C71.8,88,71.6,88,71.5,88" class="st1"/><path id="Fill-74" d="M71,84c-0.2,0-0.3,0-0.5,0.1c-1.1,0.3-1.7,1.4-1.4,2.4c0.2,0.9,1,1.5,1.9,1.5 c0.2,0,0.3,0,0.5-0.1c1.1-0.3,1.7-1.4,1.4-2.4C72.7,84.6,71.9,84,71,84 M71,84.8L71,84.8c0.5,0,1,0.4,1.2,0.9 c0.1,0.3,0,0.6-0.1,0.9c-0.2,0.3-0.4,0.5-0.7,0.6c-0.1,0-0.2,0-0.3,0c-0.5,0-1-0.4-1.2-0.9c-0.1-0.3,0-0.6,0.1-0.9 c0.2-0.3,0.4-0.5,0.7-0.6C70.8,84.8,70.9,84.8,71,84.8" class="st4"/><path id="Fill-76" d="M62,50.5c-0.7,0-1.3-0.5-1.4-1.1c-0.2-0.8,0.3-1.6,1.1-1.8c0.1,0,0.3-0.1,0.4-0.1 c0.7,0,1.3,0.5,1.4,1.1c0.2,0.8-0.3,1.6-1.1,1.8C62.3,50.5,62.1,50.5,62,50.5" class="st0"/><path id="Fill-78" d="M62,47c-0.2,0-0.3,0-0.5,0.1c-1.1,0.3-1.7,1.4-1.4,2.4c0.2,0.9,1,1.5,1.9,1.5 c0.2,0,0.3,0,0.5-0.1c1.1-0.3,1.7-1.4,1.4-2.4C63.7,47.6,62.9,47,62,47 M62,47.8L62,47.8c0.5,0,1,0.4,1.2,0.9 c0.2,0.6-0.2,1.3-0.8,1.5c-0.1,0-0.2,0-0.3,0c-0.5,0-1-0.4-1.2-0.9c-0.1-0.3,0-0.6,0.1-0.9c0.2-0.3,0.4-0.5,0.7-0.6 C61.8,47.8,61.9,47.8,62,47.8" class="st5"/><polygon id="Fill-80" points="65 129 137 129 137 30 65 30" class="st1"/><path id="Fill-82" d="M65.5,128.5h70v-98h-70V128.5z M64,130h73V29H64V130z" class="st2"/><polygon id="Fill-83" points="77 127 78 127 78 33 77 33" class="st3"/><polygon id="Fill-84" points="67 39.5 133 39.5 133 39 67 39" class="st3"/><polygon id="Fill-85" points="67 42.4 133 42.4 133 41.9 67 41.9" class="st3"/><polygon id="Fill-86" points="67 45.3 133 45.3 133 44.8 67 44.8" class="st3"/><polygon id="Fill-87" points="67 48.3 133 48.3 133 47.8 67 47.8" class="st3"/><polygon id="Fill-88" points="67 51.2 133 51.2 133 50.7 67 50.7" class="st3"/><polygon id="Fill-89" points="67 54.1 133 54.1 133 53.6 67 53.6" class="st3"/><polygon id="Fill-90" points="67 57 133 57 133 56.5 67 56.5" class="st3"/><polygon id="Fill-91" points="67 60 133 60 133 59.5 67 59.5" class="st3"/><polygon id="Fill-92" points="67 62.9 133 62.9 133 62.4 67 62.4" class="st3"/><polygon id="Fill-93" points="67 65.8 133 65.8 133 65.3 67 65.3" class="st3"/><polygon id="Fill-94" points="67 68.7 133 68.7 133 68.2 67 68.2" class="st3"/><polygon id="Fill-95" points="67 71.6 133 71.6 133 71.1 67 71.1" class="st3"/><polygon id="Fill-96" points="67 74.6 133 74.6 133 74.1 67 74.1" class="st3"/><polygon id="Fill-97" points="67 77.5 133 77.5 133 77 67 77" class="st3"/><polygon id="Fill-98" points="67 80.4 133 80.4 133 79.9 67 79.9" class="st3"/><polygon id="Fill-99" points="67 83.3 133 83.3 133 82.8 67 82.8" class="st3"/><polygon id="Fill-100" points="67 86.3 133 86.3 133 85.8 67 85.8" class="st3"/><polygon id="Fill-101" points="67 89.2 133 89.2 133 88.7 67 88.7" class="st3"/><polygon id="Fill-102" points="67 92.1 133 92.1 133 91.6 67 91.6" class="st3"/><polygon id="Fill-103" points="67 95 133 95 133 94.5 67 94.5" class="st3"/><polygon id="Fill-104" points="67 97.9 133 97.9 133 97.4 67 97.4" class="st3"/><polygon id="Fill-105" points="67 100.9 133 100.9 133 100.4 67 100.4" class="st3"/><polygon id="Fill-109_1_" points="67 115.5 133 115.5 133 115 67 115" class="st3"/><polygon id="Fill-106" points="67 103.8 133 103.8 133 103.3 67 103.3" class="st3"/><polygon id="Fill-107" points="67 106.7 133 106.7 133 106.2 67 106.2" class="st3"/><polygon id="Fill-108" points="67 109.6 133 109.6 133 109.1 67 109.1" class="st3"/><polygon id="Fill-109" points="67 112.6 133 112.6 133 112.1 67 112.1" class="st3"/><polygon id="Fill-111" points="67 118.4 133 118.4 133 117.9 67 117.9" class="st3"/><polygon id="Fill-112" points="67 121.3 133 121.3 133 120.8 67 120.8" class="st3"/><path id="Fill-113" d="M70,119.5c-0.8,0-1.5-0.7-1.5-1.5s0.7-1.5,1.5-1.5s1.5,0.7,1.5,1.5S70.8,119.5,70,119.5" class="st0"/><polygon id="Fill-109_4_" points="67 124.3 133 124.3 133 123.8 67 123.8" class="st3"/><path id="Fill-114" d="M70,116c-1.1,0-2,0.9-2,2s0.9,2,2,2s2-0.9,2-2S71.1,116,70,116 M70,116.8 c0.7,0,1.2,0.5,1.2,1.2s-0.5,1.2-1.2,1.2s-1.2-0.5-1.2-1.2S69.3,116.8,70,116.8" class="st5"/><path id="Fill-115" d="M70,80.5c-0.8,0-1.5-0.7-1.5-1.5s0.7-1.5,1.5-1.5s1.5,0.7,1.5,1.5S70.8,80.5,70,80.5" class="st1"/><path id="Fill-116" d="M70,77c-1.1,0-2,0.9-2,2s0.9,2,2,2s2-0.9,2-2S71.1,77,70,77 M70,77.8c0.7,0,1.2,0.5,1.2,1.2 s-0.5,1.2-1.2,1.2s-1.2-0.5-1.2-1.2S69.3,77.8,70,77.8" class="st5"/><path id="Fill-117" d="M70,40.5c-0.8,0-1.5-0.7-1.5-1.5s0.7-1.5,1.5-1.5s1.5,0.7,1.5,1.5S70.8,40.5,70,40.5" class="st1"/><path id="Fill-118" d="M70,37c-1.1,0-2,0.9-2,2s0.9,2,2,2s2-0.9,2-2S71.1,37,70,37 M70,37.8c0.7,0,1.2,0.5,1.2,1.2 s-0.5,1.2-1.2,1.2s-1.2-0.5-1.2-1.2S69.3,37.8,70,37.8" class="st5"/><path id="Fill-119" d="M47.3,76.1c-1.4,0.2-2.2,1.6-2.2,1.6c-0.2,0.1-0.2,0.4-0.1,0.5l9.1,11.3 c0.5,0.7,1.5,0.7,2.2,0.2l4.6-3.5" class="st1"/><path id="Fill-120" d="M55.9,90.2c-0.8,0.5-1.9,0.4-2.5-0.4l-8.8-11.5c-0.1-0.2-0.2-0.4-0.2-0.6s0.1-0.4,0.3-0.5 l2.1-1.7l0.5,0.6l-2.1,1.7L54,89.3c0.4,0.5,1,0.6,1.5,0.2l4.4-3.6l0.5,0.6L55.9,90.2C56,90.1,56,90.1,55.9,90.2" class="st5"/><path id="Fill-121" d="M56,87.4l30.8,40.1c0.1,0.2,0.3,0.2,0.5,0.1l0.3-0.2l1.1,1.5c0.1,0.2,0.4,0.2,0.5,0.1 l2.6-2.1c0.2-0.1,0.2-0.4,0.1-0.5l-1.1-1.5l0.3-0.2c0.2-0.1,0.2-0.4,0.1-0.6L60.3,84L56,87.4z" class="st6"/><path id="Fill-122" d="M86,124.6l1.4,1.8l2-1.6L88,123l0.6-0.5L58.3,83.1l-3.2,2.5L85.4,125L86,124.6z M87.9,127.8 c-0.5,0.3-1.1,0.2-1.5-0.3l-0.7-0.9c-0.4,0.2-0.9,0-1.2-0.4L53,85.4l5.5-4.4L90,121.9c0.2,0.2,0.3,0.6,0.2,0.9 c0,0.2-0.1,0.3-0.2,0.4l0.7,0.9c0.4,0.5,0.3,1.2-0.2,1.6L87.9,127.8z" class="st5"/><path id="Fill-123" d="M56.5,88L44.9,72.6c-0.1-0.2-0.1-0.4,0.1-0.5l3.7-3c0.2-0.1,0.4-0.1,0.5,0.1l11.6,15.4" class="st0"/><path id="Fill-124" d="M55.8,89L43.7,73.8c-0.4-0.5-0.3-1.2,0.2-1.6l3.9-3c0.5-0.4,1.2-0.3,1.6,0.2l12.1,15.2 l-1.2,0.9L48.4,70.6l-3.3,2.5l11.9,15L55.8,89z" class="st5"/><polygon id="Fill-125" points="56.9 88.5 56.5 87.8 60.1 84.5 60.5 85.2" class="st5"/><polygon id="Fill-126" points="46.3 77 45.9 76.3 49.5 73 49.9 73.7" class="st5"/><path id="Fill-127" d="M154.3,28.3l1.8,1.3c0.7,0.5,1.2,1.2,0.7,1.9l-38.5,56.8L112,93l2.1-7.7l38.5-56.8 C153,27.8,153.6,27.9,154.3,28.3" class="st7"/><polygon id="Fill-128" points="150 38.4 116.6 87 116 86.6 149.4 38" class="st2"/><polygon id="Fill-129" points="149 37.4 115.6 86 115 85.6 148.4 37" class="st5"/><polygon id="Fill-130" points="117 86.3 116.6 87 114 84.7 114.4 84" class="st7"/><polygon id="Fill-131" points="119.3 87.7 113.3 91.8 115 84.8" class="st1"/><polygon id="Fill-132" points="113 89 114 89.6 113 91 112 90.4" class="st7"/><path id="Fill-133" d="M118.5,87.7l38.4-56.3c0-0.1,0.1-0.2-0.1-0.5c-0.1-0.1-0.2-0.2-0.4-0.3l-1.8-1.3 c-0.5-0.3-0.6-0.2-0.7,0l-38.4,56.3L114,91L118.5,87.7z M157.5,30.3c0.6,0.7,0.7,1.6,0.2,2.3L119.2,89l-8.2,6l2.7-9.8l0.1-0.1 l38.5-56.2c0.7-1,1.7-1.1,2.8-0.4l1.8,1.3C157.1,29.9,157.3,30.1,157.5,30.3L157.5,30.3z" class="st2"/></g></g></g></g><rect width="89.5" height="49.3" x="157.7" y="-63.3" class="st2"/><rect width="67" height="55.3" x="-80.8" y="-69.3" class="st6"/><rect width="47.7" height="38.7" x="-14.8" y="-65.1" class="st3"/><rect width="51.6" height="35.3" x="105.1" y="-61.7" class="st5"/><rect width="72" height="72" x="33.5" y="-88.7" class="st0"/></svg>