<svg xmlns="http://www.w3.org/2000/svg" width="100%" height="100%" fill="none" viewBox="0 0 660 467"><defs><style type="text/css">@import url(/_static/css/survey-2021-svg.css);</style><radialGradient id="paint0_radial_81_223" cx="0" cy="0" r="1" gradientTransform="translate(327.5 253.5) scale(163.5)" gradientUnits="userSpaceOnUse"><stop stop-opacity="0"/><stop offset="1"/></radialGradient></defs><title>Role categorization - minor grouping (2021)</title><desc>Donut chart showing role categorization of the 15% of total respondendents who did not place themselves in the writer, content creator, producer or editor role</desc><g class="donut-chart"><g class="data"><path fill="#1E73BE" stroke="#fff" stroke-width="2" d="M327.036 89.6203C370.156 89.6116 411.543 106.59 442.234 136.878C472.925 167.167 490.449 208.327 491.009 251.443C491.57 294.559 475.122 336.161 445.229 367.237C415.336 398.313 374.404 416.361 331.298 417.474L328.761 319.134C346.003 318.689 362.376 311.47 374.333 299.039C386.291 286.609 392.87 269.968 392.645 252.722C392.421 235.475 385.412 219.011 373.135 206.896C360.859 194.781 344.304 187.989 327.056 187.993L327.036 89.6203Z"/><path fill="#7271C9" stroke="#fff" stroke-width="2" d="M331.134 417.478C297.267 418.318 263.971 408.646 235.824 389.792C207.677 370.938 186.062 343.827 173.951 312.188L265.822 277.02C270.666 289.675 279.312 300.52 290.571 308.061C301.83 315.603 315.148 319.472 328.695 319.136L331.134 417.478Z"/><path fill="#C066C0" stroke="#fff" stroke-width="2" d="M173.892 312.035C165.293 289.504 161.77 265.353 163.575 241.304C165.38 217.256 172.468 193.901 184.334 172.906L269.975 221.307C265.229 229.705 262.394 239.047 261.672 248.666C260.95 258.286 262.359 267.946 265.798 276.959L173.892 312.035Z"/><path fill="#F35DA3" stroke="#fff" stroke-width="2" d="M184.414 172.763C197.488 149.683 215.967 130.12 238.265 115.753L291.548 198.446C282.628 204.193 275.237 212.018 270.007 221.25L184.414 172.763Z"/><path fill="#FF6478" stroke="#fff" stroke-width="2" d="M238.403 115.664C250.51 107.88 263.59 101.724 277.305 97.3551L307.164 191.087C301.678 192.834 296.446 195.297 291.603 198.41L238.403 115.664Z"/><path fill="#FF8541" stroke="#fff" stroke-width="2" d="M277.462 97.3054C286.531 94.4263 295.834 92.3423 305.264 91.0768L318.347 188.575C314.575 189.081 310.854 189.915 307.226 191.067L277.462 97.3054Z"/><path fill="#FFA600" stroke="#fff" stroke-width="2" d="M305.427 91.055C312.526 90.1096 319.68 89.6304 326.842 89.6205L326.978 187.993C324.113 187.997 321.252 188.188 318.412 188.567L305.427 91.055Z"/><path stroke="#1E73BE" d="M514.479 251.261C511.126 251.261 493.692 251.48 492.351 251.497L491.01 251.514"/><path stroke="#7271C9" d="M221.212 406.463C224.565 406.463 234.274 391.982 235.02 390.868L235.767 389.754"/><path stroke="#C066C0" d="M140.168 239.709C143.521 239.709 160.907 241.022 162.244 241.123L163.581 241.224"/><path stroke="#F35DA3" d="M189.931 127.148C193.284 127.148 205.956 139.123 206.93 140.044L207.905 140.965"/><path stroke="#FF6478" d="M175 77.7744C180.724 80.1292 251.298 104.932 251.848 106.365L252.398 107.798"/><path stroke="#FF8541" d="M220.5 40C225.297 42.887 280.953 82.1978 280.606 83.7217L288.824 93.3818"/><path stroke="#FFA600" d="M311.581 69.5033C314.934 69.5033 316.084 87.3006 316.172 88.6388L316.261 89.977"/><g style="mix-blend-mode:color-burn" opacity=".5"><path fill="url(#paint0_radial_81_223)" fill-opacity=".25" fill-rule="evenodd" d="M327.5 417C417.799 417 491 343.799 491 253.5C491 163.201 417.799 90 327.5 90C237.201 90 164 163.201 164 253.5C164 343.799 237.201 417 327.5 417ZM325.554 320.652C362.103 320.652 391.732 291.023 391.732 254.473C391.732 217.924 362.103 188.295 325.554 188.295C289.004 188.295 259.375 217.924 259.375 254.473C259.375 291.023 289.004 320.652 325.554 320.652Z" clip-rule="evenodd" style="mix-blend-mode:multiply"/></g></g><g class="value-labels"><text><tspan x="518.636" y="249.786">Management</tspan><tspan x="542.918" y="267.786">49.6%</tspan></text><text><tspan x="61.25" y="412.582">Developer / Engineer</tspan><tspan x="115.852" y="430.582">19.6%</tspan></text><text><tspan x="90.829" y="238.386">Other</tspan><tspan x="96.9" y="256.386">14%</tspan></text><text><tspan x="125.299" y="125.731">Support</tspan><tspan x="136.557" y="143.731">7.7%</tspan></text><text><tspan x="110.453" y="69.582">Advocate</tspan><tspan x="125.336" y="87.582">4.2%</tspan></text><text><tspan x="161.195" y="30.582">Marketing</tspan><tspan x="180.086" y="48.582">2.8%</tspan></text><text><tspan x="274.055" y="36.582">Educator</tspan><tspan x="289.969" y="54.582">2.1%</tspan></text></g></g></svg>