<svg xmlns="http://www.w3.org/2000/svg" width="100%" height="100%" viewBox="0 0 660 460"><defs><style type="text/css">@import url(/_static/css/survey-2021-svg.css);</style><linearGradient id="paint0_linear_42_130" x1="128.075" x2="128.075" y1="225.164" y2="389.39" gradientUnits="userSpaceOnUse"><stop stop-opacity="0"/><stop offset="1"/></linearGradient><linearGradient id="paint1_linear_42_130" x1="246.855" x2="246.855" y1="42.347" y2="389.39" gradientUnits="userSpaceOnUse"><stop stop-opacity="0"/><stop offset="1"/></linearGradient><linearGradient id="paint2_linear_42_130" x1="364.601" x2="364.601" y1="143.568" y2="389.39" gradientUnits="userSpaceOnUse"><stop stop-opacity="0"/><stop offset="1"/></linearGradient><linearGradient id="paint3_linear_42_130" x1="482.347" x2="482.347" y1="279.906" y2="389.39" gradientUnits="userSpaceOnUse"><stop stop-opacity="0"/><stop offset="1"/></linearGradient><linearGradient id="paint4_linear_42_130" x1="601.127" x2="601.127" y1="284.038" y2="389.39" gradientUnits="userSpaceOnUse"><stop stop-opacity="0"/><stop offset="1"/></linearGradient></defs><title>Organization size (2021)</title><desc>Bar chart showing employer organization size</desc><g class="x-axis"><g class="axis-lines"><path d="M69.202 388.873H660"/><path d="M69.202 340.329H660"/><path d="M69.202 291.784H660"/><path d="M69.202 243.24H660"/><path d="M69.202 194.695H660"/><path d="M69.202 146.15H660"/><path d="M69.202 97.6057H660"/><path d="M69.202 49.061H660"/></g><g class="axis-values"><text><tspan x="111.205" y="408.902">1-100</tspan></text><text><tspan x="217.216" y="408.902">100-1000</tspan></text><text><tspan x="325.781" y="408.902">1000-10,000</tspan></text><text><tspan x="433.313" y="408.902">10,000-100,000</tspan></text><text><tspan x="571.979" y="408.902">100,000+</tspan></text></g><g class="axis-label"><text transform="translate(51.6433 433.803)"><tspan x="180.053" y="17.46">Approximate number of employees</tspan></text></g></g><g class="y-axis"><g class="axis-values"><text><tspan x="51.294" y="392.376">0</tspan></text><text><tspan x="52.005" y="343.831">5</tspan></text><text><tspan x="45.264" y="295.287">10</tspan></text><text><tspan x="45.975" y="246.742">15</tspan></text><text><tspan x="43.551" y="198.197">20</tspan></text><text><tspan x="44.262" y="149.653">25</tspan></text><text><tspan x="43.601" y="101.108">30</tspan></text><text><tspan x="44.312" y="52.564">35</tspan></text></g><g class="axis-label"><text transform="translate(0 392.488) rotate(-90)"><tspan x="111.018" y="14.582">Respondents (%)</tspan></text></g></g><g class="data"><g id="Bar"><path fill="#1E73BE" d="M177.653 225.164H78.4978V389.39H177.653V225.164Z"/><path fill="url(#paint0_linear_42_130)" fill-opacity=".1" d="M177.653 225.164H78.4978V389.39H177.653V225.164Z"/></g><g id="Bar_2"><path fill="#1E73BE" d="M296.432 42.3474H197.277V389.39H296.432V42.3474Z"/><path fill="url(#paint1_linear_42_130)" fill-opacity=".1" d="M296.432 42.3474H197.277V389.39H296.432V42.3474Z"/></g><g id="Bar_3"><path fill="#1E73BE" d="M414.178 143.568H315.024V389.39H414.178V143.568Z"/><path fill="url(#paint2_linear_42_130)" fill-opacity=".1" d="M414.178 143.568H315.024V389.39H414.178V143.568Z"/></g><g id="Bar_4"><path fill="#1E73BE" d="M531.925 279.906H432.77V389.39H531.925V279.906Z"/><path fill="url(#paint3_linear_42_130)" fill-opacity=".1" d="M531.925 279.906H432.77V389.39H531.925V279.906Z"/></g><g id="Bar_5"><path fill="#1E73BE" d="M650.704 284.038H551.549V389.39H650.704V284.038Z"/><path fill="url(#paint4_linear_42_130)" fill-opacity=".1" d="M650.704 284.038H551.549V389.39H650.704V284.038Z"/></g></g></svg>