<svg xmlns="http://www.w3.org/2000/svg" width="100%" height="100%" viewBox="0 0 660 660"><defs><style type="text/css">@import url(/_static/css/survey-2021-svg.css);.series_a{fill:#1e73be}.series_b{fill:#ffa600}</style><linearGradient id="paint0_linear_13_171" x1="138.5" x2="138.5" y1="193" y2="535" gradientUnits="userSpaceOnUse"><stop stop-opacity="0"/><stop offset="1"/></linearGradient><linearGradient id="paint1_linear_13_171" x1="337" x2="337" y1="116" y2="535" gradientUnits="userSpaceOnUse"><stop stop-opacity="0"/><stop offset="1"/></linearGradient><linearGradient id="paint2_linear_13_171" x1="535.5" x2="535.5" y1="40" y2="535" gradientUnits="userSpaceOnUse"><stop stop-opacity="0"/><stop offset="1"/></linearGradient><linearGradient id="paint3_linear_13_171" x1="138.5" x2="138.5" y1="173" y2="191" gradientUnits="userSpaceOnUse"><stop stop-opacity="0"/><stop offset="1"/></linearGradient><linearGradient id="paint4_linear_13_171" x1="337" x2="337" y1="86" y2="114" gradientUnits="userSpaceOnUse"><stop stop-opacity="0"/><stop offset="1"/></linearGradient><linearGradient id="paint5_linear_13_171" x1="535.5" x2="535.5" y1="0" y2="38" gradientUnits="userSpaceOnUse"><stop stop-opacity="0"/><stop offset="1"/></linearGradient></defs><title>Total survey growth in number of employee and contractor respondents, 2019-2021</title><desc>Stacked bar chart of total respondents (with employees and contractors as separate series) showing the growth of the survey over the three years it has been running</desc><svg id="chart" width="660" height="620" x="0" y="0" viewbox="0 0 660 620"><svg width="100%" height="100%" viewBox="0 0 636 559"><g class="x-axis"><g class="axis-lines"><path d="M40.5 535H635.5"/><path d="M40.5 479H635.5"/><path d="M40.5 423H635.5"/><path d="M40.5 368H635.5"/><path d="M40.5 312H635.5"/><path d="M40.5 256H635.5"/><path d="M40.5 200H635.5"/><path d="M40.5 144H635.5"/><path d="M40.5 88H635.5"/><path d="M40.5 33H635.5"/></g><g class="axis-values"><text><tspan x="122.315" y="555.582">2019</tspan></text><text><tspan x="319.234" y="555.582">2020</tspan></text><text><tspan x="519.044" y="555.582">2021</tspan></text></g></g><g class="y-axis"><g class="axis-values"><text><tspan x="20.672" y="538.582">0</tspan></text><text><tspan x="3.969" y="482.582">100</tspan></text><text><tspan x="1.906" y="426.582">200</tspan></text><text><tspan x="2.016" y="371.582">300</tspan></text><text><tspan x="1.797" y="315.582">400</tspan></text><text><tspan x="2.391" y="259.582">500</tspan></text><text><tspan x="1.781" y="203.582">600</tspan></text><text><tspan x="2.797" y="147.582">700</tspan></text><text><tspan x="1.297" y="91.582">800</tspan></text><text><tspan x="1.781" y="36.582">900</tspan></text></g></g><g class="data"><g class="series_a"><path d="M221.5 193H55.5V535H221.5V193Z"/><path fill="url(#paint0_linear_13_171)" fill-opacity=".1" d="M221.5 193H55.5V535H221.5V193Z"/><path d="M420.5 116H253.5V535H420.5V116Z"/><path fill="url(#paint1_linear_13_171)" fill-opacity=".1" d="M420.5 116H253.5V535H420.5V116Z"/><path d="M618.5 40H452.5V535H618.5V40Z"/><path fill="url(#paint2_linear_13_171)" fill-opacity=".1" d="M618.5 40H452.5V535H618.5V40Z"/></g><g class="series_b"><path d="M221.5 173H55.5V191H221.5V173Z"/><path fill="url(#paint3_linear_13_171)" fill-opacity=".1" d="M221.5 173H55.5V191H221.5V173Z"/><path d="M420.5 86H253.5V114H420.5V86Z"/><path fill="url(#paint4_linear_13_171)" fill-opacity=".1" d="M420.5 86H253.5V114H420.5V86Z"/><path d="M618.5 0H452.5V38H618.5V0Z"/><path fill="url(#paint5_linear_13_171)" fill-opacity=".1" d="M618.5 0H452.5V38H618.5V0Z"/></g></g></svg></svg><svg id="legend" width="640" height="30" x="10" y="620" viewBox="0 0 640 30" style="overflow:visible"><g class="legend"><svg width="30%" height="100%" x="32%" y="0" viewbox="0 0 100% 100%"><ellipse cx="15" cy="15" class="series_a" rx="8" ry="8"/><text><tspan x="30" y="21">Employees</tspan></text></svg><svg width="30%" height="100%" x="55%" y="0" viewbox="0 0 100% 100%"><ellipse cx="15" cy="15" class="series_b" rx="8" ry="8"/><text><tspan x="30" y="21">Contractors</tspan></text></svg></g></svg></svg>