<svg xmlns="http://www.w3.org/2000/svg" viewBox="0 0 660 229"><defs><style type="text/css">@import url(/_static/css/survey-2021-svg.css);</style><linearGradient id="paint0_linear_68_304" x1="126.328" x2="126.328" y1="127.875" y2="165" gradientUnits="userSpaceOnUse"><stop stop-opacity="0"/><stop offset="1"/></linearGradient><linearGradient id="paint1_linear_68_304" x1="244.922" x2="244.922" y1="142.312" y2="165" gradientUnits="userSpaceOnUse"><stop stop-opacity="0"/><stop offset="1"/></linearGradient><linearGradient id="paint2_linear_68_304" x1="363.516" x2="363.516" y1="35.063" y2="165" gradientUnits="userSpaceOnUse"><stop stop-opacity="0"/><stop offset="1"/></linearGradient><linearGradient id="paint3_linear_68_304" x1="482.109" x2="482.109" y1="147.469" y2="165" gradientUnits="userSpaceOnUse"><stop stop-opacity="0"/><stop offset="1"/></linearGradient></defs><title>Weekly hours worked, contractors (2021)</title><desc>Bar chart showing weekly hours worked by contractor respondents</desc><g class="bar-chart"><g class="x-axis"><g class="axis-lines"><path d="M67.0315 164.484H660"/><path d="M67.0315 112.922H660"/><path d="M67.0315 60.3281H660"/><path d="M67.0315 7.73437H660"/></g><g class="axis-label"><text transform="translate(66.0002 204.187)"><tspan x="214.57" y="17.957">Hours worked (weekly)</tspan></text></g><g class="axis-values"><text><tspan x="113" y="184">1-20</tspan></text><text><tspan x="228" y="184">21-30</tspan></text><text><tspan x="346" y="184">31-40</tspan></text><text><tspan x="465" y="184">41-50</tspan></text><text><tspan x="579" y="184">51-60+</tspan></text></g></g><g class="y-axis"><g class="axis-label"><text transform="translate(0 169.125) rotate(-90)"><tspan x="24.773" y="14.582">Contractors (%)</tspan></text></g><g class="axis-values"><text><tspan x="49.14" y="167.754">0</tspan></text><text><tspan x="42.107" y="116.192">25</tspan></text><text><tspan x="41.752" y="63.598">50</tspan></text><text><tspan x="42.31" y="12.035">75</tspan></text></g></g><g class="data"><path fill="#1E73BE" d="M176.344 127.875H76.3128V165H176.344V127.875Z"/><path fill="url(#paint0_linear_68_304)" fill-opacity=".1" d="M176.344 127.875H76.3128V165H176.344V127.875Z"/><path fill="#1E73BE" d="M294.938 142.312H194.906V165H294.938V142.312Z"/><path fill="url(#paint1_linear_68_304)" fill-opacity=".1" d="M294.938 142.312H194.906V165H294.938V142.312Z"/><path fill="#1E73BE" d="M413.531 35.0625H313.5V165H413.531V35.0625Z"/><path fill="url(#paint2_linear_68_304)" fill-opacity=".1" d="M413.531 35.0625H313.5V165H413.531V35.0625Z"/><path fill="#1E73BE" d="M532.125 147.469H432.094V165H532.125V147.469Z"/><path fill="url(#paint3_linear_68_304)" fill-opacity=".1" d="M532.125 147.469H432.094V165H532.125V147.469Z"/></g></g></svg>