<svg xmlns="http://www.w3.org/2000/svg" xmlns:svg="http://www.w3.org/2000/svg" id="svg2" width="2160" height="5400" version="1.1"><defs id="defs4"><marker id="ArrowStart" markerHeight="3" markerUnits="strokeWidth" markerWidth="4" orient="auto" refX="10" refY="5" viewBox="0 0 10 10"><path id="path1403" d="M 10 0 L 0 5 L 10 10 z"/></marker><marker id="ArrowEnd" markerHeight="3" markerUnits="strokeWidth" markerWidth="4" orient="auto" refX="0" refY="5" viewBox="0 0 10 10"><path id="path1400" d="M 0 0 L 10 5 L 0 10 z"/></marker></defs><metadata id="metadata7"/><g id="layer1" transform="translate(0,4347.638)"><rect id="rect3787" width="2160" height="1288.777" x="0" y="-2961.972" style="fill:#fdedcc;fill-opacity:1"/><rect style="fill:#363948;fill-opacity:1" id="rect2993" width="2160" height="1366.553" x="0" y="2981.084" transform="scale(1,-1)"/><text id="text2985" x="155.892" y="-3679.479" transform="scale(0.99544416,1.0045767)" xml:space="preserve" style="font-size:555.76147461px;font-style:normal;font-variant:normal;font-weight:700;font-stretch:normal;text-align:start;line-height:125%;letter-spacing:0;word-spacing:0;writing-mode:lr-tb;text-anchor:start;fill:#f2b33f;fill-opacity:1;stroke:none;font-family:Aleo;-inkscape-font-specification:Aleo Bold"><tspan id="tspan2987" x="155.892" y="-3679.479"><tspan id="tspan3869" style="fill:#ee6f44;fill-opacity:1">W</tspan><tspan id="tspan3763" style="font-size:555.76147461px;font-style:normal;font-variant:normal;font-weight:700;font-stretch:normal;text-align:start;line-height:125%;writing-mode:lr-tb;text-anchor:start;fill:#fdedcc;fill-opacity:1;font-family:Aleo;-inkscape-font-specification:Aleo Bold">RITE</tspan></tspan></text><text id="text2989" x="153.654" y="-3229.676" transform="scale(0.99544416,1.0045767)" xml:space="preserve" style="font-size:370.68856812px;font-style:normal;font-variant:normal;font-weight:400;font-stretch:normal;line-height:125%;letter-spacing:0;word-spacing:0;fill:#000;fill-opacity:1;stroke:none;font-family:Aleo;-inkscape-font-specification:Aleo"><tspan id="tspan2991" x="153.654" y="-3229.676"><tspan id="tspan3769" style="font-size:370.68856812px;font-style:normal;font-variant:normal;font-weight:300;font-stretch:normal;text-align:start;line-height:125%;writing-mode:lr-tb;text-anchor:start;fill:#f1f1f1;fill-opacity:1;font-family:Aleo;-inkscape-font-specification:Aleo Light"><tspan id="tspan4383" style="fill:#fdedcc;fill-opacity:1">THE </tspan></tspan><tspan id="tspan3785" style="font-weight:700;fill:#ee6f44;fill-opacity:1;-inkscape-font-specification:Aleo Bold">DOCS</tspan></tspan></text><rect id="rect3789" width="2160" height="72.661" x="0" y="-3022.13" style="fill:#ee6f44;fill-opacity:1"/><rect id="rect3855" width="1800" height="27.997" x="180" y="927.638" transform="scale(1,-1)" style="fill:#363948;fill-opacity:1"/><text id="text3775" x="156.346" y="-2602.15" transform="scale(0.99544416,1.0045767)" xml:space="preserve" style="font-size:253.36990356px;font-style:normal;font-variant:normal;font-weight:400;font-stretch:normal;line-height:125%;letter-spacing:0;word-spacing:0;fill:#000;fill-opacity:1;stroke:none;font-family:Aleo;-inkscape-font-specification:Aleo"><tspan id="tspan3777" x="156.346" y="-2602.15"><tspan id="tspan3794" style="fill:#363948;fill-opacity:1">PORTLAND</tspan><tspan id="tspan3790" style="fill:#ee6f44;fill-opacity:1"> 503</tspan></tspan></text><text id="text3779" x="155.122" y="-2180.993" transform="scale(0.99544416,1.0045767)" xml:space="preserve" style="font-size:437.284729px;font-style:normal;font-variant:normal;font-weight:400;font-stretch:normal;line-height:125%;letter-spacing:0;word-spacing:0;fill:#000;fill-opacity:1;stroke:none;font-family:Aleo;-inkscape-font-specification:Aleo"><tspan id="tspan3781" x="155.122" y="-2180.993"><tspan id="tspan3788" style="fill:#ee6f44;fill-opacity:1">OR</tspan><tspan id="tspan3796" style="fill:#363948;fill-opacity:1">EGON</tspan></tspan></text><text id="text3783" x="154.819" y="-1855.302" transform="scale(0.99544416,1.0045767)" xml:space="preserve" style="font-size:293.97244263px;font-style:normal;font-variant:normal;font-weight:400;font-stretch:normal;line-height:125%;letter-spacing:0;word-spacing:0;fill:#000;fill-opacity:1;stroke:none;font-family:Aleo;-inkscape-font-specification:Aleo"><tspan id="tspan3786" x="154.819" y="-1855.302"><tspan id="tspan3798" style="fill:#363948;fill-opacity:1">MAY 5-6</tspan><tspan id="tspan3792" style="fill:#ee6f44;fill-opacity:1"> 2014</tspan></tspan></text><text style="font-size:245.82450867px;font-style:normal;font-variant:normal;font-weight:400;font-stretch:normal;text-align:start;line-height:125%;letter-spacing:0;word-spacing:0;writing-mode:lr-tb;text-anchor:start;fill:#363948;fill-opacity:1;stroke:none;font-family:Aleo;-inkscape-font-specification:Aleo" id="text3800" x="175.206" y="-1087.227" xml:space="preserve"><tspan id="tspan3802" x="175.206" y="-1087.227"><tspan style="font-weight:700;fill:#363948;fill-opacity:1;-inkscape-font-specification:Aleo Bold" id="tspan3804">REGISTRATION</tspan></tspan></text><rect style="fill:#363948;fill-opacity:1" id="rect3806" width="1800" height="27.997" x="180" y="1377.638" transform="scale(1,-1)"/><path style="fill:#363948;stroke:none;fill-opacity:1" id="path1407" d="m 1890,540.69238 -294.8958,0 0,-300.14531 -292.9948,0 0,-302.171458 -297.6182,0 0,-296.553512 -295.59938,0 0,-294.61579 -438.89184,0 0,150.31764 291.77182,0 0,295.73569 295.93462,0 0,299.898488 295.33048,0 0,298.336522 296.5535,0 0,300.86735 440.4096,0 0,-151.66962 z"/><path style="fill:#363948;stroke:none;fill-opacity:1" id="path1409" d="m 568.06021,223.56063 260.79395,0 c 71.83595,0 74.59887,110.51684 0,110.51684 l -133.67748,0 254.23293,254.23293 c 56.35989,56.36359 -23.35221,137.91765 -83.23023,78.04331 l -250.44957,-251.14215 0,132.31076 c 0.37944,71.83594 -111.05837,74.59887 -111.22783,0 l 0,-259.17672 c 0,-38.68089 25.95672,-64.78497 63.55823,-64.78497 z"/><rect id="rect4421" width="1800" height="27.997" x="180" y="1377.638" transform="scale(1,-1)" style="fill:#363948;fill-opacity:1"/></g></svg>