<svg xmlns="http://www.w3.org/2000/svg" width="100%" height="100%" fill="none" viewBox="0 0 546 343"><defs><style type="text/css">@import url(/_static/css/survey-2022-svg.css);</style></defs><title>Job title wordcloud (2022)</title><desc>Wordcloud showing visual representation of terms most commonly used in respondent job titles (larger terms appear more often)</desc><g class="wordcloud"><text class="two-of-four" font-size="20.927" transform="translate(61.5037 307.785) rotate(-10)"><tspan x=".375" y="20.11">Consultant</tspan></text><text class="one-of-four" font-size="20.927" transform="translate(37.5567 149.159) rotate(20)"><tspan x=".466" y="20.11">Director</tspan></text><text class="four-of-four" font-size="6.155" transform="translate(338.476 205.776) rotate(-10)"><tspan x=".078" y="5.738">CEO</tspan></text><text class="two-of-four" font-size="61.55" transform="translate(250.98 59.0699) rotate(10)"><tspan x=".265" y="59.382">Technical</tspan></text><text class="two-of-four" font-size="59.703" transform="translate(283.435) rotate(20)"><tspan x=".343" y="57.71">Writer</tspan></text><text class="two-of-four" font-size="52.317" transform="translate(237.98 183.574) rotate(-20)"><tspan x=".243" y="50.525">Senior</tspan></text><text class="two-of-four" font-size="43.7" transform="translate(72.4083 219.271) rotate(-20)"><tspan x=".493" y="42.391">Manager</tspan></text><text class="two-of-four" font-size="42.469" transform="translate(159.572 219.884) rotate(10)"><tspan x=".106" y="40.943">Documentation</tspan></text><text class="two-of-four" font-size="39.392" transform="translate(326.938 196.059) rotate(20)"><tspan x=".444" y="38.324">Developer</tspan></text><text class="two-of-four" font-size="38.161" transform="translate(210.082 87.2342) rotate(20)"><tspan x=".054" y="36.877">Content</tspan></text><text class="two-of-four" font-size="37.545" transform="translate(160.025 144.452) rotate(-10)"><tspan x=".277" y="36.153">Lead</tspan></text><text class="three-of-four" font-size="36.93" transform="translate(345.389 190.782) rotate(-10)"><tspan x=".006" y="35.929">Specialist</tspan></text><text class="three-of-four" font-size="33.852"><tspan x="91.651" y="293.38">Engineer</tspan></text><text class="three-of-four" font-size="32.006"><tspan x="86.243" y="121.216">Writing</tspan></text><text class="three-of-four" font-size="30.775" transform="translate(23.9188 194.783) rotate(-10)"><tspan x=".353" y="29.691">Information</tspan></text><text class="three-of-four" font-size="30.159" transform="translate(98.2445 165.235) rotate(-20)"><tspan x=".041" y="28.967">Staff</tspan></text><text class="three-of-four" font-size="29.544" transform="translate(235.002 272.194) rotate(10)"><tspan x=".393" y="28.743">Principal</tspan></text><text class="one-of-four" font-size="28.928" transform="translate(228.198 207.004) rotate(20)"><tspan x=".224" y="28.019">Team</tspan></text><text class="three-of-four" font-size="27.082" transform="translate(399.4 163.575) rotate(-20)"><tspan x=".469" y="26.348">User</tspan></text><text class="three-of-four" font-size="27.082"><tspan x="170.511" y="96.114">Editor</tspan></text><text class="one-of-four" font-size="25.235" transform="translate(408.619 204.184) rotate(20)"><tspan x=".236" y="24.677">Assistance</tspan></text><text class="three-of-four" font-size="25.235"><tspan x="174.054" y="74.747">Product</tspan></text><text class="three-of-four" font-size="24.004" transform="translate(421.381 98.8819) rotate(-20)"><tspan x=".095" y="23.229">Associate</tspan></text><text class="three-of-four" font-size="24.004" transform="translate(79.468 2.58486) rotate(10)"><tspan x=".272" y="23.229">Communications</tspan></text><text class="three-of-four" font-size="24.004" transform="translate(184.367 287.709) rotate(10)"><tspan x=".233" y="23.229">Software</tspan></text><text class="four-of-four" font-size="22.773" transform="translate(300.257 230.552) rotate(10)"><tspan x=".16" y="22.281">Author</tspan></text><text class="four-of-four" font-size="22.773" transform="translate(81.0238 151.271) rotate(-20)"><tspan x=".273" y="22.281">Architect</tspan></text><text class="one-of-four" font-size="20.927" transform="translate(380.701 31.2603) rotate(20)"><tspan x=".465" y="20.11">Knowledge</tspan></text><text class="three-of-four" font-size="20.927" transform="translate(461.605 202.359) rotate(20)"><tspan x=".46" y="20.11">Designer</tspan></text><text class="two-of-four" font-size="20.927" transform="translate(441 300.379) rotate(-10.3545)"><tspan x=".2" y="20.11">Support</tspan></text><text class="two-of-four" font-size="20.927" transform="translate(108.12 63.5089) rotate(10)"><tspan x=".499" y="20.11">Junior</tspan></text><text class="two-of-four" font-size="18.465" transform="translate(82.5028 125.808) rotate(-10)"><tspan x=".188" y="17.715">Leader</tspan></text><text class="three-of-four" font-size="16.003" transform="translate(127.927 244.924) rotate(-20)"><tspan x=".396" y="15.319">API</tspan></text><text class="one-of-four" font-size="16.003" transform="translate(304.071 323.529) rotate(-10)"><tspan x=".024" y="15.319">Experience</tspan></text><text class="three-of-four" font-size="16.003" transform="translate(17.4963 219.933) rotate(10)"><tspan x=".126" y="15.319">Strategist</tspan></text><text class="two-of-four" font-size="16.003"><tspan x=".177" y="96.164">Communicator</tspan></text><text class="four-of-four" font-size="16.003" transform="translate(175.408 141.856) rotate(-10)"><tspan x=".442" y="15.319">Head</tspan></text><text class="one-of-four" font-size="12.31" transform="translate(264.141 174.046) rotate(-10)"><tspan x=".285" y="11.976">Learning</tspan></text><text class="four-of-four" font-size="12.31" transform="translate(119.574 52.4167) rotate(-10)"><tspan x=".121" y="11.976">Document</tspan></text><text class="four-of-four" font-size="12.31" transform="translate(360.321 298.446) rotate(10)"><tspan x=".386" y="11.976">Management</tspan></text><text class="two-of-four" font-size="12.31"><tspan x="335.935" y="34.965">Publications</tspan></text><text class="one-of-four" font-size="12.31"><tspan x="50.608" y="268.238">Communication</tspan></text><text class="two-of-four" font-size="12.31"><tspan x="48.075" y="150.678">Program</tspan></text><text class="four-of-four" font-size="12.31" transform="translate(192.358 182.68) rotate(-20)"><tspan x=".046" y="11.976">Education</tspan></text><text class="four-of-four" font-size="12.31" transform="translate(495.137 205.3) rotate(-20)"><tspan x=".269" y="11.976">Training</tspan></text><text class="four-of-four" font-size="12.31"><tspan x="246.294" y="339.02">Relations</tspan></text><text class="one-of-four" font-size="12.31" transform="translate(296.081 85.2813) rotate(-10)"><tspan x=".329" y="11.976">Writers</tspan></text><text class="four-of-four" font-size="12.31" transform="translate(445.093 44.1011) rotate(20)"><tspan x=".135" y="11.976">Customer</tspan></text><text class="two-of-four" font-size="12.31" transform="translate(467.576 107.732) rotate(-10)"><tspan x=".13" y="11.976">Business</tspan></text><text class="three-of-four" font-size="12.31" transform="translate(289.583 219.781) rotate(-20)"><tspan x=".15" y="11.976">Help</tspan></text><text class="four-of-four" font-size="12.31"><tspan x="145.621" y="329.172">Development</tspan></text><text class="one-of-four" font-size="12.31" transform="translate(71.8904 63.8251) rotate(-20)"><tspan x=".434" y="11.976">Analyst</tspan></text><text class="four-of-four" font-size="12.31" transform="translate(359.052 147.342) rotate(-10)"><tspan x=".421" y="11.976">SME</tspan></text><text class="four-of-four" font-size="12.31" transform="translate(198.286 233.79) rotate(10)"><tspan x=".351" y="11.976">Advocate</tspan></text><text class="one-of-four" font-size="12.31" transform="translate(194.958 19.635) rotate(-10)"><tspan x=".426" y="11.976">Marketing</tspan></text><text class="four-of-four" font-size="6.155" transform="translate(278.012 227.592) rotate(20)"><tspan x=".332" y="5.738">Proposal</tspan></text><text class="four-of-four" font-size="6.155" transform="translate(65.7024 112.284) rotate(20)"><tspan x=".024" y="5.738">Publisher</tspan></text><text class="one-of-four" font-size="6.155" transform="translate(187.829 134.857) rotate(-10)"><tspan x=".271" y="5.738">Application</tspan></text><text class="four-of-four" font-size="6.155" transform="translate(192.4 225.531) rotate(10)"><tspan x=".179" y="5.738">Controller</tspan></text><text class="four-of-four" font-size="6.155" transform="translate(187.014 230.539) rotate(20)"><tspan x=".244" y="5.738">UX</tspan></text><text class="two-of-four" font-size="6.155" transform="translate(424.767 217.013) rotate(-10)"><tspan x=".339" y="5.738">Journalist</tspan></text><text class="two-of-four" font-size="6.155" transform="translate(265 167.235) rotate(-20)"><tspan x=".096" y="5.738">Assistant</tspan></text><text class="four-of-four" font-size="6.155" transform="translate(394.126 145.82) rotate(20)"><tspan x=".17" y="5.738">Language</tspan></text><text class="four-of-four" font-size="6.155"><tspan x="322.388" y="117.201">Network</tspan></text><text class="four-of-four" font-size="6.155" transform="translate(296.827 73.0111) rotate(-20)"><tspan x=".033" y="5.738">Security</tspan></text><text class="four-of-four" font-size="6.155" transform="translate(314.867 131.38) rotate(20)"><tspan x=".39" y="5.738">Process</tspan></text><text class="four-of-four" font-size="6.155"><tspan x="234.595" y="113.049">Analyser</tspan></text><text class="four-of-four" font-size="6.155"><tspan x="397.003" y="190.602">DevOps</tspan></text><text class="four-of-four" font-size="6.155" transform="translate(386.347 57.7721) rotate(20)"><tspan x=".444" y="5.738">Experienced</tspan></text><text class="four-of-four" font-size="6.155" transform="translate(50.2857 180.871) rotate(20)"><tspan x=".076" y="5.738">Programmer</tspan></text><text class="four-of-four" font-size="6.155" transform="translate(354.875 267.725) rotate(-10)"><tspan x=".304" y="5.738">Success</tspan></text><text class="one-of-four" font-size="6.155" transform="translate(277.32 285.448) rotate(10)"><tspan x=".427" y="5.738">Educator</tspan></text><text class="four-of-four" font-size="6.155"><tspan x="233.768" y="106.894">Portfolio</tspan></text><text class="four-of-four" font-size="6.155" transform="translate(307.222 134.085) rotate(20)"><tspan x=".365" y="5.738">Base</tspan></text><text class="four-of-four" font-size="6.155" transform="translate(365.29 96.9483) rotate(10)"><tspan x=".133" y="5.738">Center</tspan></text><text class="four-of-four" font-size="6.155" transform="translate(51.9465 244.089) rotate(20)"><tspan x=".428" y="5.738">Innovation</tspan></text><text class="four-of-four" font-size="6.155"><tspan x="52.145" y="276.772">Localization</tspan></text><text class="four-of-four" font-size="6.155" transform="translate(386.182 232.295) rotate(-10)"><tspan x=".032" y="5.738">Web</tspan></text><text class="two-of-four" font-size="6.155" transform="translate(200.479 335.268) rotate(-10)"><tspan x=".312" y="5.738">Accessibility</tspan></text><text class="four-of-four" font-size="6.155" transform="translate(429.66 242.925) rotate(10)"><tspan x=".09" y="5.738">Solutions</tspan></text><text class="four-of-four" font-size="6.155"><tspan x="134.132" y="72.427">Maintenance</tspan></text><text class="four-of-four" font-size="6.155"><tspan x="393.624" y="329.089">Engineering</tspan></text><text class="four-of-four" font-size="6.155" transform="translate(373.282 190.687) rotate(10)"><tspan x=".464" y="5.738">Expert</tspan></text><text class="four-of-four" font-size="6.155" transform="translate(454.63 253.711) rotate(20)"><tspan x=".135" y="5.738">Department</tspan></text><text class="four-of-four" font-size="6.155" transform="translate(127.689 89.2366) rotate(10)"><tspan x=".119" y="5.738">Group</tspan></text><text class="four-of-four" font-size="6.155" transform="translate(466.213 162.633) rotate(20)"><tspan x=".474" y="5.738">Consulting</tspan></text><text class="three-of-four" font-size="6.155" transform="translate(251.216 147) rotate(10)"><tspan x=".202" y="5.738">Data</tspan></text><text class="four-of-four" font-size="6.155" transform="translate(247.951 37.6281) rotate(-20)"><tspan x=".29" y="5.738">Contract</tspan></text><text class="four-of-four" font-size="6.155" transform="translate(236.01 207.507) rotate(20)"><tspan x=".258" y="5.738">Project</tspan></text><text class="four-of-four" font-size="6.155" transform="translate(277.887 187.777) rotate(-20)"><tspan x=".304" y="5.738">Online</tspan></text><text class="four-of-four" font-size="6.155" transform="translate(292.745 11.7393) rotate(10)"><tspan x=".327" y="5.738">Contractor</tspan></text><text class="four-of-four" font-size="6.155" transform="translate(173.882 270.375) rotate(-10)"><tspan x=".419" y="5.738">Owner</tspan></text></g></svg>